<ttFont>
    <TTGlyph name=".notdef" xMin="50" yMin="0" xMax="1074" yMax="1280">
      <contour>
        <pt x="50" y="0" on="1"/>
        <pt x="50" y="1280" on="1"/>
        <pt x="1074" y="1280" on="1"/>
        <pt x="1074" y="0" on="1"/>
      </contour>
      <contour>
        <pt x="82" y="32" on="1"/>
        <pt x="1042" y="32" on="1"/>
        <pt x="1042" y="1248" on="1"/>
        <pt x="82" y="1248" on="1"/>
      </contour>
    </TTGlyph>
    <TTGlyph name="A" xMin="-117" yMin="0" xMax="1395" yMax="1430">
      <contour>
        <pt x="165" y="0" on="1"/>
        <pt x="-117" y="0" on="1"/>
        <pt x="776" y="1430" on="1"/>
        <pt x="1061" y="1430" on="1"/>
        <pt x="1395" y="0" on="1"/>
        <pt x="1120" y="0" on="1"/>
        <pt x="1035" y="390" on="1"/>
        <pt x="560" y="390" on="1"/>
        <pt x="697" y="620" on="1"/>
        <pt x="985" y="620" on="1"/>
        <pt x="867" y="1157" on="1"/>
      </contour>
    </TTGlyph>
    <TTGlyph name="AE" xMin="-117" yMin="0" xMax="1924" yMax="1430">
      <contour>
        <pt x="800" y="600" on="1"/>
        <pt x="826" y="390" on="1"/>
        <pt x="407" y="390" on="1"/>
        <pt x="175" y="0" on="1"/>
        <pt x="-117" y="0" on="1"/>
        <pt x="776" y="1430" on="1"/>
        <pt x="1924" y="1430" on="1"/>
        <pt x="1878" y="1200" on="1"/>
        <pt x="1090" y="1200" on="1"/>
        <pt x="1178" y="840" on="1"/>
        <pt x="1771" y="840" on="1"/>
        <pt x="1725" y="610" on="1"/>
        <pt x="1231" y="610" on="1"/>
        <pt x="1321" y="230" on="1"/>
        <pt x="1704" y="230" on="1"/>
        <pt x="1658" y="0" on="1"/>
        <pt x="1090" y="0" on="1"/>
        <pt x="859" y="1144" on="1"/>
        <pt x="530" y="600" on="1"/>
      </contour>
    </TTGlyph>
    <TTGlyph name="Aacute" xMin="-117" yMin="0" xMax="1395" yMax="1810">
      <component glyphName="A" x="0" y="0" flags="0x200"/>
      <component glyphName="acute" x="577" y="380" flags="0x0"/>
    </TTGlyph>
    <TTGlyph name="Abreve" xMin="-117" yMin="0" xMax="1395" yMax="1810">
      <component glyphName="A" x="0" y="0" flags="0x200"/>
      <component glyphName="breve" x="446" y="380" flags="0x0"/>
    </TTGlyph>
    <TTGlyph name="Acircumflex" xMin="-117" yMin="0" xMax="1395" yMax="1810">
      <component glyphName="A" x="0" y="0" flags="0x200"/>
      <component glyphName="circumflex" x="481" y="380" flags="0x0"/>
    </TTGlyph>
    <TTGlyph name="Adieresis" xMin="-117" yMin="0" xMax="1395" yMax="1810">
      <component glyphName="A" x="0" y="0" flags="0x200"/>
      <component glyphName="dieresis" x="464" y="380" flags="0x0"/>
    </TTGlyph>
    <TTGlyph name="Agrave" xMin="-117" yMin="0" xMax="1395" yMax="1810">
      <component glyphName="A" x="0" y="0" flags="0x200"/>
      <component glyphName="grave" x="372" y="380" flags="0x0"/>
    </TTGlyph>
    <TTGlyph name="Alpha" xMin="-117" yMin="0" xMax="1395" yMax="1430">
      <component glyphName="A" x="0" y="0" flags="0x200"/>
    </TTGlyph>
    <TTGlyph name="Alphatonos" xMin="-117" yMin="0" xMax="1395" yMax="1430">
      <component glyphName="tonos" x="0" y="0" flags="0x0"/>
      <component glyphName="Alpha" x="0" y="0" flags="0x200"/>
    </TTGlyph>
    <TTGlyph name="Amacron" xMin="-117" yMin="0" xMax="1395" yMax="1810">
      <component glyphName="A" x="0" y="0" flags="0x200"/>
      <component glyphName="macron" x="491" y="380" flags="0x0"/>
    </TTGlyph>
    <TTGlyph name="Aogonek" xMin="-117" yMin="-426" xMax="1395" yMax="1430">
      <contour>
        <pt x="165" y="0" on="1"/>
        <pt x="-117" y="0" on="1"/>
        <pt x="776" y="1430" on="1"/>
        <pt x="1061" y="1430" on="1"/>
        <pt x="1395" y="0" on="1"/>
        <pt x="1138" y="-96" on="0"/>
        <pt x="1117" y="-198" on="1"/>
        <pt x="1104" y="-266" on="0"/>
        <pt x="1189" y="-266" on="1"/>
        <pt x="1274" y="-266" on="0"/>
        <pt x="1330" y="-246" on="1"/>
        <pt x="1298" y="-406" on="1"/>
        <pt x="1233" y="-426" on="0"/>
        <pt x="1145" y="-426" on="1"/>
        <pt x="884" y="-426" on="0"/>
        <pt x="924" y="-223" on="1"/>
        <pt x="951" y="-92" on="0"/>
        <pt x="1120" y="0" on="1"/>
        <pt x="1035" y="390" on="1"/>
        <pt x="560" y="390" on="1"/>
        <pt x="697" y="620" on="1"/>
        <pt x="985" y="620" on="1"/>
        <pt x="867" y="1157" on="1"/>
      </contour>
    </TTGlyph>
    <TTGlyph name="Aring" xMin="-117" yMin="0" xMax="1395" yMax="1819">
      <contour>
        <pt x="929" y="1474" on="1"/>
        <pt x="1063" y="1474" on="0"/>
        <pt x="1090" y="1611" on="1"/>
        <pt x="1117" y="1745" on="0"/>
        <pt x="983" y="1745" on="1"/>
        <pt x="845" y="1745" on="0"/>
        <pt x="818" y="1611" on="1"/>
        <pt x="791" y="1474" on="0"/>
      </contour>
      <contour>
        <pt x="165" y="0" on="1"/>
        <pt x="-117" y="0" on="1"/>
        <pt x="776" y="1430" on="1"/>
        <pt x="780" y="1430" on="1"/>
        <pt x="702" y="1479" on="0"/>
        <pt x="728" y="1609" on="1"/>
        <pt x="770" y="1819" on="0"/>
        <pt x="998" y="1819" on="1"/>
        <pt x="1222" y="1819" on="0"/>
        <pt x="1180" y="1609" on="1"/>
        <pt x="1154" y="1479" on="0"/>
        <pt x="1058" y="1430" on="1"/>
        <pt x="1061" y="1430" on="1"/>
        <pt x="1395" y="0" on="1"/>
        <pt x="1120" y="0" on="1"/>
        <pt x="1035" y="390" on="1"/>
        <pt x="560" y="390" on="1"/>
        <pt x="697" y="620" on="1"/>
        <pt x="985" y="620" on="1"/>
        <pt x="867" y="1157" on="1"/>
      </contour>
    </TTGlyph>
    <TTGlyph name="Atilde" xMin="-117" yMin="0" xMax="1395" yMax="1810">
      <component glyphName="A" x="0" y="0" flags="0x200"/>
      <component glyphName="tilde" x="491" y="380" flags="0x0"/>
    </TTGlyph>
    <TTGlyph name="B" xMin="8" yMin="0" xMax="1372" yMax="1430">
      <contour>
        <pt x="8" y="0" on="1"/>
        <pt x="294" y="1430" on="1"/>
        <pt x="964" y="1430" on="1"/>
        <pt x="1372" y="1430" on="0"/>
        <pt x="1305" y="1097" on="1"/>
        <pt x="1257" y="853" on="0"/>
        <pt x="970" y="748" on="1"/>
        <pt x="1243" y="695" on="0"/>
        <pt x="1189" y="423" on="1"/>
        <pt x="1104" y="0" on="0"/>
        <pt x="657" y="0" on="1"/>
      </contour>
      <contour>
        <pt x="692" y="230" on="1"/>
        <pt x="868" y="230" on="0"/>
        <pt x="904" y="410" on="1"/>
        <pt x="949" y="633" on="0"/>
        <pt x="686" y="633" on="1"/>
        <pt x="606" y="633" on="1"/>
        <pt x="640" y="804" on="1"/>
        <pt x="981" y="859" on="0"/>
        <pt x="1025" y="1080" on="1"/>
        <pt x="1049" y="1200" on="0"/>
        <pt x="901" y="1200" on="1"/>
        <pt x="513" y="1200" on="1"/>
        <pt x="319" y="230" on="1"/>
      </contour>
    </TTGlyph>
    <TTGlyph name="Beta" xMin="8" yMin="0" xMax="1372" yMax="1430">
      <component glyphName="B" x="0" y="0" flags="0x200"/>
    </TTGlyph>
    <TTGlyph name="C" xMin="-44" yMin="-10" xMax="1422" yMax="1440">
      <contour>
        <pt x="1160" y="60" on="1"/>
        <pt x="961" y="-10" on="0"/>
        <pt x="726" y="-10" on="1"/>
        <pt x="-44" y="-10" on="0"/>
        <pt x="105" y="735" on="1"/>
        <pt x="246" y="1440" on="0"/>
        <pt x="1016" y="1440" on="1"/>
        <pt x="1251" y="1440" on="0"/>
        <pt x="1422" y="1370" on="1"/>
        <pt x="1374" y="1130" on="1"/>
        <pt x="1205" y="1210" on="0"/>
        <pt x="990" y="1210" on="1"/>
        <pt x="475" y="1210" on="0"/>
        <pt x="380" y="735" on="1"/>
        <pt x="277" y="220" on="0"/>
        <pt x="792" y="220" on="1"/>
        <pt x="1007" y="220" on="0"/>
        <pt x="1208" y="300" on="1"/>
      </contour>
    </TTGlyph>
    <TTGlyph name="Cacute" xMin="-44" yMin="-10" xMax="1422" yMax="1810">
      <component glyphName="C" x="0" y="0" flags="0x200"/>
      <component glyphName="acute" x="531" y="380" flags="0x0"/>
    </TTGlyph>
    <TTGlyph name="Ccaron" xMin="-44" yMin="-10" xMax="1422" yMax="1810">
      <component glyphName="C" x="0" y="0" flags="0x200"/>
      <component glyphName="caron" x="493" y="380" flags="0x0"/>
    </TTGlyph>
    <TTGlyph name="Ccedilla" xMin="-29" yMin="-422" xMax="1422" yMax="1440">
      <contour>
        <pt x="577" y="-2" on="1"/>
        <pt x="-29" y="67" on="0"/>
        <pt x="105" y="735" on="1"/>
        <pt x="246" y="1440" on="0"/>
        <pt x="1016" y="1440" on="1"/>
        <pt x="1251" y="1440" on="0"/>
        <pt x="1422" y="1370" on="1"/>
        <pt x="1374" y="1130" on="1"/>
        <pt x="1205" y="1210" on="0"/>
        <pt x="990" y="1210" on="1"/>
        <pt x="475" y="1210" on="0"/>
        <pt x="380" y="735" on="1"/>
        <pt x="277" y="220" on="0"/>
        <pt x="792" y="220" on="1"/>
        <pt x="1007" y="220" on="0"/>
        <pt x="1208" y="300" on="1"/>
        <pt x="1160" y="60" on="1"/>
        <pt x="964" y="-9" on="0"/>
        <pt x="733" y="-10" on="1"/>
        <pt x="683" y="-77" on="1"/>
        <pt x="897" y="-77" on="0"/>
        <pt x="865" y="-239" on="1"/>
        <pt x="828" y="-422" on="0"/>
        <pt x="557" y="-422" on="1"/>
        <pt x="449" y="-422" on="0"/>
        <pt x="351" y="-372" on="1"/>
        <pt x="377" y="-244" on="1"/>
        <pt x="475" y="-294" on="0"/>
        <pt x="583" y="-294" on="1"/>
        <pt x="691" y="-294" on="0"/>
        <pt x="702" y="-239" on="1"/>
        <pt x="711" y="-195" on="0"/>
        <pt x="628" y="-195" on="1"/>
        <pt x="445" y="-195" on="1"/>
      </contour>
    </TTGlyph>
    <TTGlyph name="Ccircumflex" xMin="-44" yMin="-10" xMax="1422" yMax="1810">
      <component glyphName="C" x="0" y="0" flags="0x200"/>
      <component glyphName="circumflex" x="525" y="380" flags="0x0"/>
    </TTGlyph>
    <TTGlyph name="Cdotaccent" xMin="-44" yMin="-10" xMax="1422" yMax="1810">
      <component glyphName="C" x="0" y="0" flags="0x200"/>
      <component glyphName="dotaccent" x="658" y="380" flags="0x0"/>
    </TTGlyph>
    <TTGlyph name="Chi" xMin="-117" yMin="0" xMax="1629" yMax="1430">
      <component glyphName="X" x="0" y="0" flags="0x200"/>
    </TTGlyph>
    <TTGlyph name="D" xMin="8" yMin="0" xMax="1564" yMax="1430">
      <contour>
        <pt x="614" y="230" on="1"/>
        <pt x="1059" y="230" on="0"/>
        <pt x="1164" y="754" on="1"/>
        <pt x="1253" y="1200" on="0"/>
        <pt x="808" y="1200" on="1"/>
        <pt x="513" y="1200" on="1"/>
        <pt x="319" y="230" on="1"/>
      </contour>
      <contour>
        <pt x="8" y="0" on="1"/>
        <pt x="294" y="1430" on="1"/>
        <pt x="854" y="1430" on="1"/>
        <pt x="1564" y="1430" on="0"/>
        <pt x="1429" y="754" on="1"/>
        <pt x="1278" y="0" on="0"/>
        <pt x="568" y="0" on="1"/>
      </contour>
    </TTGlyph>
    <TTGlyph name="Dcaron" xMin="8" yMin="0" xMax="1564" yMax="1810">
      <component glyphName="D" x="0" y="0" flags="0x200"/>
      <component glyphName="caron" x="291" y="380" flags="0x0"/>
    </TTGlyph>
    <TTGlyph name="Dcroat" xMin="-90" yMin="0" xMax="1504" yMax="1430">
      <component glyphName="Eth" x="-20" y="0" flags="0x200"/>
    </TTGlyph>
    <TTGlyph name="Delta" xMin="-117" yMin="0" xMax="1395" yMax="1430">
      <contour>
        <pt x="305" y="230" on="1"/>
        <pt x="1070" y="230" on="1"/>
        <pt x="867" y="1157" on="1"/>
      </contour>
      <contour>
        <pt x="-117" y="0" on="1"/>
        <pt x="776" y="1430" on="1"/>
        <pt x="1061" y="1430" on="1"/>
        <pt x="1395" y="0" on="1"/>
      </contour>
    </TTGlyph>
    <TTGlyph name="E" xMin="8" yMin="0" xMax="1273" yMax="1430">
      <contour>
        <pt x="1273" y="1430" on="1"/>
        <pt x="1227" y="1202" on="1"/>
        <pt x="511" y="1202" on="1"/>
        <pt x="439" y="842" on="1"/>
        <pt x="1121" y="842" on="1"/>
        <pt x="1074" y="605" on="1"/>
        <pt x="389" y="605" on="1"/>
        <pt x="314" y="230" on="1"/>
        <pt x="1047" y="230" on="1"/>
        <pt x="1001" y="0" on="1"/>
        <pt x="8" y="0" on="1"/>
        <pt x="294" y="1430" on="1"/>
      </contour>
    </TTGlyph>
    <TTGlyph name="Eacute" xMin="8" yMin="0" xMax="1273" yMax="1810">
      <component glyphName="E" x="0" y="0" flags="0x200"/>
      <component glyphName="acute" x="432" y="380" flags="0x0"/>
    </TTGlyph>
    <TTGlyph name="Ebreve" xMin="8" yMin="0" xMax="1273" yMax="1810">
      <component glyphName="E" x="0" y="0" flags="0x200"/>
      <component glyphName="breve" x="292" y="380" flags="0x0"/>
    </TTGlyph>
    <TTGlyph name="Ecaron" xMin="8" yMin="0" xMax="1273" yMax="1810">
      <component glyphName="E" x="0" y="0" flags="0x200"/>
      <component glyphName="caron" x="337" y="380" flags="0x0"/>
    </TTGlyph>
    <TTGlyph name="Ecircumflex" xMin="8" yMin="0" xMax="1273" yMax="1810">
      <component glyphName="E" x="0" y="0" flags="0x200"/>
      <component glyphName="circumflex" x="337" y="380" flags="0x0"/>
    </TTGlyph>
    <TTGlyph name="Edieresis" xMin="8" yMin="0" xMax="1273" yMax="1810">
      <component glyphName="E" x="0" y="0" flags="0x200"/>
      <component glyphName="dieresis" x="309" y="380" flags="0x0"/>
    </TTGlyph>
    <TTGlyph name="Edotaccent" xMin="8" yMin="0" xMax="1273" yMax="1810">
      <component glyphName="E" x="0" y="0" flags="0x200"/>
      <component glyphName="dotaccent" x="469" y="380" flags="0x0"/>
    </TTGlyph>
    <TTGlyph name="Egrave" xMin="8" yMin="0" xMax="1273" yMax="1810">
      <component glyphName="E" x="0" y="0" flags="0x200"/>
      <component glyphName="grave" x="278" y="380" flags="0x0"/>
    </TTGlyph>
    <TTGlyph name="Emacron" xMin="8" yMin="0" xMax="1273" yMax="1810">
      <component glyphName="E" x="0" y="0" flags="0x200"/>
      <component glyphName="macron" x="337" y="380" flags="0x0"/>
    </TTGlyph>
    <TTGlyph name="Eng" xMin="8" yMin="-438" xMax="1569" yMax="1430">
      <contour>
        <pt x="1018" y="0" on="1"/>
        <pt x="472" y="1044" on="1"/>
        <pt x="263" y="0" on="1"/>
        <pt x="8" y="0" on="1"/>
        <pt x="294" y="1430" on="1"/>
        <pt x="559" y="1430" on="1"/>
        <pt x="1110" y="408" on="1"/>
        <pt x="1314" y="1430" on="1"/>
        <pt x="1569" y="1430" on="1"/>
        <pt x="1299" y="80" on="1"/>
        <pt x="1235" y="-238" on="0"/>
        <pt x="1013" y="-438" on="1"/>
        <pt x="834" y="-293" on="1"/>
        <pt x="969" y="-181" on="0"/>
      </contour>
    </TTGlyph>
    <TTGlyph name="Eogonek" xMin="8" yMin="-426" xMax="1263" yMax="1430">
      <contour>
        <pt x="706" y="0" on="1"/>
        <pt x="8" y="0" on="1"/>
        <pt x="294" y="1430" on="1"/>
        <pt x="1263" y="1430" on="1"/>
        <pt x="1217" y="1202" on="1"/>
        <pt x="511" y="1202" on="1"/>
        <pt x="439" y="842" on="1"/>
        <pt x="1111" y="842" on="1"/>
        <pt x="1064" y="605" on="1"/>
        <pt x="389" y="605" on="1"/>
        <pt x="314" y="230" on="1"/>
        <pt x="1037" y="230" on="1"/>
        <pt x="991" y="0" on="1"/>
        <pt x="734" y="-96" on="0"/>
        <pt x="713" y="-198" on="1"/>
        <pt x="700" y="-266" on="0"/>
        <pt x="785" y="-266" on="1"/>
        <pt x="870" y="-266" on="0"/>
        <pt x="926" y="-246" on="1"/>
        <pt x="894" y="-406" on="1"/>
        <pt x="829" y="-426" on="0"/>
        <pt x="741" y="-426" on="1"/>
        <pt x="480" y="-426" on="0"/>
        <pt x="520" y="-223" on="1"/>
        <pt x="547" y="-92" on="0"/>
      </contour>
    </TTGlyph>
    <TTGlyph name="Epsilon" xMin="8" yMin="0" xMax="1273" yMax="1430">
      <component glyphName="E" x="0" y="0" flags="0x200"/>
    </TTGlyph>
    <TTGlyph name="Epsilontonos" xMin="42" yMin="0" xMax="1586" yMax="1430">
      <contour>
        <pt x="238" y="1430" on="1"/>
        <pt x="557" y="1430" on="1"/>
        <pt x="266" y="1171" on="1"/>
        <pt x="42" y="1171" on="1"/>
      </contour>
      <contour>
        <pt x="1586" y="1430" on="1"/>
        <pt x="1540" y="1202" on="1"/>
        <pt x="824" y="1202" on="1"/>
        <pt x="752" y="842" on="1"/>
        <pt x="1434" y="842" on="1"/>
        <pt x="1387" y="605" on="1"/>
        <pt x="702" y="605" on="1"/>
        <pt x="627" y="230" on="1"/>
        <pt x="1360" y="230" on="1"/>
        <pt x="1314" y="0" on="1"/>
        <pt x="321" y="0" on="1"/>
        <pt x="607" y="1430" on="1"/>
      </contour>
    </TTGlyph>
    <TTGlyph name="Eta" xMin="8" yMin="0" xMax="1529" yMax="1430">
      <component glyphName="H" x="0" y="0" flags="0x200"/>
    </TTGlyph>
    <TTGlyph name="Etatonos" xMin="42" yMin="0" xMax="1842" yMax="1430">
      <contour>
        <pt x="238" y="1430" on="1"/>
        <pt x="557" y="1430" on="1"/>
        <pt x="266" y="1171" on="1"/>
        <pt x="42" y="1171" on="1"/>
      </contour>
      <contour>
        <pt x="321" y="0" on="1"/>
        <pt x="607" y="1430" on="1"/>
        <pt x="872" y="1430" on="1"/>
        <pt x="754" y="840" on="1"/>
        <pt x="1459" y="840" on="1"/>
        <pt x="1577" y="1430" on="1"/>
        <pt x="1842" y="1430" on="1"/>
        <pt x="1556" y="0" on="1"/>
        <pt x="1291" y="0" on="1"/>
        <pt x="1413" y="610" on="1"/>
        <pt x="708" y="610" on="1"/>
        <pt x="586" y="0" on="1"/>
      </contour>
    </TTGlyph>
    <TTGlyph name="Eth" xMin="-70" yMin="0" xMax="1524" yMax="1430">
      <contour>
        <pt x="176" y="840" on="1"/>
        <pt x="294" y="1430" on="1"/>
        <pt x="814" y="1430" on="1"/>
        <pt x="1524" y="1430" on="0"/>
        <pt x="1389" y="754" on="1"/>
        <pt x="1238" y="0" on="0"/>
        <pt x="528" y="0" on="1"/>
        <pt x="8" y="0" on="1"/>
        <pt x="130" y="610" on="1"/>
        <pt x="-70" y="610" on="1"/>
        <pt x="-24" y="840" on="1"/>
      </contour>
      <contour>
        <pt x="441" y="840" on="1"/>
        <pt x="726" y="840" on="1"/>
        <pt x="680" y="610" on="1"/>
        <pt x="395" y="610" on="1"/>
        <pt x="319" y="230" on="1"/>
        <pt x="574" y="230" on="1"/>
        <pt x="1019" y="230" on="0"/>
        <pt x="1124" y="754" on="1"/>
        <pt x="1213" y="1200" on="0"/>
        <pt x="768" y="1200" on="1"/>
        <pt x="513" y="1200" on="1"/>
      </contour>
    </TTGlyph>
    <TTGlyph name="Euro" xMin="-44" yMin="-10" xMax="1384" yMax="1440">
      <contour>
        <pt x="1118" y="50" on="1"/>
        <pt x="921" y="-10" on="0"/>
        <pt x="706" y="-10" on="1"/>
        <pt x="-44" y="-10" on="0"/>
        <pt x="105" y="735" on="1"/>
        <pt x="246" y="1440" on="0"/>
        <pt x="996" y="1440" on="1"/>
        <pt x="1211" y="1440" on="0"/>
        <pt x="1384" y="1380" on="1"/>
        <pt x="1336" y="1140" on="1"/>
        <pt x="1165" y="1210" on="0"/>
        <pt x="970" y="1210" on="1"/>
        <pt x="552" y="1210" on="0"/>
        <pt x="439" y="982" on="1"/>
        <pt x="1112" y="982" on="1"/>
        <pt x="1070" y="772" on="1"/>
        <pt x="377" y="772" on="1"/>
        <pt x="363" y="702" on="1"/>
        <pt x="1056" y="702" on="1"/>
        <pt x="1014" y="492" on="1"/>
        <pt x="341" y="492" on="1"/>
        <pt x="344" y="220" on="0"/>
        <pt x="772" y="220" on="1"/>
        <pt x="967" y="220" on="0"/>
        <pt x="1166" y="290" on="1"/>
      </contour>
    </TTGlyph>
    <TTGlyph name="F" xMin="8" yMin="0" xMax="1233" yMax="1430">
      <contour>
        <pt x="1233" y="1430" on="1"/>
        <pt x="1187" y="1202" on="1"/>
        <pt x="511" y="1202" on="1"/>
        <pt x="439" y="842" on="1"/>
        <pt x="1081" y="842" on="1"/>
        <pt x="1034" y="605" on="1"/>
        <pt x="389" y="605" on="1"/>
        <pt x="268" y="0" on="1"/>
        <pt x="8" y="0" on="1"/>
        <pt x="294" y="1430" on="1"/>
      </contour>
    </TTGlyph>
    <TTGlyph name="G" xMin="-44" yMin="-10" xMax="1422" yMax="1440">
      <contour>
        <pt x="1161" y="66" on="1"/>
        <pt x="973" y="-10" on="0"/>
        <pt x="713" y="-10" on="1"/>
        <pt x="-44" y="-10" on="0"/>
        <pt x="105" y="735" on="1"/>
        <pt x="246" y="1440" on="0"/>
        <pt x="1016" y="1440" on="1"/>
        <pt x="1251" y="1440" on="0"/>
        <pt x="1422" y="1370" on="1"/>
        <pt x="1374" y="1130" on="1"/>
        <pt x="1205" y="1210" on="0"/>
        <pt x="990" y="1210" on="1"/>
        <pt x="475" y="1210" on="0"/>
        <pt x="380" y="735" on="1"/>
        <pt x="277" y="220" on="0"/>
        <pt x="763" y="220" on="1"/>
        <pt x="835" y="220" on="0"/>
        <pt x="932" y="244" on="1"/>
        <pt x="1015" y="660" on="1"/>
        <pt x="1280" y="660" on="1"/>
      </contour>
    </TTGlyph>
    <TTGlyph name="Gamma" xMin="8" yMin="0" xMax="1227" yMax="1430">
      <contour>
        <pt x="8" y="0" on="1"/>
        <pt x="294" y="1430" on="1"/>
        <pt x="1227" y="1430" on="1"/>
        <pt x="1181" y="1200" on="1"/>
        <pt x="513" y="1200" on="1"/>
        <pt x="273" y="0" on="1"/>
      </contour>
    </TTGlyph>
    <TTGlyph name="Gbreve" xMin="-44" yMin="-10" xMax="1422" yMax="1810">
      <component glyphName="G" x="0" y="0" flags="0x200"/>
      <component glyphName="breve" x="430" y="380" flags="0x0"/>
    </TTGlyph>
    <TTGlyph name="Gcircumflex" xMin="-44" yMin="-10" xMax="1422" yMax="1810">
      <component glyphName="G" x="0" y="0" flags="0x200"/>
      <component glyphName="circumflex" x="515" y="380" flags="0x0"/>
    </TTGlyph>
    <TTGlyph name="Gcommaaccent" xMin="-44" yMin="-380" xMax="1422" yMax="1440">
      <component glyphName="G" x="0" y="0" flags="0x200"/>
      <component glyphName="commaccent" x="463" y="0" flags="0x0"/>
    </TTGlyph>
    <TTGlyph name="Gdotaccent" xMin="-44" yMin="-10" xMax="1422" yMax="1810">
      <component glyphName="G" x="0" y="0" flags="0x200"/>
      <component glyphName="dotaccent" x="658" y="380" flags="0x0"/>
    </TTGlyph>
    <TTGlyph name="H" xMin="8" yMin="0" xMax="1529" yMax="1430">
      <contour>
        <pt x="8" y="0" on="1"/>
        <pt x="294" y="1430" on="1"/>
        <pt x="559" y="1430" on="1"/>
        <pt x="441" y="840" on="1"/>
        <pt x="1146" y="840" on="1"/>
        <pt x="1264" y="1430" on="1"/>
        <pt x="1529" y="1430" on="1"/>
        <pt x="1243" y="0" on="1"/>
        <pt x="978" y="0" on="1"/>
        <pt x="1100" y="610" on="1"/>
        <pt x="395" y="610" on="1"/>
        <pt x="273" y="0" on="1"/>
      </contour>
    </TTGlyph>
    <TTGlyph name="Hbar" xMin="8" yMin="0" xMax="1529" yMax="1430">
      <contour>
        <pt x="1230" y="1260" on="1"/>
        <pt x="1264" y="1430" on="1"/>
        <pt x="1529" y="1430" on="1"/>
        <pt x="1243" y="0" on="1"/>
        <pt x="978" y="0" on="1"/>
        <pt x="1100" y="610" on="1"/>
        <pt x="395" y="610" on="1"/>
        <pt x="273" y="0" on="1"/>
        <pt x="8" y="0" on="1"/>
        <pt x="294" y="1430" on="1"/>
        <pt x="559" y="1430" on="1"/>
        <pt x="525" y="1260" on="1"/>
      </contour>
      <contour>
        <pt x="483" y="1050" on="1"/>
        <pt x="441" y="840" on="1"/>
        <pt x="1146" y="840" on="1"/>
        <pt x="1188" y="1050" on="1"/>
      </contour>
    </TTGlyph>
    <TTGlyph name="Hcircumflex" xMin="8" yMin="0" xMax="1529" yMax="1810">
      <component glyphName="H" x="0" y="0" flags="0x200"/>
      <component glyphName="circumflex" x="478" y="380" flags="0x0"/>
    </TTGlyph>
    <TTGlyph name="I" xMin="8" yMin="0" xMax="559" yMax="1430">
      <contour>
        <pt x="559" y="1430" on="1"/>
        <pt x="273" y="0" on="1"/>
        <pt x="8" y="0" on="1"/>
        <pt x="294" y="1430" on="1"/>
      </contour>
    </TTGlyph>
    <TTGlyph name="IJ" xMin="8" yMin="0" xMax="1299" yMax="1430">
      <component glyphName="I" x="0" y="0" flags="0x0"/>
      <component glyphName="J" x="565" y="0" flags="0x0"/>
    </TTGlyph>
    <TTGlyph name="Iacute" xMin="8" yMin="0" xMax="795" yMax="1810">
      <component glyphName="I" x="0" y="0" flags="0x200"/>
      <component glyphName="acute" x="88" y="380" flags="0x0"/>
    </TTGlyph>
    <TTGlyph name="Ibreve" xMin="9" yMin="0" xMax="792" yMax="1810">
      <component glyphName="I" x="1" y="0" flags="0x200"/>
      <component glyphName="breve" x="-42" y="380" flags="0x0"/>
    </TTGlyph>
    <TTGlyph name="Icircumflex" xMin="9" yMin="0" xMax="695" yMax="1810">
      <component glyphName="I" x="1" y="0" flags="0x200"/>
      <component glyphName="circumflex" x="3" y="380" flags="0x0"/>
    </TTGlyph>
    <TTGlyph name="Idieresis" xMin="8" yMin="0" xMax="774" yMax="1810">
      <component glyphName="I" x="0" y="0" flags="0x200"/>
      <component glyphName="dieresis" x="-25" y="380" flags="0x0"/>
    </TTGlyph>
    <TTGlyph name="Idotaccent" xMin="8" yMin="0" xMax="614" yMax="1810">
      <component glyphName="I" x="0" y="0" flags="0x200"/>
      <component glyphName="dotaccent" x="135" y="380" flags="0x0"/>
    </TTGlyph>
    <TTGlyph name="Igrave" xMin="8" yMin="0" xMax="589" yMax="1810">
      <component glyphName="I" x="0" y="0" flags="0x200"/>
      <component glyphName="grave" x="-66" y="380" flags="0x0"/>
    </TTGlyph>
    <TTGlyph name="Imacron" xMin="9" yMin="0" xMax="747" yMax="1810">
      <component glyphName="I" x="1" y="0" flags="0x200"/>
      <component glyphName="macron" x="3" y="380" flags="0x0"/>
    </TTGlyph>
    <TTGlyph name="Iogonek" xMin="-218" yMin="-426" xMax="559" yMax="1430">
      <contour>
        <pt x="8" y="0" on="1"/>
        <pt x="294" y="1430" on="1"/>
        <pt x="559" y="1430" on="1"/>
        <pt x="273" y="0" on="1"/>
        <pt x="36" y="-96" on="0"/>
        <pt x="16" y="-198" on="1"/>
        <pt x="2" y="-266" on="0"/>
        <pt x="87" y="-266" on="1"/>
        <pt x="172" y="-266" on="0"/>
        <pt x="228" y="-246" on="1"/>
        <pt x="196" y="-406" on="1"/>
        <pt x="131" y="-426" on="0"/>
        <pt x="43" y="-426" on="1"/>
        <pt x="-218" y="-426" on="0"/>
        <pt x="-177" y="-223" on="1"/>
        <pt x="-151" y="-92" on="0"/>
      </contour>
    </TTGlyph>
    <TTGlyph name="Iota" xMin="8" yMin="0" xMax="559" yMax="1430">
      <component glyphName="I" x="0" y="0" flags="0x200"/>
    </TTGlyph>
    <TTGlyph name="Iotadieresis" xMin="8" yMin="0" xMax="774" yMax="1810">
      <component glyphName="Iota" x="0" y="0" flags="0x200"/>
      <component glyphName="dieresis" x="-25" y="380" flags="0x0"/>
    </TTGlyph>
    <TTGlyph name="Iotatonos" xMin="42" yMin="0" xMax="872" yMax="1430">
      <contour>
        <pt x="238" y="1430" on="1"/>
        <pt x="557" y="1430" on="1"/>
        <pt x="266" y="1171" on="1"/>
        <pt x="42" y="1171" on="1"/>
      </contour>
      <contour>
        <pt x="872" y="1430" on="1"/>
        <pt x="586" y="0" on="1"/>
        <pt x="321" y="0" on="1"/>
        <pt x="607" y="1430" on="1"/>
      </contour>
    </TTGlyph>
    <TTGlyph name="Itilde" xMin="9" yMin="0" xMax="746" yMax="1810">
      <component glyphName="I" x="1" y="0" flags="0x200"/>
      <component glyphName="tilde" x="3" y="380" flags="0x0"/>
    </TTGlyph>
    <TTGlyph name="J" xMin="-117" yMin="0" xMax="734" yMax="1430">
      <contour>
        <pt x="734" y="1430" on="1"/>
        <pt x="530" y="412" on="1"/>
        <pt x="448" y="0" on="0"/>
        <pt x="-117" y="0" on="1"/>
        <pt x="-71" y="230" on="1"/>
        <pt x="229" y="230" on="0"/>
        <pt x="265" y="412" on="1"/>
        <pt x="469" y="1430" on="1"/>
      </contour>
    </TTGlyph>
    <TTGlyph name="Jcircumflex" xMin="-117" yMin="0" xMax="860" yMax="1810">
      <component glyphName="J" x="0" y="0" flags="0x200"/>
      <component glyphName="circumflex" x="168" y="380" flags="0x0"/>
    </TTGlyph>
    <TTGlyph name="K" xMin="8" yMin="0" xMax="1525" yMax="1430">
      <contour>
        <pt x="559" y="1430" on="1"/>
        <pt x="273" y="0" on="1"/>
        <pt x="8" y="0" on="1"/>
        <pt x="294" y="1430" on="1"/>
      </contour>
      <contour>
        <pt x="1525" y="1430" on="1"/>
        <pt x="732" y="736" on="1"/>
        <pt x="1313" y="0" on="1"/>
        <pt x="966" y="0" on="1"/>
        <pt x="487" y="668" on="1"/>
        <pt x="521" y="840" on="1"/>
        <pt x="1191" y="1430" on="1"/>
      </contour>
    </TTGlyph>
    <TTGlyph name="Kappa" xMin="8" yMin="0" xMax="1525" yMax="1430">
      <component glyphName="K" x="0" y="0" flags="0x200"/>
    </TTGlyph>
    <TTGlyph name="Kcommaaccent" xMin="8" yMin="-380" xMax="1525" yMax="1430">
      <component glyphName="K" x="0" y="0" flags="0x200"/>
      <component glyphName="commaccent" x="465" y="0" flags="0x0"/>
    </TTGlyph>
    <TTGlyph name="L" xMin="8" yMin="0" xMax="887" yMax="1430">
      <contour>
        <pt x="559" y="1430" on="1"/>
        <pt x="319" y="230" on="1"/>
        <pt x="887" y="230" on="1"/>
        <pt x="841" y="0" on="1"/>
        <pt x="8" y="0" on="1"/>
        <pt x="294" y="1430" on="1"/>
      </contour>
    </TTGlyph>
    <TTGlyph name="Lacute" xMin="8" yMin="0" xMax="887" yMax="1810">
      <component glyphName="L" x="0" y="0" flags="0x200"/>
      <component glyphName="acute" x="82" y="380" flags="0x0"/>
    </TTGlyph>
    <TTGlyph name="Lambda" xMin="-117" yMin="0" xMax="1395" yMax="1430">
      <contour>
        <pt x="867" y="1157" on="1"/>
        <pt x="165" y="0" on="1"/>
        <pt x="-117" y="0" on="1"/>
        <pt x="776" y="1430" on="1"/>
        <pt x="1061" y="1430" on="1"/>
        <pt x="1395" y="0" on="1"/>
        <pt x="1120" y="0" on="1"/>
      </contour>
    </TTGlyph>
    <TTGlyph name="Lcaron" xMin="8" yMin="0" xMax="1129" yMax="1430">
      <contour>
        <pt x="559" y="1430" on="1"/>
        <pt x="319" y="230" on="1"/>
        <pt x="887" y="230" on="1"/>
        <pt x="841" y="0" on="1"/>
        <pt x="8" y="0" on="1"/>
        <pt x="294" y="1430" on="1"/>
      </contour>
      <contour>
        <pt x="1129" y="1430" on="1"/>
        <pt x="892" y="995" on="1"/>
        <pt x="647" y="995" on="1"/>
        <pt x="884" y="1430" on="1"/>
      </contour>
    </TTGlyph>
    <TTGlyph name="Lcommaaccent" xMin="8" yMin="-380" xMax="887" yMax="1430">
      <component glyphName="L" x="0" y="0" flags="0x200"/>
      <component glyphName="commaccent" x="284" y="0" flags="0x0"/>
    </TTGlyph>
    <TTGlyph name="Ldot" xMin="8" yMin="0" xMax="896" yMax="1430">
      <component glyphName="L" x="0" y="0" flags="0x200"/>
      <component glyphName="periodcentered" x="558" y="190" flags="0x0"/>
    </TTGlyph>
    <TTGlyph name="Lslash" xMin="88" yMin="0" xMax="1037" yMax="1430">
      <contour>
        <pt x="260" y="512" on="1"/>
        <pt x="88" y="402" on="1"/>
        <pt x="134" y="632" on="1"/>
        <pt x="306" y="742" on="1"/>
        <pt x="444" y="1430" on="1"/>
        <pt x="709" y="1430" on="1"/>
        <pt x="610" y="937" on="1"/>
        <pt x="889" y="1116" on="1"/>
        <pt x="843" y="886" on="1"/>
        <pt x="564" y="707" on="1"/>
        <pt x="469" y="230" on="1"/>
        <pt x="1037" y="230" on="1"/>
        <pt x="991" y="0" on="1"/>
        <pt x="158" y="0" on="1"/>
      </contour>
    </TTGlyph>
    <TTGlyph name="M" xMin="8" yMin="0" xMax="1794" yMax="1430">
      <contour>
        <pt x="8" y="0" on="1"/>
        <pt x="294" y="1430" on="1"/>
        <pt x="569" y="1430" on="1"/>
        <pt x="837" y="345" on="1"/>
        <pt x="1529" y="1430" on="1"/>
        <pt x="1794" y="1430" on="1"/>
        <pt x="1508" y="0" on="1"/>
        <pt x="1263" y="0" on="1"/>
        <pt x="1462" y="996" on="1"/>
        <pt x="875" y="0" on="1"/>
        <pt x="649" y="0" on="1"/>
        <pt x="452" y="996" on="1"/>
        <pt x="253" y="0" on="1"/>
      </contour>
    </TTGlyph>
    <TTGlyph name="MT.sign" xMin="100" yMin="-46" xMax="1624" yMax="1476">
      <contour>
        <pt x="1181" y="332" on="1"/>
        <pt x="1181" y="434" on="1"/>
        <pt x="926" y="447" on="1"/>
        <pt x="926" y="987" on="1"/>
        <pt x="1053" y="987" on="1"/>
        <pt x="1104" y="587" on="1"/>
        <pt x="1219" y="587" on="1"/>
        <pt x="1181" y="1098" on="1"/>
        <pt x="942" y="1098" on="1"/>
        <pt x="862" y="1060" on="1"/>
        <pt x="783" y="1098" on="1"/>
        <pt x="543" y="1098" on="1"/>
        <pt x="505" y="587" on="1"/>
        <pt x="619" y="587" on="1"/>
        <pt x="670" y="987" on="1"/>
        <pt x="798" y="987" on="1"/>
        <pt x="798" y="447" on="1"/>
        <pt x="543" y="434" on="1"/>
        <pt x="543" y="332" on="1"/>
      </contour>
      <contour>
        <pt x="534" y="1330" on="1"/>
        <pt x="571" y="1419" on="1"/>
        <pt x="660" y="1382" on="1"/>
        <pt x="713" y="1462" on="1"/>
        <pt x="794" y="1409" on="1"/>
        <pt x="862" y="1476" on="1"/>
        <pt x="930" y="1409" on="1"/>
        <pt x="1011" y="1462" on="1"/>
        <pt x="1064" y="1382" on="1"/>
        <pt x="1153" y="1419" on="1"/>
        <pt x="1190" y="1330" on="1"/>
        <pt x="1284" y="1349" on="1"/>
        <pt x="1304" y="1253" on="1"/>
        <pt x="1401" y="1253" on="1"/>
        <pt x="1401" y="1157" on="1"/>
        <pt x="1495" y="1138" on="1"/>
        <pt x="1476" y="1044" on="1"/>
        <pt x="1565" y="1007" on="1"/>
        <pt x="1529" y="917" on="1"/>
        <pt x="1610" y="865" on="1"/>
        <pt x="1556" y="783" on="1"/>
        <pt x="1624" y="716" on="1"/>
        <pt x="1555" y="647" on="1"/>
        <pt x="1610" y="565" on="1"/>
        <pt x="1528" y="513" on="1"/>
        <pt x="1565" y="423" on="1"/>
        <pt x="1476" y="386" on="1"/>
        <pt x="1495" y="292" on="1"/>
        <pt x="1401" y="273" on="1"/>
        <pt x="1401" y="177" on="1"/>
        <pt x="1304" y="177" on="1"/>
        <pt x="1284" y="81" on="1"/>
        <pt x="1190" y="100" on="1"/>
        <pt x="1153" y="11" on="1"/>
        <pt x="1064" y="48" on="1"/>
        <pt x="1011" y="-32" on="1"/>
        <pt x="930" y="21" on="1"/>
        <pt x="862" y="-46" on="1"/>
        <pt x="794" y="21" on="1"/>
        <pt x="713" y="-32" on="1"/>
        <pt x="660" y="48" on="1"/>
        <pt x="571" y="11" on="1"/>
        <pt x="534" y="100" on="1"/>
        <pt x="439" y="81" on="1"/>
        <pt x="420" y="177" on="1"/>
        <pt x="323" y="177" on="1"/>
        <pt x="323" y="273" on="1"/>
        <pt x="228" y="292" on="1"/>
        <pt x="247" y="386" on="1"/>
        <pt x="157" y="425" on="1"/>
        <pt x="194" y="513" on="1"/>
        <pt x="114" y="566" on="1"/>
        <pt x="169" y="647" on="1"/>
        <pt x="100" y="716" on="1"/>
        <pt x="169" y="783" on="1"/>
        <pt x="114" y="865" on="1"/>
        <pt x="196" y="919" on="1"/>
        <pt x="159" y="1007" on="1"/>
        <pt x="248" y="1044" on="1"/>
        <pt x="229" y="1138" on="1"/>
        <pt x="323" y="1157" on="1"/>
        <pt x="323" y="1253" on="1"/>
        <pt x="420" y="1253" on="1"/>
        <pt x="439" y="1349" on="1"/>
      </contour>
      <contour>
        <pt x="862" y="1347" on="1"/>
        <pt x="600" y="1347" on="0"/>
        <pt x="230" y="977" on="0"/>
        <pt x="230" y="716" on="1"/>
        <pt x="230" y="453" on="0"/>
        <pt x="600" y="83" on="0"/>
        <pt x="862" y="83" on="1"/>
        <pt x="1124" y="83" on="0"/>
        <pt x="1494" y="453" on="0"/>
        <pt x="1494" y="716" on="1"/>
        <pt x="1494" y="977" on="0"/>
        <pt x="1124" y="1347" on="0"/>
      </contour>
      <contour>
        <pt x="1101" y="1293" on="0"/>
        <pt x="1439" y="954" on="0"/>
        <pt x="1439" y="716" on="1"/>
        <pt x="1439" y="476" on="0"/>
        <pt x="1101" y="137" on="0"/>
        <pt x="862" y="137" on="1"/>
        <pt x="623" y="137" on="0"/>
        <pt x="285" y="476" on="0"/>
        <pt x="285" y="716" on="1"/>
        <pt x="285" y="954" on="0"/>
        <pt x="623" y="1293" on="0"/>
        <pt x="862" y="1293" on="1"/>
      </contour>
    </TTGlyph>
    <TTGlyph name="Mu" xMin="8" yMin="0" xMax="1794" yMax="1430">
      <component glyphName="M" x="0" y="0" flags="0x200"/>
    </TTGlyph>
    <TTGlyph name="N" xMin="8" yMin="0" xMax="1569" yMax="1430">
      <contour>
        <pt x="8" y="0" on="1"/>
        <pt x="294" y="1430" on="1"/>
        <pt x="559" y="1430" on="1"/>
        <pt x="1110" y="408" on="1"/>
        <pt x="1314" y="1430" on="1"/>
        <pt x="1569" y="1430" on="1"/>
        <pt x="1283" y="0" on="1"/>
        <pt x="1018" y="0" on="1"/>
        <pt x="472" y="1044" on="1"/>
        <pt x="263" y="0" on="1"/>
      </contour>
    </TTGlyph>
    <TTGlyph name="Nacute" xMin="8" yMin="0" xMax="1569" yMax="1810">
      <component glyphName="N" x="0" y="0" flags="0x200"/>
      <component glyphName="acute" x="625" y="380" flags="0x0"/>
    </TTGlyph>
    <TTGlyph name="Ncaron" xMin="8" yMin="0" xMax="1569" yMax="1810">
      <component glyphName="N" x="0" y="0" flags="0x200"/>
      <component glyphName="caron" x="485" y="380" flags="0x0"/>
    </TTGlyph>
    <TTGlyph name="Ncommaaccent" xMin="8" yMin="-380" xMax="1569" yMax="1430">
      <component glyphName="N" x="0" y="0" flags="0x200"/>
      <component glyphName="commaccent" x="606" y="0" flags="0x0"/>
    </TTGlyph>
    <TTGlyph name="Ntilde" xMin="8" yMin="0" xMax="1569" yMax="1810">
      <component glyphName="N" x="0" y="0" flags="0x200"/>
      <component glyphName="tilde" x="501" y="380" flags="0x0"/>
    </TTGlyph>
    <TTGlyph name="Nu" xMin="8" yMin="0" xMax="1569" yMax="1430">
      <component glyphName="N" x="0" y="0" flags="0x200"/>
    </TTGlyph>
    <TTGlyph name="O" xMin="-12" yMin="-10" xMax="1671" yMax="1440">
      <contour>
        <pt x="277" y="220" on="0"/>
        <pt x="720" y="220" on="1"/>
        <pt x="1152" y="220" on="0"/>
        <pt x="1252" y="719" on="1"/>
        <pt x="1350" y="1210" on="0"/>
        <pt x="918" y="1210" on="1"/>
        <pt x="475" y="1210" on="0"/>
        <pt x="377" y="719" on="1"/>
      </contour>
      <contour>
        <pt x="101" y="713" on="1"/>
        <pt x="246" y="1440" on="0"/>
        <pt x="964" y="1440" on="1"/>
        <pt x="1671" y="1440" on="0"/>
        <pt x="1526" y="713" on="1"/>
        <pt x="1381" y="-10" on="0"/>
        <pt x="674" y="-10" on="1"/>
        <pt x="-12" y="-10" on="0"/>
      </contour>
    </TTGlyph>
    <TTGlyph name="OE" xMin="-10" yMin="0" xMax="2219" yMax="1430">
      <contour>
        <pt x="279" y="230" on="0"/>
        <pt x="722" y="230" on="1"/>
        <pt x="1144" y="230" on="0"/>
        <pt x="1242" y="719" on="1"/>
        <pt x="1338" y="1200" on="0"/>
        <pt x="916" y="1200" on="1"/>
        <pt x="473" y="1200" on="0"/>
        <pt x="377" y="719" on="1"/>
      </contour>
      <contour>
        <pt x="101" y="713" on="1"/>
        <pt x="244" y="1430" on="0"/>
        <pt x="962" y="1430" on="1"/>
        <pt x="2219" y="1430" on="1"/>
        <pt x="2173" y="1200" on="1"/>
        <pt x="1473" y="1200" on="1"/>
        <pt x="1561" y="1088" on="0"/>
        <pt x="1541" y="840" on="1"/>
        <pt x="2066" y="840" on="1"/>
        <pt x="2020" y="610" on="1"/>
        <pt x="1495" y="610" on="1"/>
        <pt x="1426" y="368" on="0"/>
        <pt x="1288" y="230" on="1"/>
        <pt x="1994" y="230" on="1"/>
        <pt x="1948" y="0" on="1"/>
        <pt x="676" y="0" on="1"/>
        <pt x="-10" y="0" on="0"/>
      </contour>
    </TTGlyph>
    <TTGlyph name="Oacute" xMin="-12" yMin="-10" xMax="1671" yMax="1810">
      <component glyphName="O" x="0" y="0" flags="0x200"/>
      <component glyphName="acute" x="618" y="380" flags="0x0"/>
    </TTGlyph>
    <TTGlyph name="Obreve" xMin="-12" yMin="-10" xMax="1671" yMax="1810">
      <component glyphName="O" x="0" y="0" flags="0x200"/>
      <component glyphName="breve" x="498" y="380" flags="0x0"/>
    </TTGlyph>
    <TTGlyph name="Ocircumflex" xMin="-12" yMin="-10" xMax="1671" yMax="1810">
      <component glyphName="O" x="0" y="0" flags="0x200"/>
      <component glyphName="circumflex" x="523" y="380" flags="0x0"/>
    </TTGlyph>
    <TTGlyph name="Odieresis" xMin="-12" yMin="-10" xMax="1671" yMax="1810">
      <component glyphName="O" x="0" y="0" flags="0x200"/>
      <component glyphName="dieresis" x="515" y="380" flags="0x0"/>
    </TTGlyph>
    <TTGlyph name="Ograve" xMin="-12" yMin="-10" xMax="1671" yMax="1810">
      <component glyphName="O" x="0" y="0" flags="0x200"/>
      <component glyphName="grave" x="464" y="380" flags="0x0"/>
    </TTGlyph>
    <TTGlyph name="Ohungarumlaut" xMin="-12" yMin="-10" xMax="1671" yMax="1810">
      <component glyphName="O" x="0" y="0" flags="0x200"/>
      <component glyphName="hungarumlaut" x="408" y="380" flags="0x0"/>
    </TTGlyph>
    <TTGlyph name="Omacron" xMin="-12" yMin="-10" xMax="1671" yMax="1810">
      <component glyphName="O" x="0" y="0" flags="0x200"/>
      <component glyphName="macron" x="543" y="380" flags="0x0"/>
    </TTGlyph>
    <TTGlyph name="Omega" xMin="-7" yMin="0" xMax="1638" yMax="1450">
      <contour>
        <pt x="-7" y="0" on="1"/>
        <pt x="39" y="230" on="1"/>
        <pt x="304" y="230" on="1"/>
        <pt x="62" y="420" on="0"/>
        <pt x="138" y="800" on="1"/>
        <pt x="268" y="1450" on="0"/>
        <pt x="953" y="1450" on="1"/>
        <pt x="1638" y="1450" on="0"/>
        <pt x="1508" y="800" on="1"/>
        <pt x="1432" y="420" on="0"/>
        <pt x="1114" y="230" on="1"/>
        <pt x="1379" y="230" on="1"/>
        <pt x="1333" y="0" on="1"/>
        <pt x="783" y="0" on="1"/>
        <pt x="829" y="230" on="1"/>
        <pt x="1167" y="420" on="0"/>
        <pt x="1243" y="800" on="1"/>
        <pt x="1327" y="1220" on="0"/>
        <pt x="907" y="1220" on="1"/>
        <pt x="487" y="1220" on="0"/>
        <pt x="403" y="800" on="1"/>
        <pt x="327" y="420" on="0"/>
        <pt x="589" y="230" on="1"/>
        <pt x="543" y="0" on="1"/>
      </contour>
    </TTGlyph>
    <TTGlyph name="Omegatonos" xMin="42" yMin="0" xMax="1801" yMax="1450">
      <contour>
        <pt x="238" y="1430" on="1"/>
        <pt x="557" y="1430" on="1"/>
        <pt x="266" y="1171" on="1"/>
        <pt x="42" y="1171" on="1"/>
      </contour>
      <contour>
        <pt x="156" y="0" on="1"/>
        <pt x="202" y="230" on="1"/>
        <pt x="467" y="230" on="1"/>
        <pt x="225" y="420" on="0"/>
        <pt x="301" y="800" on="1"/>
        <pt x="431" y="1450" on="0"/>
        <pt x="1116" y="1450" on="1"/>
        <pt x="1801" y="1450" on="0"/>
        <pt x="1671" y="800" on="1"/>
        <pt x="1595" y="420" on="0"/>
        <pt x="1277" y="230" on="1"/>
        <pt x="1542" y="230" on="1"/>
        <pt x="1496" y="0" on="1"/>
        <pt x="946" y="0" on="1"/>
        <pt x="992" y="230" on="1"/>
        <pt x="1330" y="420" on="0"/>
        <pt x="1406" y="800" on="1"/>
        <pt x="1490" y="1220" on="0"/>
        <pt x="1070" y="1220" on="1"/>
        <pt x="650" y="1220" on="0"/>
        <pt x="566" y="800" on="1"/>
        <pt x="490" y="420" on="0"/>
        <pt x="752" y="230" on="1"/>
        <pt x="706" y="0" on="1"/>
      </contour>
    </TTGlyph>
    <TTGlyph name="Omicron" xMin="-12" yMin="-10" xMax="1671" yMax="1440">
      <component glyphName="O" x="0" y="0" flags="0x200"/>
    </TTGlyph>
    <TTGlyph name="Omicrontonos" xMin="42" yMin="-10" xMax="1834" yMax="1440">
      <contour>
        <pt x="238" y="1430" on="1"/>
        <pt x="557" y="1430" on="1"/>
        <pt x="266" y="1171" on="1"/>
        <pt x="42" y="1171" on="1"/>
      </contour>
      <contour>
        <pt x="440" y="220" on="0"/>
        <pt x="883" y="220" on="1"/>
        <pt x="1315" y="220" on="0"/>
        <pt x="1415" y="719" on="1"/>
        <pt x="1513" y="1210" on="0"/>
        <pt x="1081" y="1210" on="1"/>
        <pt x="638" y="1210" on="0"/>
        <pt x="540" y="719" on="1"/>
      </contour>
      <contour>
        <pt x="263" y="713" on="1"/>
        <pt x="409" y="1440" on="0"/>
        <pt x="1127" y="1440" on="1"/>
        <pt x="1834" y="1440" on="0"/>
        <pt x="1688" y="713" on="1"/>
        <pt x="1544" y="-10" on="0"/>
        <pt x="837" y="-10" on="1"/>
        <pt x="151" y="-10" on="0"/>
      </contour>
    </TTGlyph>
    <TTGlyph name="Oslash" xMin="-4" yMin="-10" xMax="1623" yMax="1440">
      <contour>
        <pt x="506" y="264" on="1"/>
        <pt x="589" y="220" on="0"/>
        <pt x="720" y="220" on="1"/>
        <pt x="1152" y="220" on="0"/>
        <pt x="1252" y="719" on="1"/>
        <pt x="1291" y="917" on="0"/>
        <pt x="1245" y="1035" on="1"/>
      </contour>
      <contour>
        <pt x="383" y="404" on="1"/>
        <pt x="1117" y="1172" on="1"/>
        <pt x="1039" y="1210" on="0"/>
        <pt x="918" y="1210" on="1"/>
        <pt x="475" y="1210" on="0"/>
        <pt x="377" y="719" on="1"/>
        <pt x="338" y="523" on="0"/>
      </contour>
      <contour>
        <pt x="315" y="65" on="1"/>
        <pt x="253" y="0" on="1"/>
        <pt x="-4" y="0" on="1"/>
        <pt x="175" y="187" on="1"/>
        <pt x="47" y="368" on="0"/>
        <pt x="101" y="713" on="1"/>
        <pt x="246" y="1440" on="0"/>
        <pt x="964" y="1440" on="1"/>
        <pt x="1176" y="1440" on="0"/>
        <pt x="1312" y="1374" on="1"/>
        <pt x="1365" y="1430" on="1"/>
        <pt x="1623" y="1430" on="1"/>
        <pt x="1459" y="1258" on="1"/>
        <pt x="1598" y="1076" on="0"/>
        <pt x="1526" y="713" on="1"/>
        <pt x="1381" y="-10" on="0"/>
        <pt x="674" y="-10" on="1"/>
        <pt x="453" y="-10" on="0"/>
      </contour>
    </TTGlyph>
    <TTGlyph name="Otilde" xMin="-12" yMin="-10" xMax="1671" yMax="1810">
      <component glyphName="O" x="0" y="0" flags="0x200"/>
      <component glyphName="tilde" x="523" y="380" flags="0x0"/>
    </TTGlyph>
    <TTGlyph name="P" xMin="8" yMin="0" xMax="1372" yMax="1430">
      <contour>
        <pt x="8" y="0" on="1"/>
        <pt x="294" y="1430" on="1"/>
        <pt x="934" y="1430" on="1"/>
        <pt x="1372" y="1430" on="0"/>
        <pt x="1291" y="1027" on="1"/>
        <pt x="1204" y="590" on="0"/>
        <pt x="587" y="498" on="1"/>
        <pt x="596" y="734" on="1"/>
        <pt x="969" y="799" on="0"/>
        <pt x="1013" y="1019" on="1"/>
        <pt x="1048" y="1197" on="0"/>
        <pt x="870" y="1197" on="1"/>
        <pt x="512" y="1197" on="1"/>
        <pt x="273" y="0" on="1"/>
      </contour>
    </TTGlyph>
    <TTGlyph name="Phi" xMin="-12" yMin="0" xMax="1739" yMax="1430">
      <contour>
        <pt x="611" y="113" on="1"/>
        <pt x="-12" y="150" on="0"/>
        <pt x="101" y="713" on="1"/>
        <pt x="214" y="1280" on="0"/>
        <pt x="851" y="1317" on="1"/>
        <pt x="874" y="1430" on="1"/>
        <pt x="1138" y="1430" on="1"/>
        <pt x="1116" y="1318" on="1"/>
        <pt x="1739" y="1284" on="0"/>
        <pt x="1625" y="713" on="1"/>
        <pt x="1511" y="145" on="0"/>
        <pt x="874" y="112" on="1"/>
        <pt x="852" y="0" on="1"/>
        <pt x="588" y="0" on="1"/>
      </contour>
      <contour>
        <pt x="657" y="344" on="1"/>
        <pt x="805" y="1086" on="1"/>
        <pt x="442" y="1050" on="0"/>
        <pt x="376" y="719" on="1"/>
        <pt x="308" y="381" on="0"/>
      </contour>
      <contour>
        <pt x="1069" y="1087" on="1"/>
        <pt x="921" y="343" on="1"/>
        <pt x="1283" y="377" on="0"/>
        <pt x="1352" y="719" on="1"/>
        <pt x="1419" y="1054" on="0"/>
      </contour>
    </TTGlyph>
    <TTGlyph name="Pi" xMin="8" yMin="0" xMax="1559" yMax="1430">
      <contour>
        <pt x="8" y="0" on="1"/>
        <pt x="294" y="1430" on="1"/>
        <pt x="1559" y="1430" on="1"/>
        <pt x="1273" y="0" on="1"/>
        <pt x="1008" y="0" on="1"/>
        <pt x="1248" y="1200" on="1"/>
        <pt x="513" y="1200" on="1"/>
        <pt x="273" y="0" on="1"/>
      </contour>
    </TTGlyph>
    <TTGlyph name="Psi" xMin="46" yMin="0" xMax="1694" yMax="1430">
      <contour>
        <pt x="675" y="619" on="1"/>
        <pt x="837" y="1430" on="1"/>
        <pt x="1101" y="1430" on="1"/>
        <pt x="939" y="619" on="1"/>
        <pt x="1277" y="669" on="0"/>
        <pt x="1341" y="988" on="1"/>
        <pt x="1429" y="1430" on="1"/>
        <pt x="1694" y="1430" on="1"/>
        <pt x="1606" y="988" on="1"/>
        <pt x="1496" y="438" on="0"/>
        <pt x="893" y="386" on="1"/>
        <pt x="815" y="0" on="1"/>
        <pt x="551" y="0" on="1"/>
        <pt x="629" y="386" on="1"/>
        <pt x="46" y="438" on="0"/>
        <pt x="156" y="988" on="1"/>
        <pt x="244" y="1430" on="1"/>
        <pt x="509" y="1430" on="1"/>
        <pt x="421" y="988" on="1"/>
        <pt x="357" y="669" on="0"/>
      </contour>
    </TTGlyph>
    <TTGlyph name="Q" xMin="-3" yMin="-390" xMax="1671" yMax="1440">
      <contour>
        <pt x="720" y="220" on="1"/>
        <pt x="1152" y="220" on="0"/>
        <pt x="1252" y="719" on="1"/>
        <pt x="1350" y="1210" on="0"/>
        <pt x="918" y="1210" on="1"/>
        <pt x="475" y="1210" on="0"/>
        <pt x="377" y="719" on="1"/>
        <pt x="277" y="220" on="0"/>
      </contour>
      <contour>
        <pt x="568" y="-5" on="1"/>
        <pt x="-3" y="49" on="0"/>
        <pt x="101" y="713" on="1"/>
        <pt x="246" y="1440" on="0"/>
        <pt x="964" y="1440" on="1"/>
        <pt x="1671" y="1440" on="0"/>
        <pt x="1526" y="713" on="1"/>
        <pt x="1394" y="56" on="0"/>
        <pt x="797" y="-4" on="1"/>
        <pt x="836" y="-177" on="0"/>
        <pt x="1057" y="-180" on="1"/>
        <pt x="1187" y="-180" on="0"/>
        <pt x="1273" y="-150" on="1"/>
        <pt x="1231" y="-360" on="1"/>
        <pt x="1145" y="-390" on="0"/>
        <pt x="1015" y="-390" on="1"/>
        <pt x="562" y="-390" on="0"/>
      </contour>
    </TTGlyph>
    <TTGlyph name="R" xMin="8" yMin="0" xMax="1382" yMax="1430">
      <contour>
        <pt x="8" y="2" on="1"/>
        <pt x="294" y="1430" on="1"/>
        <pt x="944" y="1430" on="1"/>
        <pt x="1382" y="1430" on="0"/>
        <pt x="1305" y="1047" on="1"/>
        <pt x="1244" y="744" on="0"/>
        <pt x="878" y="618" on="1"/>
        <pt x="1208" y="0" on="1"/>
        <pt x="899" y="0" on="1"/>
        <pt x="588" y="623" on="1"/>
        <pt x="612" y="744" on="1"/>
        <pt x="980" y="809" on="0"/>
        <pt x="1026" y="1039" on="1"/>
        <pt x="1058" y="1197" on="0"/>
        <pt x="880" y="1197" on="1"/>
        <pt x="517" y="1197" on="1"/>
        <pt x="278" y="2" on="1"/>
      </contour>
    </TTGlyph>
    <TTGlyph name="Racute" xMin="8" yMin="0" xMax="1382" yMax="1810">
      <component glyphName="R" x="0" y="0" flags="0x200"/>
      <component glyphName="acute" x="469" y="380" flags="0x0"/>
    </TTGlyph>
    <TTGlyph name="Rcaron" xMin="8" yMin="0" xMax="1382" yMax="1810">
      <component glyphName="R" x="0" y="0" flags="0x200"/>
      <component glyphName="caron" x="340" y="380" flags="0x0"/>
    </TTGlyph>
    <TTGlyph name="Rcommaaccent" xMin="8" yMin="-380" xMax="1382" yMax="1430">
      <component glyphName="R" x="0" y="0" flags="0x200"/>
      <component glyphName="commaccent" x="470" y="0" flags="0x0"/>
    </TTGlyph>
    <TTGlyph name="Rho" xMin="8" yMin="0" xMax="1372" yMax="1430">
      <component glyphName="P" x="0" y="0" flags="0x200"/>
    </TTGlyph>
    <TTGlyph name="S" xMin="-5" yMin="-10" xMax="1287" yMax="1440">
      <contour>
        <pt x="-5" y="60" on="1"/>
        <pt x="43" y="300" on="1"/>
        <pt x="242" y="220" on="0"/>
        <pt x="513" y="220" on="1"/>
        <pt x="842" y="220" on="0"/>
        <pt x="886" y="440" on="1"/>
        <pt x="918" y="600" on="0"/>
        <pt x="716" y="600" on="1"/>
        <pt x="492" y="600" on="1"/>
        <pt x="53" y="600" on="0"/>
        <pt x="133" y="1000" on="1"/>
        <pt x="221" y="1440" on="0"/>
        <pt x="846" y="1440" on="1"/>
        <pt x="1086" y="1440" on="0"/>
        <pt x="1287" y="1370" on="1"/>
        <pt x="1239" y="1130" on="1"/>
        <pt x="1040" y="1210" on="0"/>
        <pt x="800" y="1210" on="1"/>
        <pt x="440" y="1210" on="0"/>
        <pt x="398" y="1000" on="1"/>
        <pt x="366" y="840" on="0"/>
        <pt x="540" y="840" on="1"/>
        <pt x="764" y="840" on="1"/>
        <pt x="1231" y="840" on="0"/>
        <pt x="1151" y="440" on="1"/>
        <pt x="1061" y="-10" on="0"/>
        <pt x="467" y="-10" on="1"/>
        <pt x="196" y="-10" on="0"/>
      </contour>
    </TTGlyph>
    <TTGlyph name="Sacute" xMin="-5" yMin="-10" xMax="1287" yMax="1810">
      <component glyphName="S" x="0" y="0" flags="0x200"/>
      <component glyphName="acute" x="446" y="380" flags="0x0"/>
    </TTGlyph>
    <TTGlyph name="Scaron" xMin="-5" yMin="-10" xMax="1287" yMax="1810">
      <component glyphName="S" x="0" y="0" flags="0x200"/>
      <component glyphName="caron" x="350" y="380" flags="0x0"/>
    </TTGlyph>
    <TTGlyph name="Scedilla" xMin="-5" yMin="-422" xMax="1287" yMax="1440">
      <contour>
        <pt x="382" y="-8" on="1"/>
        <pt x="164" y="1" on="0"/>
        <pt x="-5" y="60" on="1"/>
        <pt x="43" y="300" on="1"/>
        <pt x="242" y="220" on="0"/>
        <pt x="513" y="220" on="1"/>
        <pt x="842" y="220" on="0"/>
        <pt x="886" y="440" on="1"/>
        <pt x="918" y="600" on="0"/>
        <pt x="716" y="600" on="1"/>
        <pt x="492" y="600" on="1"/>
        <pt x="53" y="600" on="0"/>
        <pt x="133" y="1000" on="1"/>
        <pt x="221" y="1440" on="0"/>
        <pt x="846" y="1440" on="1"/>
        <pt x="1086" y="1440" on="0"/>
        <pt x="1287" y="1370" on="1"/>
        <pt x="1239" y="1130" on="1"/>
        <pt x="1040" y="1210" on="0"/>
        <pt x="800" y="1210" on="1"/>
        <pt x="440" y="1210" on="0"/>
        <pt x="398" y="1000" on="1"/>
        <pt x="366" y="840" on="0"/>
        <pt x="540" y="840" on="1"/>
        <pt x="764" y="840" on="1"/>
        <pt x="1231" y="840" on="0"/>
        <pt x="1151" y="440" on="1"/>
        <pt x="1067" y="20" on="0"/>
        <pt x="543" y="-8" on="1"/>
        <pt x="493" y="-77" on="1"/>
        <pt x="707" y="-77" on="0"/>
        <pt x="674" y="-239" on="1"/>
        <pt x="638" y="-422" on="0"/>
        <pt x="367" y="-422" on="1"/>
        <pt x="259" y="-422" on="0"/>
        <pt x="161" y="-372" on="1"/>
        <pt x="186" y="-244" on="1"/>
        <pt x="284" y="-294" on="0"/>
        <pt x="392" y="-294" on="1"/>
        <pt x="500" y="-294" on="0"/>
        <pt x="511" y="-239" on="1"/>
        <pt x="520" y="-195" on="0"/>
        <pt x="437" y="-195" on="1"/>
        <pt x="254" y="-195" on="1"/>
      </contour>
    </TTGlyph>
    <TTGlyph name="Scircumflex" xMin="-5" yMin="-10" xMax="1287" yMax="1810">
      <component glyphName="S" x="0" y="0" flags="0x200"/>
      <component glyphName="circumflex" x="350" y="380" flags="0x0"/>
    </TTGlyph>
    <TTGlyph name="Scommaaccent" xMin="-5" yMin="-380" xMax="1287" yMax="1440">
      <component glyphName="S" x="0" y="0" flags="0x200"/>
      <component glyphName="commaccent" x="408" y="0" flags="0x0"/>
    </TTGlyph>
    <TTGlyph name="Sigma" xMin="-42" yMin="0" xMax="1244" yMax="1430">
      <contour>
        <pt x="244" y="1430" on="1"/>
        <pt x="1244" y="1430" on="1"/>
        <pt x="1198" y="1200" on="1"/>
        <pt x="488" y="1200" on="1"/>
        <pt x="828" y="750" on="1"/>
        <pt x="314" y="230" on="1"/>
        <pt x="1004" y="230" on="1"/>
        <pt x="958" y="0" on="1"/>
        <pt x="-42" y="0" on="1"/>
        <pt x="4" y="230" on="1"/>
        <pt x="533" y="760" on="1"/>
        <pt x="198" y="1200" on="1"/>
      </contour>
    </TTGlyph>
    <TTGlyph name="T" xMin="98" yMin="0" xMax="1229" yMax="1430">
      <contour>
        <pt x="1229" y="1430" on="1"/>
        <pt x="1183" y="1200" on="1"/>
        <pt x="773" y="1200" on="1"/>
        <pt x="533" y="0" on="1"/>
        <pt x="268" y="0" on="1"/>
        <pt x="508" y="1200" on="1"/>
        <pt x="98" y="1200" on="1"/>
        <pt x="144" y="1430" on="1"/>
      </contour>
    </TTGlyph>
    <TTGlyph name="Tau" xMin="98" yMin="0" xMax="1229" yMax="1430">
      <component glyphName="T" x="0" y="0" flags="0x200"/>
    </TTGlyph>
    <TTGlyph name="Tbar" xMin="-20" yMin="0" xMax="1229" yMax="1430">
      <contour>
        <pt x="432" y="820" on="1"/>
        <pt x="508" y="1200" on="1"/>
        <pt x="98" y="1200" on="1"/>
        <pt x="144" y="1430" on="1"/>
        <pt x="1229" y="1430" on="1"/>
        <pt x="1183" y="1200" on="1"/>
        <pt x="773" y="1200" on="1"/>
        <pt x="697" y="820" on="1"/>
        <pt x="1107" y="820" on="1"/>
        <pt x="1065" y="610" on="1"/>
        <pt x="655" y="610" on="1"/>
        <pt x="533" y="0" on="1"/>
        <pt x="268" y="0" on="1"/>
        <pt x="390" y="610" on="1"/>
        <pt x="-20" y="610" on="1"/>
        <pt x="22" y="820" on="1"/>
      </contour>
    </TTGlyph>
    <TTGlyph name="Tcaron" xMin="98" yMin="0" xMax="1229" yMax="1810">
      <component glyphName="T" x="0" y="0" flags="0x200"/>
      <component glyphName="caron" x="253" y="380" flags="0x0"/>
    </TTGlyph>
    <TTGlyph name="Tcommaaccent" xMin="34" yMin="-380" xMax="1229" yMax="1430">
      <component glyphName="T" x="0" y="0" flags="0x0"/>
      <component glyphName="commaccent" x="227" y="0" flags="0x0"/>
    </TTGlyph>
    <TTGlyph name="Theta" xMin="-24" yMin="-10" xMax="1691" yMax="1440">
      <contour>
        <pt x="297" y="220" on="0"/>
        <pt x="740" y="220" on="1"/>
        <pt x="1172" y="220" on="0"/>
        <pt x="1272" y="719" on="1"/>
        <pt x="1370" y="1210" on="0"/>
        <pt x="938" y="1210" on="1"/>
        <pt x="495" y="1210" on="0"/>
        <pt x="397" y="719" on="1"/>
      </contour>
      <contour>
        <pt x="121" y="713" on="1"/>
        <pt x="266" y="1440" on="0"/>
        <pt x="984" y="1440" on="1"/>
        <pt x="1691" y="1440" on="0"/>
        <pt x="1546" y="713" on="1"/>
        <pt x="1401" y="-10" on="0"/>
        <pt x="694" y="-10" on="1"/>
        <pt x="-24" y="-10" on="0"/>
      </contour>
      <contour>
        <pt x="552" y="853" on="1"/>
        <pt x="1167" y="853" on="1"/>
        <pt x="1121" y="623" on="1"/>
        <pt x="506" y="623" on="1"/>
      </contour>
    </TTGlyph>
    <TTGlyph name="Thorn" xMin="8" yMin="0" xMax="1310" yMax="1430">
      <contour>
        <pt x="8" y="0" on="1"/>
        <pt x="294" y="1430" on="1"/>
        <pt x="568" y="1430" on="1"/>
        <pt x="506" y="1122" on="1"/>
        <pt x="902" y="1122" on="1"/>
        <pt x="1310" y="1122" on="0"/>
        <pt x="1238" y="759" on="1"/>
        <pt x="1152" y="332" on="0"/>
        <pt x="545" y="240" on="1"/>
        <pt x="554" y="476" on="1"/>
        <pt x="917" y="541" on="0"/>
        <pt x="959" y="751" on="1"/>
        <pt x="987" y="889" on="0"/>
        <pt x="839" y="889" on="1"/>
        <pt x="451" y="889" on="1"/>
        <pt x="273" y="0" on="1"/>
      </contour>
    </TTGlyph>
    <TTGlyph name="U" xMin="6" yMin="-10" xMax="1524" yMax="1430">
      <contour>
        <pt x="120" y="562" on="1"/>
        <pt x="294" y="1430" on="1"/>
        <pt x="559" y="1430" on="1"/>
        <pt x="385" y="562" on="1"/>
        <pt x="317" y="220" on="0"/>
        <pt x="667" y="220" on="1"/>
        <pt x="1017" y="220" on="0"/>
        <pt x="1085" y="562" on="1"/>
        <pt x="1259" y="1430" on="1"/>
        <pt x="1524" y="1430" on="1"/>
        <pt x="1350" y="562" on="1"/>
        <pt x="1236" y="-10" on="0"/>
        <pt x="621" y="-10" on="1"/>
        <pt x="6" y="-10" on="0"/>
      </contour>
    </TTGlyph>
    <TTGlyph name="Uacute" xMin="6" yMin="-10" xMax="1524" yMax="1810">
      <component glyphName="U" x="0" y="0" flags="0x200"/>
      <component glyphName="acute" x="561" y="380" flags="0x0"/>
    </TTGlyph>
    <TTGlyph name="Ubreve" xMin="6" yMin="-10" xMax="1524" yMax="1810">
      <component glyphName="U" x="0" y="0" flags="0x200"/>
      <component glyphName="breve" x="430" y="380" flags="0x0"/>
    </TTGlyph>
    <TTGlyph name="Ucircumflex" xMin="6" yMin="-10" xMax="1524" yMax="1810">
      <component glyphName="U" x="0" y="0" flags="0x200"/>
      <component glyphName="circumflex" x="475" y="380" flags="0x0"/>
    </TTGlyph>
    <TTGlyph name="Udieresis" xMin="6" yMin="-10" xMax="1524" yMax="1810">
      <component glyphName="U" x="0" y="0" flags="0x200"/>
      <component glyphName="dieresis" x="448" y="380" flags="0x0"/>
    </TTGlyph>
    <TTGlyph name="Ugrave" xMin="6" yMin="-10" xMax="1524" yMax="1810">
      <component glyphName="U" x="0" y="0" flags="0x200"/>
      <component glyphName="grave" x="406" y="380" flags="0x0"/>
    </TTGlyph>
    <TTGlyph name="Uhungarumlaut" xMin="6" yMin="-10" xMax="1524" yMax="1810">
      <component glyphName="U" x="0" y="0" flags="0x200"/>
      <component glyphName="hungarumlaut" x="351" y="380" flags="0x0"/>
    </TTGlyph>
    <TTGlyph name="Umacron" xMin="6" yMin="-10" xMax="1524" yMax="1810">
      <component glyphName="U" x="0" y="0" flags="0x200"/>
      <component glyphName="macron" x="475" y="380" flags="0x0"/>
    </TTGlyph>
    <TTGlyph name="Uogonek" xMin="17" yMin="-426" xMax="1524" yMax="1430">
      <contour>
        <pt x="514" y="-5" on="1"/>
        <pt x="17" y="43" on="0"/>
        <pt x="121" y="562" on="1"/>
        <pt x="294" y="1430" on="1"/>
        <pt x="559" y="1430" on="1"/>
        <pt x="386" y="562" on="1"/>
        <pt x="317" y="220" on="0"/>
        <pt x="667" y="220" on="1"/>
        <pt x="1017" y="220" on="0"/>
        <pt x="1086" y="562" on="1"/>
        <pt x="1259" y="1430" on="1"/>
        <pt x="1524" y="1430" on="1"/>
        <pt x="1351" y="562" on="1"/>
        <pt x="1251" y="61" on="0"/>
        <pt x="765" y="-1" on="1"/>
        <pt x="550" y="-101" on="0"/>
        <pt x="531" y="-198" on="1"/>
        <pt x="517" y="-266" on="0"/>
        <pt x="602" y="-266" on="1"/>
        <pt x="687" y="-266" on="0"/>
        <pt x="743" y="-246" on="1"/>
        <pt x="711" y="-406" on="1"/>
        <pt x="646" y="-426" on="0"/>
        <pt x="558" y="-426" on="1"/>
        <pt x="297" y="-426" on="0"/>
        <pt x="338" y="-223" on="1"/>
        <pt x="363" y="-96" on="0"/>
      </contour>
    </TTGlyph>
    <TTGlyph name="Upsilon" xMin="169" yMin="0" xMax="1509" yMax="1430">
      <component glyphName="Y" x="0" y="0" flags="0x200"/>
    </TTGlyph>
    <TTGlyph name="Upsilondieresis" xMin="169" yMin="0" xMax="1509" yMax="1810">
      <component glyphName="Upsilon" x="0" y="0" flags="0x200"/>
      <component glyphName="dieresis" x="378" y="380" flags="0x0"/>
    </TTGlyph>
    <TTGlyph name="Upsilontonos" xMin="42" yMin="0" xMax="1922" yMax="1430">
      <contour>
        <pt x="238" y="1430" on="1"/>
        <pt x="557" y="1430" on="1"/>
        <pt x="266" y="1171" on="1"/>
        <pt x="42" y="1171" on="1"/>
      </contour>
      <contour>
        <pt x="582" y="1430" on="1"/>
        <pt x="857" y="1430" on="1"/>
        <pt x="1121" y="741" on="1"/>
        <pt x="1637" y="1430" on="1"/>
        <pt x="1922" y="1430" on="1"/>
        <pt x="1210" y="500" on="1"/>
        <pt x="1110" y="0" on="1"/>
        <pt x="845" y="0" on="1"/>
        <pt x="945" y="500" on="1"/>
      </contour>
    </TTGlyph>
    <TTGlyph name="Uring" xMin="6" yMin="-10" xMax="1524" yMax="1847">
      <component glyphName="U" x="0" y="0" flags="0x200"/>
      <component glyphName="ring" x="490" y="276" flags="0x0"/>
    </TTGlyph>
    <TTGlyph name="Utilde" xMin="6" yMin="-10" xMax="1524" yMax="1810">
      <component glyphName="U" x="0" y="0" flags="0x200"/>
      <component glyphName="tilde" x="475" y="380" flags="0x0"/>
    </TTGlyph>
    <TTGlyph name="V" xMin="144" yMin="0" xMax="1656" yMax="1430">
      <contour>
        <pt x="1656" y="1430" on="1"/>
        <pt x="743" y="0" on="1"/>
        <pt x="458" y="0" on="1"/>
        <pt x="144" y="1430" on="1"/>
        <pt x="449" y="1430" on="1"/>
        <pt x="673" y="335" on="1"/>
        <pt x="1334" y="1430" on="1"/>
      </contour>
    </TTGlyph>
    <TTGlyph name="W" xMin="128" yMin="0" xMax="1999" yMax="1430">
      <contour>
        <pt x="179" y="1430" on="1"/>
        <pt x="438" y="1430" on="1"/>
        <pt x="386" y="403" on="1"/>
        <pt x="963" y="1430" on="1"/>
        <pt x="1218" y="1430" on="1"/>
        <pt x="1369" y="443" on="1"/>
        <pt x="1728" y="1430" on="1"/>
        <pt x="1999" y="1430" on="1"/>
        <pt x="1444" y="0" on="1"/>
        <pt x="1192" y="0" on="1"/>
        <pt x="1023" y="1122" on="1"/>
        <pt x="377" y="0" on="1"/>
        <pt x="128" y="0" on="1"/>
      </contour>
    </TTGlyph>
    <TTGlyph name="Wcircumflex" xMin="128" yMin="0" xMax="1999" yMax="1810">
      <component glyphName="W" x="0" y="0" flags="0x200"/>
      <component glyphName="circumflex" x="683" y="380" flags="0x0"/>
    </TTGlyph>
    <TTGlyph name="X" xMin="-117" yMin="0" xMax="1629" yMax="1430">
      <contour>
        <pt x="589" y="715" on="1"/>
        <pt x="169" y="1430" on="1"/>
        <pt x="494" y="1430" on="1"/>
        <pt x="785" y="898" on="1"/>
        <pt x="1284" y="1430" on="1"/>
        <pt x="1629" y="1430" on="1"/>
        <pt x="924" y="715" on="1"/>
        <pt x="1343" y="0" on="1"/>
        <pt x="1018" y="0" on="1"/>
        <pt x="727" y="532" on="1"/>
        <pt x="228" y="0" on="1"/>
        <pt x="-117" y="0" on="1"/>
      </contour>
    </TTGlyph>
    <TTGlyph name="Xi" xMin="-42" yMin="0" xMax="1240" yMax="1430">
      <contour>
        <pt x="6" y="240" on="1"/>
        <pt x="1002" y="240" on="1"/>
        <pt x="954" y="0" on="1"/>
        <pt x="-42" y="0" on="1"/>
      </contour>
      <contour>
        <pt x="244" y="1430" on="1"/>
        <pt x="1240" y="1430" on="1"/>
        <pt x="1192" y="1190" on="1"/>
        <pt x="196" y="1190" on="1"/>
      </contour>
      <contour>
        <pt x="189" y="853" on="1"/>
        <pt x="1065" y="853" on="1"/>
        <pt x="1017" y="613" on="1"/>
        <pt x="141" y="613" on="1"/>
      </contour>
    </TTGlyph>
    <TTGlyph name="Y" xMin="169" yMin="0" xMax="1509" yMax="1430">
      <contour>
        <pt x="169" y="1430" on="1"/>
        <pt x="444" y="1430" on="1"/>
        <pt x="708" y="741" on="1"/>
        <pt x="1224" y="1430" on="1"/>
        <pt x="1509" y="1430" on="1"/>
        <pt x="797" y="500" on="1"/>
        <pt x="697" y="0" on="1"/>
        <pt x="432" y="0" on="1"/>
        <pt x="532" y="500" on="1"/>
      </contour>
    </TTGlyph>
    <TTGlyph name="Yacute" xMin="169" yMin="0" xMax="1509" yMax="1810">
      <component glyphName="Y" x="0" y="0" flags="0x200"/>
      <component glyphName="acute" x="501" y="380" flags="0x0"/>
    </TTGlyph>
    <TTGlyph name="Ycircumflex" xMin="169" yMin="0" xMax="1509" yMax="1810">
      <component glyphName="Y" x="0" y="0" flags="0x200"/>
      <component glyphName="circumflex" x="405" y="380" flags="0x0"/>
    </TTGlyph>
    <TTGlyph name="Ydieresis" xMin="169" yMin="0" xMax="1509" yMax="1810">
      <component glyphName="Y" x="0" y="0" flags="0x200"/>
      <component glyphName="dieresis" x="397" y="380" flags="0x0"/>
    </TTGlyph>
    <TTGlyph name="Z" xMin="-17" yMin="0" xMax="1329" yMax="1430">
      <contour>
        <pt x="1329" y="1430" on="1"/>
        <pt x="1283" y="1200" on="1"/>
        <pt x="328" y="230" on="1"/>
        <pt x="1089" y="230" on="1"/>
        <pt x="1043" y="0" on="1"/>
        <pt x="-17" y="0" on="1"/>
        <pt x="29" y="230" on="1"/>
        <pt x="997" y="1200" on="1"/>
        <pt x="243" y="1200" on="1"/>
        <pt x="289" y="1430" on="1"/>
      </contour>
    </TTGlyph>
    <TTGlyph name="Zacute" xMin="-17" yMin="0" xMax="1329" yMax="1810">
      <component glyphName="Z" x="0" y="0" flags="0x200"/>
      <component glyphName="acute" x="451" y="380" flags="0x0"/>
    </TTGlyph>
    <TTGlyph name="Zcaron" xMin="-17" yMin="0" xMax="1329" yMax="1810">
      <component glyphName="Z" x="0" y="0" flags="0x200"/>
      <component glyphName="caron" x="365" y="380" flags="0x0"/>
    </TTGlyph>
    <TTGlyph name="Zdot" xMin="-17" yMin="0" xMax="1329" yMax="1810">
      <component glyphName="Z" x="0" y="0" flags="0x200"/>
      <component glyphName="dotaccent" x="498" y="380" flags="0x0"/>
    </TTGlyph>
    <TTGlyph name="Zeta" xMin="-17" yMin="0" xMax="1329" yMax="1430">
      <component glyphName="Z" x="0" y="0" flags="0x200"/>
    </TTGlyph>
    <TTGlyph name="a" xMin="-67" yMin="0" xMax="1121" yMax="1050">
      <contour>
        <pt x="817" y="812" on="1"/>
        <pt x="757" y="836" on="0"/>
        <pt x="617" y="836" on="1"/>
        <pt x="362" y="836" on="0"/>
        <pt x="298" y="513" on="1"/>
        <pt x="239" y="220" on="0"/>
        <pt x="396" y="220" on="1"/>
        <pt x="590" y="220" on="0"/>
        <pt x="754" y="494" on="1"/>
      </contour>
      <contour>
        <pt x="920" y="0" on="1"/>
        <pt x="685" y="0" on="1"/>
        <pt x="709" y="270" on="1"/>
        <pt x="537" y="0" on="0"/>
        <pt x="301" y="0" on="1"/>
        <pt x="-67" y="0" on="0"/>
        <pt x="35" y="511" on="1"/>
        <pt x="143" y="1050" on="0"/>
        <pt x="688" y="1050" on="1"/>
        <pt x="871" y="1050" on="0"/>
        <pt x="1121" y="1007" on="1"/>
      </contour>
    </TTGlyph>
    <TTGlyph name="aacute" xMin="-67" yMin="0" xMax="1121" yMax="1430">
      <component glyphName="a" x="0" y="0" flags="0x200"/>
      <component glyphName="acute" x="364" y="0" flags="0x0"/>
    </TTGlyph>
    <TTGlyph name="abreve" xMin="-67" yMin="0" xMax="1121" yMax="1430">
      <component glyphName="a" x="0" y="0" flags="0x200"/>
      <component glyphName="breve" x="204" y="0" flags="0x0"/>
    </TTGlyph>
    <TTGlyph name="acircumflex" xMin="-67" yMin="0" xMax="1121" yMax="1430">
      <component glyphName="a" x="0" y="0" flags="0x200"/>
      <component glyphName="circumflex" x="269" y="0" flags="0x0"/>
    </TTGlyph>
    <TTGlyph name="acute" xMin="192" yMin="1171" xMax="707" yMax="1430">
      <contour>
        <pt x="388" y="1430" on="1"/>
        <pt x="707" y="1430" on="1"/>
        <pt x="416" y="1171" on="1"/>
        <pt x="192" y="1171" on="1"/>
      </contour>
    </TTGlyph>
    <TTGlyph name="adieresis" xMin="-67" yMin="0" xMax="1121" yMax="1430">
      <component glyphName="a" x="0" y="0" flags="0x200"/>
      <component glyphName="dieresis" x="241" y="0" flags="0x0"/>
    </TTGlyph>
    <TTGlyph name="ae" xMin="-67" yMin="0" xMax="1752" yMax="1050">
      <contour>
        <pt x="461" y="460" on="1"/>
        <pt x="290" y="460" on="0"/>
        <pt x="264" y="330" on="1"/>
        <pt x="236" y="190" on="0"/>
        <pt x="386" y="190" on="1"/>
        <pt x="538" y="190" on="0"/>
        <pt x="645" y="262" on="1"/>
        <pt x="681" y="440" on="1"/>
        <pt x="575" y="460" on="0"/>
      </contour>
      <contour>
        <pt x="979" y="616" on="1"/>
        <pt x="1244" y="616" on="1"/>
        <pt x="1409" y="616" on="0"/>
        <pt x="1432" y="729" on="1"/>
        <pt x="1454" y="842" on="0"/>
        <pt x="1262" y="842" on="1"/>
        <pt x="1042" y="842" on="0"/>
      </contour>
      <contour>
        <pt x="768" y="111" on="1"/>
        <pt x="553" y="0" on="0"/>
        <pt x="349" y="0" on="1"/>
        <pt x="-67" y="0" on="0"/>
        <pt x="-1" y="329" on="1"/>
        <pt x="63" y="650" on="0"/>
        <pt x="500" y="650" on="1"/>
        <pt x="604" y="650" on="0"/>
        <pt x="722" y="628" on="1"/>
        <pt x="764" y="840" on="0"/>
        <pt x="522" y="840" on="1"/>
        <pt x="352" y="840" on="0"/>
        <pt x="180" y="792" on="1"/>
        <pt x="221" y="997" on="1"/>
        <pt x="400" y="1050" on="0"/>
        <pt x="566" y="1050" on="1"/>
        <pt x="838" y="1050" on="0"/>
        <pt x="920" y="937" on="1"/>
        <pt x="1068" y="1050" on="0"/>
        <pt x="1304" y="1050" on="1"/>
        <pt x="1752" y="1050" on="0"/>
        <pt x="1689" y="736" on="1"/>
        <pt x="1626" y="422" on="0"/>
        <pt x="1203" y="422" on="1"/>
        <pt x="940" y="422" on="1"/>
        <pt x="898" y="210" on="0"/>
        <pt x="1174" y="210" on="1"/>
        <pt x="1383" y="210" on="0"/>
        <pt x="1568" y="340" on="1"/>
        <pt x="1526" y="130" on="1"/>
        <pt x="1361" y="0" on="0"/>
        <pt x="1112" y="0" on="1"/>
        <pt x="875" y="0" on="0"/>
      </contour>
    </TTGlyph>
    <TTGlyph name="afii10017" xMin="-117" yMin="0" xMax="1395" yMax="1430">
      <component glyphName="A" x="0" y="0" flags="0x200"/>
    </TTGlyph>
    <TTGlyph name="afii10018" xMin="8" yMin="0" xMax="1295" yMax="1430">
      <contour>
        <pt x="1295" y="1430" on="1"/>
        <pt x="1249" y="1200" on="1"/>
        <pt x="514" y="1200" on="1"/>
        <pt x="321" y="233" on="1"/>
        <pt x="648" y="233" on="1"/>
        <pt x="856" y="233" on="0"/>
        <pt x="889" y="402" on="1"/>
        <pt x="927" y="590" on="0"/>
        <pt x="665" y="590" on="1"/>
        <pt x="557" y="590" on="1"/>
        <pt x="603" y="820" on="1"/>
        <pt x="720" y="820" on="1"/>
        <pt x="1238" y="820" on="0"/>
        <pt x="1157" y="413" on="1"/>
        <pt x="1074" y="0" on="0"/>
        <pt x="618" y="0" on="1"/>
        <pt x="8" y="0" on="1"/>
        <pt x="294" y="1430" on="1"/>
      </contour>
    </TTGlyph>
    <TTGlyph name="afii10019" xMin="8" yMin="0" xMax="1372" yMax="1430">
      <component glyphName="B" x="0" y="0" flags="0x200"/>
    </TTGlyph>
    <TTGlyph name="afii10020" xMin="8" yMin="0" xMax="1227" yMax="1430">
      <contour>
        <pt x="8" y="0" on="1"/>
        <pt x="294" y="1430" on="1"/>
        <pt x="1227" y="1430" on="1"/>
        <pt x="1181" y="1200" on="1"/>
        <pt x="513" y="1200" on="1"/>
        <pt x="273" y="0" on="1"/>
      </contour>
    </TTGlyph>
    <TTGlyph name="afii10021" xMin="-218" yMin="-380" xMax="1663" yMax="1430">
      <contour>
        <pt x="482" y="230" on="1"/>
        <pt x="1158" y="230" on="1"/>
        <pt x="1352" y="1200" on="1"/>
        <pt x="962" y="1200" on="1"/>
        <pt x="802" y="401" on="0"/>
      </contour>
      <contour>
        <pt x="-218" y="-380" on="1"/>
        <pt x="-96" y="230" on="1"/>
        <pt x="88" y="230" on="1"/>
        <pt x="503" y="230" on="0"/>
        <pt x="697" y="1200" on="1"/>
        <pt x="743" y="1430" on="1"/>
        <pt x="1663" y="1430" on="1"/>
        <pt x="1423" y="230" on="1"/>
        <pt x="1608" y="230" on="1"/>
        <pt x="1486" y="-380" on="1"/>
        <pt x="1221" y="-380" on="1"/>
        <pt x="1297" y="0" on="1"/>
        <pt x="122" y="0" on="1"/>
        <pt x="46" y="-380" on="1"/>
      </contour>
    </TTGlyph>
    <TTGlyph name="afii10022" xMin="8" yMin="0" xMax="1273" yMax="1430">
      <component glyphName="E" x="0" y="0" flags="0x200"/>
    </TTGlyph>
    <TTGlyph name="afii10023" xMin="8" yMin="0" xMax="1273" yMax="1810">
      <component glyphName="E" x="0" y="0" flags="0x200"/>
      <component glyphName="dieresis" x="328" y="380" flags="0x0"/>
    </TTGlyph>
    <TTGlyph name="afii10024" xMin="-117" yMin="0" xMax="2283" yMax="1430">
      <contour>
        <pt x="-117" y="0" on="1"/>
        <pt x="323" y="570" on="0"/>
        <pt x="527" y="736" on="0"/>
        <pt x="610" y="758" on="1"/>
        <pt x="465" y="797" on="0"/>
        <pt x="369" y="1220" on="0"/>
        <pt x="251" y="1220" on="1"/>
        <pt x="172" y="1220" on="1"/>
        <pt x="214" y="1430" on="1"/>
        <pt x="321" y="1430" on="1"/>
        <pt x="599" y="1430" on="0"/>
        <pt x="729" y="846" on="0"/>
        <pt x="869" y="846" on="1"/>
        <pt x="831" y="653" on="1"/>
        <pt x="753" y="653" on="0"/>
        <pt x="587" y="509" on="0"/>
        <pt x="217" y="0" on="1"/>
      </contour>
      <contour>
        <pt x="1381" y="1430" on="1"/>
        <pt x="1095" y="0" on="1"/>
        <pt x="830" y="0" on="1"/>
        <pt x="1116" y="1430" on="1"/>
      </contour>
      <contour>
        <pt x="1728" y="0" on="1"/>
        <pt x="1562" y="509" on="0"/>
        <pt x="1454" y="653" on="0"/>
        <pt x="1356" y="653" on="1"/>
        <pt x="1394" y="846" on="1"/>
        <pt x="1534" y="846" on="0"/>
        <pt x="1898" y="1430" on="0"/>
        <pt x="2176" y="1430" on="1"/>
        <pt x="2283" y="1430" on="1"/>
        <pt x="2241" y="1220" on="1"/>
        <pt x="2162" y="1220" on="1"/>
        <pt x="2054" y="1220" on="0"/>
        <pt x="1788" y="797" on="0"/>
        <pt x="1619" y="758" on="1"/>
        <pt x="1692" y="736" on="0"/>
        <pt x="1830" y="570" on="0"/>
        <pt x="2042" y="0" on="1"/>
      </contour>
    </TTGlyph>
    <TTGlyph name="afii10025" xMin="-32" yMin="-10" xMax="1201" yMax="1440">
      <contour>
        <pt x="234" y="1380" on="1"/>
        <pt x="446" y="1440" on="0"/>
        <pt x="666" y="1440" on="1"/>
        <pt x="1201" y="1440" on="0"/>
        <pt x="1123" y="1050" on="1"/>
        <pt x="1076" y="814" on="0"/>
        <pt x="870" y="725" on="1"/>
        <pt x="1041" y="640" on="0"/>
        <pt x="993" y="400" on="1"/>
        <pt x="911" y="-10" on="0"/>
        <pt x="376" y="-10" on="1"/>
        <pt x="156" y="-10" on="0"/>
        <pt x="-32" y="50" on="1"/>
        <pt x="16" y="290" on="1"/>
        <pt x="202" y="220" on="0"/>
        <pt x="422" y="220" on="1"/>
        <pt x="692" y="220" on="0"/>
        <pt x="728" y="400" on="1"/>
        <pt x="770" y="610" on="0"/>
        <pt x="578" y="610" on="1"/>
        <pt x="230" y="610" on="1"/>
        <pt x="276" y="840" on="1"/>
        <pt x="621" y="840" on="1"/>
        <pt x="816" y="840" on="0"/>
        <pt x="858" y="1050" on="1"/>
        <pt x="890" y="1210" on="0"/>
        <pt x="620" y="1210" on="1"/>
        <pt x="400" y="1210" on="0"/>
        <pt x="186" y="1140" on="1"/>
      </contour>
    </TTGlyph>
    <TTGlyph name="afii10026" xMin="8" yMin="0" xMax="1479" yMax="1430">
      <contour>
        <pt x="938" y="0" on="1"/>
        <pt x="1140" y="1008" on="1"/>
        <pt x="273" y="0" on="1"/>
        <pt x="8" y="0" on="1"/>
        <pt x="294" y="1430" on="1"/>
        <pt x="549" y="1430" on="1"/>
        <pt x="341" y="389" on="1"/>
        <pt x="1214" y="1430" on="1"/>
        <pt x="1479" y="1430" on="1"/>
        <pt x="1193" y="0" on="1"/>
      </contour>
    </TTGlyph>
    <TTGlyph name="afii10027" xMin="8" yMin="0" xMax="1479" yMax="1784">
      <contour>
        <pt x="665" y="1784" on="1"/>
        <pt x="840" y="1784" on="1"/>
        <pt x="812" y="1644" on="0"/>
        <pt x="932" y="1644" on="1"/>
        <pt x="1052" y="1644" on="0"/>
        <pt x="1080" y="1784" on="1"/>
        <pt x="1255" y="1784" on="1"/>
        <pt x="1197" y="1494" on="0"/>
        <pt x="902" y="1494" on="1"/>
        <pt x="607" y="1494" on="0"/>
      </contour>
      <contour>
        <pt x="938" y="0" on="1"/>
        <pt x="1140" y="1008" on="1"/>
        <pt x="273" y="0" on="1"/>
        <pt x="8" y="0" on="1"/>
        <pt x="294" y="1430" on="1"/>
        <pt x="549" y="1430" on="1"/>
        <pt x="341" y="389" on="1"/>
        <pt x="1214" y="1430" on="1"/>
        <pt x="1479" y="1430" on="1"/>
        <pt x="1193" y="0" on="1"/>
      </contour>
    </TTGlyph>
    <TTGlyph name="afii10028" xMin="8" yMin="0" xMax="1461" yMax="1430">
      <contour>
        <pt x="559" y="1430" on="1"/>
        <pt x="273" y="0" on="1"/>
        <pt x="8" y="0" on="1"/>
        <pt x="294" y="1430" on="1"/>
      </contour>
      <contour>
        <pt x="906" y="0" on="1"/>
        <pt x="740" y="509" on="0"/>
        <pt x="632" y="653" on="0"/>
        <pt x="534" y="653" on="1"/>
        <pt x="572" y="846" on="1"/>
        <pt x="712" y="846" on="0"/>
        <pt x="1076" y="1430" on="0"/>
        <pt x="1354" y="1430" on="1"/>
        <pt x="1461" y="1430" on="1"/>
        <pt x="1419" y="1220" on="1"/>
        <pt x="1340" y="1220" on="1"/>
        <pt x="1232" y="1220" on="0"/>
        <pt x="966" y="797" on="0"/>
        <pt x="797" y="758" on="1"/>
        <pt x="870" y="736" on="0"/>
        <pt x="1008" y="570" on="0"/>
        <pt x="1220" y="0" on="1"/>
      </contour>
    </TTGlyph>
    <TTGlyph name="afii10029" xMin="-142" yMin="0" xMax="1508" yMax="1430">
      <contour>
        <pt x="-100" y="210" on="1"/>
        <pt x="244" y="210" on="0"/>
        <pt x="341" y="697" on="1"/>
        <pt x="488" y="1430" on="1"/>
        <pt x="1508" y="1430" on="1"/>
        <pt x="1222" y="0" on="1"/>
        <pt x="957" y="0" on="1"/>
        <pt x="1197" y="1200" on="1"/>
        <pt x="707" y="1200" on="1"/>
        <pt x="606" y="697" on="1"/>
        <pt x="467" y="0" on="0"/>
        <pt x="-142" y="0" on="1"/>
      </contour>
    </TTGlyph>
    <TTGlyph name="afii10030" xMin="8" yMin="0" xMax="1794" yMax="1430">
      <component glyphName="M" x="0" y="0" flags="0x200"/>
    </TTGlyph>
    <TTGlyph name="afii10031" xMin="8" yMin="0" xMax="1559" yMax="1430">
      <contour>
        <pt x="8" y="0" on="1"/>
        <pt x="294" y="1430" on="1"/>
        <pt x="559" y="1430" on="1"/>
        <pt x="443" y="850" on="1"/>
        <pt x="1178" y="850" on="1"/>
        <pt x="1294" y="1430" on="1"/>
        <pt x="1559" y="1430" on="1"/>
        <pt x="1273" y="0" on="1"/>
        <pt x="1008" y="0" on="1"/>
        <pt x="1132" y="620" on="1"/>
        <pt x="397" y="620" on="1"/>
        <pt x="273" y="0" on="1"/>
      </contour>
    </TTGlyph>
    <TTGlyph name="afii10032" xMin="-12" yMin="-10" xMax="1671" yMax="1440">
      <component glyphName="O" x="0" y="0" flags="0x200"/>
    </TTGlyph>
    <TTGlyph name="afii10033" xMin="8" yMin="0" xMax="1559" yMax="1430">
      <contour>
        <pt x="8" y="0" on="1"/>
        <pt x="294" y="1430" on="1"/>
        <pt x="1559" y="1430" on="1"/>
        <pt x="1273" y="0" on="1"/>
        <pt x="1008" y="0" on="1"/>
        <pt x="1248" y="1200" on="1"/>
        <pt x="513" y="1200" on="1"/>
        <pt x="273" y="0" on="1"/>
      </contour>
    </TTGlyph>
    <TTGlyph name="afii10034" xMin="8" yMin="0" xMax="1372" yMax="1430">
      <component glyphName="P" x="0" y="0" flags="0x200"/>
    </TTGlyph>
    <TTGlyph name="afii10035" xMin="-44" yMin="-10" xMax="1422" yMax="1440">
      <component glyphName="C" x="0" y="0" flags="0x200"/>
    </TTGlyph>
    <TTGlyph name="afii10036" xMin="98" yMin="0" xMax="1229" yMax="1430">
      <component glyphName="T" x="0" y="0" flags="0x200"/>
    </TTGlyph>
    <TTGlyph name="afii10037" xMin="36" yMin="0" xMax="1426" yMax="1430">
      <contour>
        <pt x="1426" y="1430" on="1"/>
        <pt x="701" y="268" on="1"/>
        <pt x="533" y="0" on="0"/>
        <pt x="258" y="0" on="1"/>
        <pt x="130" y="0" on="0"/>
        <pt x="36" y="70" on="1"/>
        <pt x="78" y="280" on="1"/>
        <pt x="170" y="210" on="0"/>
        <pt x="287" y="210" on="1"/>
        <pt x="421" y="210" on="0"/>
        <pt x="479" y="316" on="1"/>
        <pt x="194" y="1430" on="1"/>
        <pt x="468" y="1430" on="1"/>
        <pt x="657" y="600" on="1"/>
        <pt x="1132" y="1430" on="1"/>
      </contour>
    </TTGlyph>
    <TTGlyph name="afii10038" xMin="-12" yMin="0" xMax="1739" yMax="1430">
      <contour>
        <pt x="611" y="113" on="1"/>
        <pt x="-12" y="150" on="0"/>
        <pt x="101" y="713" on="1"/>
        <pt x="214" y="1280" on="0"/>
        <pt x="851" y="1317" on="1"/>
        <pt x="874" y="1430" on="1"/>
        <pt x="1138" y="1430" on="1"/>
        <pt x="1116" y="1318" on="1"/>
        <pt x="1739" y="1284" on="0"/>
        <pt x="1625" y="713" on="1"/>
        <pt x="1511" y="145" on="0"/>
        <pt x="874" y="112" on="1"/>
        <pt x="852" y="0" on="1"/>
        <pt x="588" y="0" on="1"/>
      </contour>
      <contour>
        <pt x="657" y="344" on="1"/>
        <pt x="805" y="1086" on="1"/>
        <pt x="442" y="1050" on="0"/>
        <pt x="376" y="719" on="1"/>
        <pt x="308" y="381" on="0"/>
      </contour>
      <contour>
        <pt x="1069" y="1087" on="1"/>
        <pt x="921" y="343" on="1"/>
        <pt x="1283" y="377" on="0"/>
        <pt x="1352" y="719" on="1"/>
        <pt x="1419" y="1054" on="0"/>
      </contour>
    </TTGlyph>
    <TTGlyph name="afii10039" xMin="-117" yMin="0" xMax="1629" yMax="1430">
      <contour>
        <pt x="589" y="715" on="1"/>
        <pt x="169" y="1430" on="1"/>
        <pt x="494" y="1430" on="1"/>
        <pt x="785" y="898" on="1"/>
        <pt x="1284" y="1430" on="1"/>
        <pt x="1629" y="1430" on="1"/>
        <pt x="924" y="715" on="1"/>
        <pt x="1343" y="0" on="1"/>
        <pt x="1018" y="0" on="1"/>
        <pt x="727" y="532" on="1"/>
        <pt x="228" y="0" on="1"/>
        <pt x="-117" y="0" on="1"/>
      </contour>
    </TTGlyph>
    <TTGlyph name="afii10040" xMin="8" yMin="-380" xMax="1486" yMax="1430">
      <contour>
        <pt x="8" y="0" on="1"/>
        <pt x="294" y="1430" on="1"/>
        <pt x="559" y="1430" on="1"/>
        <pt x="319" y="230" on="1"/>
        <pt x="981" y="230" on="1"/>
        <pt x="1221" y="1430" on="1"/>
        <pt x="1486" y="1430" on="1"/>
        <pt x="1246" y="230" on="1"/>
        <pt x="1431" y="230" on="1"/>
        <pt x="1309" y="-380" on="1"/>
        <pt x="1044" y="-380" on="1"/>
        <pt x="1120" y="0" on="1"/>
      </contour>
    </TTGlyph>
    <TTGlyph name="afii10041" xMin="77" yMin="0" xMax="1462" yMax="1430">
      <contour>
        <pt x="1462" y="1430" on="1"/>
        <pt x="1176" y="0" on="1"/>
        <pt x="911" y="0" on="1"/>
        <pt x="1028" y="584" on="1"/>
        <pt x="809" y="470" on="0"/>
        <pt x="576" y="470" on="1"/>
        <pt x="77" y="470" on="0"/>
        <pt x="181" y="991" on="1"/>
        <pt x="269" y="1430" on="1"/>
        <pt x="534" y="1430" on="1"/>
        <pt x="446" y="988" on="1"/>
        <pt x="389" y="704" on="0"/>
        <pt x="648" y="704" on="1"/>
        <pt x="877" y="704" on="0"/>
        <pt x="1078" y="837" on="1"/>
        <pt x="1197" y="1430" on="1"/>
      </contour>
    </TTGlyph>
    <TTGlyph name="afii10042" xMin="8" yMin="0" xMax="1989" yMax="1430">
      <contour>
        <pt x="8" y="0" on="1"/>
        <pt x="294" y="1430" on="1"/>
        <pt x="559" y="1430" on="1"/>
        <pt x="319" y="230" on="1"/>
        <pt x="769" y="230" on="1"/>
        <pt x="1009" y="1430" on="1"/>
        <pt x="1274" y="1430" on="1"/>
        <pt x="1034" y="230" on="1"/>
        <pt x="1484" y="230" on="1"/>
        <pt x="1724" y="1430" on="1"/>
        <pt x="1989" y="1430" on="1"/>
        <pt x="1703" y="0" on="1"/>
      </contour>
    </TTGlyph>
    <TTGlyph name="afii10043" xMin="8" yMin="-380" xMax="1989" yMax="1430">
      <contour>
        <pt x="8" y="0" on="1"/>
        <pt x="294" y="1430" on="1"/>
        <pt x="559" y="1430" on="1"/>
        <pt x="319" y="230" on="1"/>
        <pt x="769" y="230" on="1"/>
        <pt x="1009" y="1430" on="1"/>
        <pt x="1274" y="1430" on="1"/>
        <pt x="1034" y="230" on="1"/>
        <pt x="1484" y="230" on="1"/>
        <pt x="1724" y="1430" on="1"/>
        <pt x="1989" y="1430" on="1"/>
        <pt x="1749" y="230" on="1"/>
        <pt x="1934" y="230" on="1"/>
        <pt x="1812" y="-380" on="1"/>
        <pt x="1547" y="-380" on="1"/>
        <pt x="1623" y="0" on="1"/>
      </contour>
    </TTGlyph>
    <TTGlyph name="afii10044" xMin="98" yMin="0" xMax="1632" yMax="1430">
      <contour>
        <pt x="911" y="1430" on="1"/>
        <pt x="672" y="233" on="1"/>
        <pt x="1080" y="233" on="1"/>
        <pt x="1238" y="233" on="0"/>
        <pt x="1271" y="402" on="1"/>
        <pt x="1309" y="590" on="0"/>
        <pt x="1097" y="590" on="1"/>
        <pt x="909" y="590" on="1"/>
        <pt x="955" y="820" on="1"/>
        <pt x="1153" y="820" on="1"/>
        <pt x="1632" y="820" on="0"/>
        <pt x="1551" y="413" on="1"/>
        <pt x="1468" y="0" on="0"/>
        <pt x="1050" y="0" on="1"/>
        <pt x="360" y="0" on="1"/>
        <pt x="600" y="1200" on="1"/>
        <pt x="98" y="1200" on="1"/>
        <pt x="144" y="1430" on="1"/>
      </contour>
    </TTGlyph>
    <TTGlyph name="afii10045" xMin="8" yMin="0" xMax="1789" yMax="1430">
      <contour>
        <pt x="559" y="1430" on="1"/>
        <pt x="320" y="233" on="1"/>
        <pt x="728" y="233" on="1"/>
        <pt x="886" y="233" on="0"/>
        <pt x="919" y="402" on="1"/>
        <pt x="957" y="590" on="0"/>
        <pt x="745" y="590" on="1"/>
        <pt x="557" y="590" on="1"/>
        <pt x="603" y="820" on="1"/>
        <pt x="801" y="820" on="1"/>
        <pt x="1280" y="820" on="0"/>
        <pt x="1199" y="413" on="1"/>
        <pt x="1116" y="0" on="0"/>
        <pt x="698" y="0" on="1"/>
        <pt x="8" y="0" on="1"/>
        <pt x="294" y="1430" on="1"/>
      </contour>
      <contour>
        <pt x="1238" y="0" on="1"/>
        <pt x="1524" y="1430" on="1"/>
        <pt x="1789" y="1430" on="1"/>
        <pt x="1503" y="0" on="1"/>
      </contour>
    </TTGlyph>
    <TTGlyph name="afii10046" xMin="8" yMin="0" xMax="1280" yMax="1430">
      <contour>
        <pt x="559" y="1430" on="1"/>
        <pt x="320" y="233" on="1"/>
        <pt x="728" y="233" on="1"/>
        <pt x="886" y="233" on="0"/>
        <pt x="919" y="402" on="1"/>
        <pt x="957" y="590" on="0"/>
        <pt x="745" y="590" on="1"/>
        <pt x="557" y="590" on="1"/>
        <pt x="603" y="820" on="1"/>
        <pt x="800" y="820" on="1"/>
        <pt x="1280" y="820" on="0"/>
        <pt x="1199" y="413" on="1"/>
        <pt x="1116" y="0" on="0"/>
        <pt x="698" y="0" on="1"/>
        <pt x="8" y="0" on="1"/>
        <pt x="294" y="1430" on="1"/>
      </contour>
    </TTGlyph>
    <TTGlyph name="afii10047" xMin="-7" yMin="-10" xMax="1421" yMax="1440">
      <contour>
        <pt x="41" y="290" on="1"/>
        <pt x="212" y="220" on="0"/>
        <pt x="407" y="220" on="1"/>
        <pt x="869" y="220" on="0"/>
        <pt x="977" y="610" on="1"/>
        <pt x="177" y="610" on="1"/>
        <pt x="223" y="840" on="1"/>
        <pt x="1024" y="840" on="1"/>
        <pt x="1075" y="1210" on="0"/>
        <pt x="605" y="1210" on="1"/>
        <pt x="410" y="1210" on="0"/>
        <pt x="211" y="1140" on="1"/>
        <pt x="259" y="1380" on="1"/>
        <pt x="456" y="1440" on="0"/>
        <pt x="671" y="1440" on="1"/>
        <pt x="1421" y="1440" on="0"/>
        <pt x="1280" y="735" on="1"/>
        <pt x="1131" y="-10" on="0"/>
        <pt x="381" y="-10" on="1"/>
        <pt x="166" y="-10" on="0"/>
        <pt x="-7" y="50" on="1"/>
      </contour>
    </TTGlyph>
    <TTGlyph name="afii10048" xMin="8" yMin="-10" xMax="2048" yMax="1440">
      <contour>
        <pt x="8" y="0" on="1"/>
        <pt x="294" y="1430" on="1"/>
        <pt x="558" y="1430" on="1"/>
        <pt x="440" y="840" on="1"/>
        <pt x="685" y="840" on="1"/>
        <pt x="859" y="1440" on="0"/>
        <pt x="1431" y="1440" on="1"/>
        <pt x="2048" y="1440" on="0"/>
        <pt x="1903" y="713" on="1"/>
        <pt x="1758" y="-10" on="0"/>
        <pt x="1141" y="-10" on="1"/>
        <pt x="559" y="-10" on="0"/>
        <pt x="638" y="610" on="1"/>
        <pt x="394" y="610" on="1"/>
        <pt x="272" y="0" on="1"/>
      </contour>
      <contour>
        <pt x="1187" y="220" on="1"/>
        <pt x="1529" y="220" on="0"/>
        <pt x="1629" y="719" on="1"/>
        <pt x="1727" y="1210" on="0"/>
        <pt x="1385" y="1210" on="1"/>
        <pt x="1032" y="1210" on="0"/>
        <pt x="934" y="719" on="1"/>
        <pt x="834" y="220" on="0"/>
      </contour>
    </TTGlyph>
    <TTGlyph name="afii10049" xMin="-117" yMin="0" xMax="1369" yMax="1430">
      <contour>
        <pt x="813" y="2" on="1"/>
        <pt x="1052" y="1197" on="1"/>
        <pt x="699" y="1197" on="1"/>
        <pt x="511" y="1197" on="0"/>
        <pt x="478" y="1029" on="1"/>
        <pt x="434" y="809" on="0"/>
        <pt x="811" y="744" on="1"/>
        <pt x="787" y="623" on="1"/>
        <pt x="227" y="0" on="1"/>
        <pt x="-117" y="0" on="1"/>
        <pt x="460" y="618" on="1"/>
        <pt x="149" y="768" on="0"/>
        <pt x="217" y="1114" on="1"/>
        <pt x="281" y="1430" on="0"/>
        <pt x="749" y="1430" on="1"/>
        <pt x="1369" y="1430" on="1"/>
        <pt x="1083" y="2" on="1"/>
      </contour>
    </TTGlyph>
    <TTGlyph name="afii10065" xMin="-67" yMin="0" xMax="1121" yMax="1050">
      <component glyphName="a" x="0" y="0" flags="0x200"/>
    </TTGlyph>
    <TTGlyph name="afii10066" xMin="-69" yMin="-10" xMax="1248" yMax="1539">
      <contour>
        <pt x="1078" y="520" on="1"/>
        <pt x="972" y="-10" on="0"/>
        <pt x="454" y="-10" on="1"/>
        <pt x="-69" y="-10" on="0"/>
        <pt x="37" y="520" on="1"/>
        <pt x="102" y="845" on="1"/>
        <pt x="219" y="1430" on="0"/>
        <pt x="813" y="1430" on="1"/>
        <pt x="1055" y="1430" on="0"/>
        <pt x="1248" y="1539" on="1"/>
        <pt x="1203" y="1316" on="1"/>
        <pt x="1031" y="1220" on="0"/>
        <pt x="768" y="1220" on="1"/>
        <pt x="447" y="1220" on="0"/>
        <pt x="381" y="892" on="1"/>
        <pt x="535" y="1050" on="0"/>
        <pt x="738" y="1050" on="1"/>
        <pt x="1184" y="1050" on="0"/>
        <pt x="1083" y="545" on="1"/>
      </contour>
      <contour>
        <pt x="496" y="200" on="1"/>
        <pt x="748" y="200" on="0"/>
        <pt x="812" y="520" on="1"/>
        <pt x="875" y="834" on="0"/>
        <pt x="633" y="834" on="1"/>
        <pt x="370" y="834" on="0"/>
        <pt x="307" y="520" on="1"/>
        <pt x="243" y="200" on="0"/>
      </contour>
    </TTGlyph>
    <TTGlyph name="afii10067" xMin="-71" yMin="-20" xMax="1145" yMax="1070">
      <contour>
        <pt x="-71" y="-20" on="0"/>
        <pt x="38" y="525" on="1"/>
        <pt x="147" y="1070" on="0"/>
        <pt x="737" y="1070" on="1"/>
        <pt x="1145" y="1070" on="0"/>
        <pt x="1084" y="767" on="1"/>
        <pt x="1056" y="624" on="0"/>
        <pt x="814" y="545" on="1"/>
        <pt x="1047" y="492" on="0"/>
        <pt x="1010" y="307" on="1"/>
        <pt x="945" y="-20" on="0"/>
        <pt x="458" y="-20" on="1"/>
      </contour>
      <contour>
        <pt x="497" y="180" on="1"/>
        <pt x="713" y="180" on="0"/>
        <pt x="742" y="323" on="1"/>
        <pt x="763" y="430" on="0"/>
        <pt x="620" y="430" on="1"/>
        <pt x="510" y="430" on="1"/>
        <pt x="546" y="611" on="1"/>
        <pt x="793" y="646" on="0"/>
        <pt x="816" y="760" on="1"/>
        <pt x="838" y="870" on="0"/>
        <pt x="690" y="870" on="1"/>
        <pt x="372" y="870" on="0"/>
        <pt x="303" y="525" on="1"/>
        <pt x="234" y="180" on="0"/>
      </contour>
    </TTGlyph>
    <TTGlyph name="afii10068" xMin="-69" yMin="-10" xMax="1015" yMax="1060">
      <contour>
        <pt x="566" y="-10" on="0"/>
        <pt x="377" y="-10" on="1"/>
        <pt x="-69" y="-10" on="0"/>
        <pt x="-3" y="320" on="1"/>
        <pt x="61" y="640" on="0"/>
        <pt x="411" y="640" on="1"/>
        <pt x="561" y="640" on="1"/>
        <pt x="686" y="640" on="0"/>
        <pt x="706" y="740" on="1"/>
        <pt x="728" y="850" on="0"/>
        <pt x="513" y="850" on="1"/>
        <pt x="338" y="850" on="0"/>
        <pt x="149" y="780" on="1"/>
        <pt x="193" y="1000" on="1"/>
        <pt x="380" y="1060" on="0"/>
        <pt x="548" y="1060" on="1"/>
        <pt x="1015" y="1060" on="0"/>
        <pt x="949" y="730" on="1"/>
        <pt x="885" y="410" on="0"/>
        <pt x="565" y="410" on="1"/>
        <pt x="395" y="410" on="1"/>
        <pt x="280" y="410" on="0"/>
        <pt x="260" y="310" on="1"/>
        <pt x="238" y="200" on="0"/>
        <pt x="409" y="200" on="1"/>
        <pt x="608" y="200" on="0"/>
        <pt x="797" y="270" on="1"/>
        <pt x="753" y="50" on="1"/>
      </contour>
    </TTGlyph>
    <TTGlyph name="afii10069" xMin="-69" yMin="-10" xMax="1249" yMax="1430">
      <contour>
        <pt x="827" y="646" on="1"/>
        <pt x="846" y="742" on="0"/>
        <pt x="840" y="800" on="1"/>
        <pt x="760" y="850" on="0"/>
        <pt x="616" y="850" on="1"/>
        <pt x="364" y="850" on="0"/>
        <pt x="302" y="540" on="1"/>
        <pt x="234" y="200" on="0"/>
        <pt x="487" y="200" on="1"/>
        <pt x="738" y="200" on="0"/>
      </contour>
      <contour>
        <pt x="1093" y="650" on="1"/>
        <pt x="961" y="-10" on="0"/>
        <pt x="444" y="-10" on="1"/>
        <pt x="-69" y="-10" on="0"/>
        <pt x="41" y="540" on="1"/>
        <pt x="143" y="1050" on="0"/>
        <pt x="577" y="1050" on="1"/>
        <pt x="754" y="1050" on="0"/>
        <pt x="845" y="960" on="1"/>
        <pt x="795" y="1220" on="0"/>
        <pt x="463" y="1220" on="1"/>
        <pt x="257" y="1220" on="1"/>
        <pt x="299" y="1430" on="1"/>
        <pt x="507" y="1430" on="1"/>
        <pt x="1249" y="1430" on="0"/>
      </contour>
    </TTGlyph>
    <TTGlyph name="afii10070" xMin="-82" yMin="0" xMax="1079" yMax="1050">
      <component glyphName="e" x="0" y="0" flags="0x200"/>
    </TTGlyph>
    <TTGlyph name="afii10071" xMin="-82" yMin="0" xMax="1079" yMax="1430">
      <component glyphName="e" x="0" y="0" flags="0x200"/>
      <component glyphName="dieresis" x="168" y="0" flags="0x0"/>
    </TTGlyph>
    <TTGlyph name="afii10072" xMin="-76" yMin="0" xMax="2053" yMax="1050">
      <contour>
        <pt x="1412" y="730" on="1"/>
        <pt x="1545" y="1050" on="0"/>
        <pt x="1879" y="1050" on="1"/>
        <pt x="1969" y="1050" on="0"/>
        <pt x="2053" y="1020" on="1"/>
        <pt x="2011" y="810" on="1"/>
        <pt x="1937" y="840" on="0"/>
        <pt x="1867" y="840" on="1"/>
        <pt x="1682" y="840" on="0"/>
        <pt x="1623" y="545" on="1"/>
        <pt x="1556" y="210" on="0"/>
        <pt x="1711" y="210" on="1"/>
        <pt x="1801" y="210" on="0"/>
        <pt x="1917" y="290" on="1"/>
        <pt x="1875" y="80" on="1"/>
        <pt x="1749" y="0" on="0"/>
        <pt x="1639" y="0" on="1"/>
        <pt x="1259" y="0" on="0"/>
        <pt x="1352" y="517" on="1"/>
        <pt x="1097" y="471" on="1"/>
        <pt x="1003" y="0" on="1"/>
        <pt x="738" y="0" on="1"/>
        <pt x="822" y="422" on="1"/>
        <pt x="587" y="380" on="1"/>
        <pt x="462" y="0" on="0"/>
        <pt x="98" y="0" on="1"/>
        <pt x="8" y="0" on="0"/>
        <pt x="-76" y="30" on="1"/>
        <pt x="-34" y="240" on="1"/>
        <pt x="40" y="210" on="0"/>
        <pt x="110" y="210" on="1"/>
        <pt x="295" y="210" on="0"/>
        <pt x="354" y="505" on="1"/>
        <pt x="421" y="840" on="0"/>
        <pt x="266" y="840" on="1"/>
        <pt x="176" y="840" on="0"/>
        <pt x="60" y="760" on="1"/>
        <pt x="102" y="970" on="1"/>
        <pt x="228" y="1050" on="0"/>
        <pt x="338" y="1050" on="1"/>
        <pt x="696" y="1050" on="0"/>
        <pt x="633" y="591" on="1"/>
        <pt x="864" y="632" on="1"/>
        <pt x="948" y="1050" on="1"/>
        <pt x="1213" y="1050" on="1"/>
        <pt x="1139" y="681" on="1"/>
      </contour>
    </TTGlyph>
    <TTGlyph name="afii10073" xMin="-72" yMin="-10" xMax="895" yMax="1060">
      <contour>
        <pt x="118" y="1000" on="1"/>
        <pt x="330" y="1060" on="0"/>
        <pt x="480" y="1060" on="1"/>
        <pt x="895" y="1060" on="0"/>
        <pt x="837" y="768" on="1"/>
        <pt x="806" y="614" on="0"/>
        <pt x="652" y="535" on="1"/>
        <pt x="775" y="460" on="0"/>
        <pt x="745" y="310" on="1"/>
        <pt x="681" y="-10" on="0"/>
        <pt x="266" y="-10" on="1"/>
        <pt x="116" y="-10" on="0"/>
        <pt x="-72" y="50" on="1"/>
        <pt x="-28" y="270" on="1"/>
        <pt x="158" y="200" on="0"/>
        <pt x="308" y="200" on="1"/>
        <pt x="458" y="200" on="0"/>
        <pt x="480" y="310" on="1"/>
        <pt x="504" y="430" on="0"/>
        <pt x="392" y="430" on="1"/>
        <pt x="104" y="430" on="1"/>
        <pt x="146" y="640" on="1"/>
        <pt x="431" y="640" on="1"/>
        <pt x="546" y="640" on="0"/>
        <pt x="572" y="768" on="1"/>
        <pt x="588" y="850" on="0"/>
        <pt x="438" y="850" on="1"/>
        <pt x="288" y="850" on="0"/>
        <pt x="74" y="780" on="1"/>
      </contour>
    </TTGlyph>
    <TTGlyph name="afii10074" xMin="-17" yMin="0" xMax="1178" yMax="1050">
      <contour>
        <pt x="1178" y="1050" on="1"/>
        <pt x="968" y="0" on="1"/>
        <pt x="733" y="0" on="1"/>
        <pt x="774" y="354" on="1"/>
        <pt x="579" y="0" on="0"/>
        <pt x="286" y="0" on="1"/>
        <pt x="-17" y="0" on="0"/>
        <pt x="51" y="341" on="1"/>
        <pt x="193" y="1050" on="1"/>
        <pt x="458" y="1050" on="1"/>
        <pt x="316" y="338" on="1"/>
        <pt x="291" y="214" on="0"/>
        <pt x="434" y="214" on="1"/>
        <pt x="623" y="214" on="0"/>
        <pt x="812" y="547" on="1"/>
        <pt x="913" y="1050" on="1"/>
      </contour>
    </TTGlyph>
    <TTGlyph name="afii10075" xMin="-17" yMin="0" xMax="1178" yMax="1430">
      <component glyphName="afii10074" x="0" y="0" flags="0x200"/>
      <component glyphName="breve" x="223" y="0" flags="0x0"/>
    </TTGlyph>
    <TTGlyph name="afii10076" xMin="-17" yMin="0" xMax="1178" yMax="1057">
      <contour>
        <pt x="459" y="1057" on="1"/>
        <pt x="248" y="0" on="1"/>
        <pt x="-17" y="0" on="1"/>
        <pt x="194" y="1057" on="1"/>
      </contour>
      <contour>
        <pt x="738" y="0" on="1"/>
        <pt x="640" y="246" on="1"/>
        <pt x="556" y="463" on="0"/>
        <pt x="448" y="463" on="1"/>
        <pt x="484" y="646" on="1"/>
        <pt x="597" y="646" on="0"/>
        <pt x="843" y="1055" on="0"/>
        <pt x="1071" y="1055" on="1"/>
        <pt x="1178" y="1055" on="1"/>
        <pt x="1135" y="839" on="1"/>
        <pt x="1056" y="839" on="1"/>
        <pt x="958" y="839" on="0"/>
        <pt x="787" y="597" on="0"/>
        <pt x="683" y="548" on="1"/>
        <pt x="806" y="527" on="0"/>
        <pt x="919" y="264" on="1"/>
        <pt x="1032" y="0" on="1"/>
      </contour>
    </TTGlyph>
    <TTGlyph name="afii10077" xMin="-142" yMin="0" xMax="1185" yMax="1050">
      <contour>
        <pt x="-100" y="210" on="1"/>
        <pt x="137" y="210" on="0"/>
        <pt x="179" y="420" on="1"/>
        <pt x="220" y="625" on="1"/>
        <pt x="305" y="1050" on="0"/>
        <pt x="745" y="1050" on="1"/>
        <pt x="1185" y="1050" on="1"/>
        <pt x="975" y="0" on="1"/>
        <pt x="710" y="0" on="1"/>
        <pt x="878" y="840" on="1"/>
        <pt x="703" y="840" on="1"/>
        <pt x="528" y="840" on="0"/>
        <pt x="486" y="630" on="1"/>
        <pt x="444" y="420" on="1"/>
        <pt x="360" y="0" on="0"/>
        <pt x="-142" y="0" on="1"/>
      </contour>
    </TTGlyph>
    <TTGlyph name="afii10078" xMin="-17" yMin="0" xMax="1453" yMax="1050">
      <contour>
        <pt x="-17" y="0" on="1"/>
        <pt x="193" y="1050" on="1"/>
        <pt x="478" y="1050" on="1"/>
        <pt x="690" y="333" on="1"/>
        <pt x="1168" y="1050" on="1"/>
        <pt x="1453" y="1050" on="1"/>
        <pt x="1243" y="0" on="1"/>
        <pt x="998" y="0" on="1"/>
        <pt x="1126" y="640" on="1"/>
        <pt x="690" y="0" on="1"/>
        <pt x="544" y="0" on="1"/>
        <pt x="356" y="640" on="1"/>
        <pt x="228" y="0" on="1"/>
      </contour>
    </TTGlyph>
    <TTGlyph name="afii10079" xMin="-17" yMin="0" xMax="1158" yMax="1050">
      <contour>
        <pt x="-17" y="0" on="1"/>
        <pt x="193" y="1050" on="1"/>
        <pt x="458" y="1050" on="1"/>
        <pt x="376" y="640" on="1"/>
        <pt x="811" y="640" on="1"/>
        <pt x="893" y="1050" on="1"/>
        <pt x="1158" y="1050" on="1"/>
        <pt x="948" y="0" on="1"/>
        <pt x="683" y="0" on="1"/>
        <pt x="769" y="430" on="1"/>
        <pt x="334" y="430" on="1"/>
        <pt x="248" y="0" on="1"/>
      </contour>
    </TTGlyph>
    <TTGlyph name="afii10080" xMin="-67" yMin="-9" xMax="1165" yMax="1060">
      <contour>
        <pt x="238" y="200" on="0"/>
        <pt x="483" y="200" on="1"/>
        <pt x="728" y="200" on="0"/>
        <pt x="794" y="529" on="1"/>
        <pt x="858" y="850" on="0"/>
        <pt x="613" y="850" on="1"/>
        <pt x="368" y="850" on="0"/>
        <pt x="304" y="529" on="1"/>
      </contour>
      <contour>
        <pt x="38" y="525" on="1"/>
        <pt x="145" y="1060" on="0"/>
        <pt x="655" y="1060" on="1"/>
        <pt x="1165" y="1060" on="0"/>
        <pt x="1058" y="525" on="1"/>
        <pt x="951" y="-9" on="0"/>
        <pt x="441" y="-9" on="1"/>
        <pt x="-67" y="-9" on="0"/>
      </contour>
    </TTGlyph>
    <TTGlyph name="afii10081" xMin="-17" yMin="0" xMax="1178" yMax="1050">
      <contour>
        <pt x="-17" y="0" on="1"/>
        <pt x="193" y="1050" on="1"/>
        <pt x="428" y="1050" on="1"/>
        <pt x="387" y="696" on="1"/>
        <pt x="582" y="1050" on="0"/>
        <pt x="875" y="1050" on="1"/>
        <pt x="1178" y="1050" on="0"/>
        <pt x="1110" y="709" on="1"/>
        <pt x="968" y="0" on="1"/>
        <pt x="703" y="0" on="1"/>
        <pt x="845" y="712" on="1"/>
        <pt x="870" y="836" on="0"/>
        <pt x="727" y="836" on="1"/>
        <pt x="538" y="836" on="0"/>
        <pt x="349" y="503" on="1"/>
        <pt x="248" y="0" on="1"/>
      </contour>
    </TTGlyph>
    <TTGlyph name="afii10082" xMin="-93" yMin="-380" xMax="1171" yMax="1050">
      <contour>
        <pt x="297" y="243" on="1"/>
        <pt x="382" y="214" on="0"/>
        <pt x="502" y="214" on="1"/>
        <pt x="742" y="214" on="0"/>
        <pt x="812" y="563" on="1"/>
        <pt x="865" y="830" on="0"/>
        <pt x="688" y="830" on="1"/>
        <pt x="524" y="830" on="0"/>
        <pt x="363" y="576" on="1"/>
      </contour>
      <contour>
        <pt x="193" y="1050" on="1"/>
        <pt x="428" y="1050" on="1"/>
        <pt x="408" y="800" on="1"/>
        <pt x="577" y="1050" on="0"/>
        <pt x="823" y="1050" on="1"/>
        <pt x="1171" y="1050" on="0"/>
        <pt x="1074" y="566" on="1"/>
        <pt x="961" y="0" on="0"/>
        <pt x="448" y="0" on="1"/>
        <pt x="351" y="0" on="0"/>
        <pt x="250" y="9" on="1"/>
        <pt x="172" y="-380" on="1"/>
        <pt x="-93" y="-380" on="1"/>
      </contour>
    </TTGlyph>
    <TTGlyph name="afii10083" xMin="-82" yMin="0" xMax="942" yMax="1050">
      <contour>
        <pt x="764" y="130" on="1"/>
        <pt x="608" y="0" on="0"/>
        <pt x="418" y="0" on="1"/>
        <pt x="-82" y="0" on="0"/>
        <pt x="25" y="535" on="1"/>
        <pt x="128" y="1050" on="0"/>
        <pt x="668" y="1050" on="1"/>
        <pt x="818" y="1050" on="0"/>
        <pt x="942" y="1020" on="1"/>
        <pt x="900" y="810" on="1"/>
        <pt x="776" y="840" on="0"/>
        <pt x="646" y="840" on="1"/>
        <pt x="351" y="840" on="0"/>
        <pt x="290" y="535" on="1"/>
        <pt x="225" y="210" on="0"/>
        <pt x="480" y="210" on="1"/>
        <pt x="650" y="210" on="0"/>
        <pt x="806" y="340" on="1"/>
      </contour>
    </TTGlyph>
    <TTGlyph name="afii10084" xMin="-17" yMin="0" xMax="1778" yMax="1050">
      <contour>
        <pt x="-17" y="0" on="1"/>
        <pt x="193" y="1050" on="1"/>
        <pt x="428" y="1050" on="1"/>
        <pt x="390" y="708" on="1"/>
        <pt x="570" y="1050" on="0"/>
        <pt x="798" y="1050" on="1"/>
        <pt x="1098" y="1050" on="0"/>
        <pt x="1029" y="706" on="1"/>
        <pt x="1230" y="1050" on="0"/>
        <pt x="1456" y="1050" on="1"/>
        <pt x="1778" y="1050" on="0"/>
        <pt x="1698" y="651" on="1"/>
        <pt x="1568" y="0" on="1"/>
        <pt x="1303" y="0" on="1"/>
        <pt x="1435" y="661" on="1"/>
        <pt x="1470" y="836" on="0"/>
        <pt x="1352" y="836" on="1"/>
        <pt x="1184" y="836" on="0"/>
        <pt x="1008" y="500" on="1"/>
        <pt x="908" y="0" on="1"/>
        <pt x="643" y="0" on="1"/>
        <pt x="775" y="658" on="1"/>
        <pt x="810" y="836" on="0"/>
        <pt x="694" y="836" on="1"/>
        <pt x="518" y="836" on="0"/>
        <pt x="348" y="500" on="1"/>
        <pt x="248" y="0" on="1"/>
      </contour>
    </TTGlyph>
    <TTGlyph name="afii10085" xMin="-47" yMin="-438" xMax="1149" yMax="1050">
      <contour>
        <pt x="68" y="1050" on="1"/>
        <pt x="349" y="1050" on="1"/>
        <pt x="463" y="294" on="1"/>
        <pt x="873" y="1050" on="1"/>
        <pt x="1149" y="1050" on="1"/>
        <pt x="497" y="-31" on="1"/>
        <pt x="324" y="-317" on="0"/>
        <pt x="45" y="-438" on="1"/>
        <pt x="-47" y="-257" on="1"/>
        <pt x="144" y="-180" on="0"/>
        <pt x="259" y="-6" on="1"/>
      </contour>
    </TTGlyph>
    <TTGlyph name="afii10086" xMin="-67" yMin="-380" xMax="1834" yMax="1430">
      <contour>
        <pt x="1071" y="800" on="1"/>
        <pt x="1240" y="1050" on="0"/>
        <pt x="1486" y="1050" on="1"/>
        <pt x="1834" y="1050" on="0"/>
        <pt x="1737" y="566" on="1"/>
        <pt x="1624" y="0" on="0"/>
        <pt x="1111" y="0" on="1"/>
        <pt x="1014" y="0" on="0"/>
        <pt x="913" y="9" on="1"/>
        <pt x="835" y="-380" on="1"/>
        <pt x="570" y="-380" on="1"/>
        <pt x="696" y="250" on="1"/>
        <pt x="527" y="0" on="0"/>
        <pt x="281" y="0" on="1"/>
        <pt x="-67" y="0" on="0"/>
        <pt x="30" y="484" on="1"/>
        <pt x="143" y="1050" on="0"/>
        <pt x="656" y="1050" on="1"/>
        <pt x="753" y="1050" on="0"/>
        <pt x="854" y="1041" on="1"/>
        <pt x="932" y="1430" on="1"/>
        <pt x="1197" y="1430" on="1"/>
      </contour>
      <contour>
        <pt x="807" y="807" on="1"/>
        <pt x="722" y="836" on="0"/>
        <pt x="602" y="836" on="1"/>
        <pt x="362" y="836" on="0"/>
        <pt x="292" y="487" on="1"/>
        <pt x="239" y="220" on="0"/>
        <pt x="416" y="220" on="1"/>
        <pt x="580" y="220" on="0"/>
        <pt x="741" y="474" on="1"/>
      </contour>
      <contour>
        <pt x="1026" y="576" on="1"/>
        <pt x="960" y="243" on="1"/>
        <pt x="1045" y="214" on="0"/>
        <pt x="1165" y="214" on="1"/>
        <pt x="1405" y="214" on="0"/>
        <pt x="1475" y="563" on="1"/>
        <pt x="1528" y="830" on="0"/>
        <pt x="1351" y="830" on="1"/>
        <pt x="1187" y="830" on="0"/>
      </contour>
    </TTGlyph>
    <TTGlyph name="afii10087" xMin="-142" yMin="0" xMax="1148" yMax="1050">
      <contour>
        <pt x="356" y="525" on="1"/>
        <pt x="68" y="1050" on="1"/>
        <pt x="353" y="1050" on="1"/>
        <pt x="532" y="712" on="1"/>
        <pt x="843" y="1050" on="1"/>
        <pt x="1148" y="1050" on="1"/>
        <pt x="651" y="525" on="1"/>
        <pt x="938" y="0" on="1"/>
        <pt x="653" y="0" on="1"/>
        <pt x="474" y="338" on="1"/>
        <pt x="163" y="0" on="1"/>
        <pt x="-142" y="0" on="1"/>
      </contour>
    </TTGlyph>
    <TTGlyph name="afii10088" xMin="-17" yMin="-380" xMax="1195" yMax="1050">
      <contour>
        <pt x="1000" y="160" on="1"/>
        <pt x="1195" y="210" on="1"/>
        <pt x="1136" y="-85" on="0"/>
        <pt x="977" y="-380" on="1"/>
        <pt x="712" y="-380" on="1"/>
        <pt x="850" y="-190" on="0"/>
        <pt x="898" y="50" on="1"/>
        <pt x="733" y="0" on="1"/>
        <pt x="774" y="354" on="1"/>
        <pt x="579" y="0" on="0"/>
        <pt x="286" y="0" on="1"/>
        <pt x="-17" y="0" on="0"/>
        <pt x="51" y="341" on="1"/>
        <pt x="193" y="1050" on="1"/>
        <pt x="458" y="1050" on="1"/>
        <pt x="316" y="338" on="1"/>
        <pt x="291" y="214" on="0"/>
        <pt x="434" y="214" on="1"/>
        <pt x="623" y="214" on="0"/>
        <pt x="812" y="547" on="1"/>
        <pt x="913" y="1050" on="1"/>
        <pt x="1178" y="1050" on="1"/>
      </contour>
    </TTGlyph>
    <TTGlyph name="afii10089" xMin="12" yMin="0" xMax="1191" yMax="1050">
      <contour>
        <pt x="1191" y="1050" on="1"/>
        <pt x="981" y="0" on="1"/>
        <pt x="716" y="0" on="1"/>
        <pt x="793" y="384" on="1"/>
        <pt x="624" y="270" on="0"/>
        <pt x="421" y="270" on="1"/>
        <pt x="12" y="270" on="0"/>
        <pt x="100" y="711" on="1"/>
        <pt x="168" y="1050" on="1"/>
        <pt x="433" y="1050" on="1"/>
        <pt x="365" y="708" on="1"/>
        <pt x="320" y="484" on="0"/>
        <pt x="489" y="484" on="1"/>
        <pt x="688" y="484" on="0"/>
        <pt x="839" y="617" on="1"/>
        <pt x="926" y="1050" on="1"/>
      </contour>
    </TTGlyph>
    <TTGlyph name="afii10090" xMin="-17" yMin="0" xMax="1778" yMax="1050">
      <contour>
        <pt x="1778" y="1050" on="1"/>
        <pt x="1568" y="0" on="1"/>
        <pt x="1333" y="0" on="1"/>
        <pt x="1371" y="342" on="1"/>
        <pt x="1191" y="0" on="0"/>
        <pt x="963" y="0" on="1"/>
        <pt x="663" y="0" on="0"/>
        <pt x="732" y="344" on="1"/>
        <pt x="531" y="0" on="0"/>
        <pt x="305" y="0" on="1"/>
        <pt x="-17" y="0" on="0"/>
        <pt x="63" y="399" on="1"/>
        <pt x="193" y="1050" on="1"/>
        <pt x="458" y="1050" on="1"/>
        <pt x="326" y="389" on="1"/>
        <pt x="291" y="214" on="0"/>
        <pt x="409" y="214" on="1"/>
        <pt x="577" y="214" on="0"/>
        <pt x="753" y="550" on="1"/>
        <pt x="853" y="1050" on="1"/>
        <pt x="1118" y="1050" on="1"/>
        <pt x="986" y="392" on="1"/>
        <pt x="951" y="214" on="0"/>
        <pt x="1067" y="214" on="1"/>
        <pt x="1243" y="214" on="0"/>
        <pt x="1413" y="550" on="1"/>
        <pt x="1513" y="1050" on="1"/>
      </contour>
    </TTGlyph>
    <TTGlyph name="afii10091" xMin="-17" yMin="-380" xMax="1795" yMax="1050">
      <contour>
        <pt x="1600" y="160" on="1"/>
        <pt x="1795" y="210" on="1"/>
        <pt x="1736" y="-85" on="0"/>
        <pt x="1577" y="-380" on="1"/>
        <pt x="1312" y="-380" on="1"/>
        <pt x="1450" y="-190" on="0"/>
        <pt x="1498" y="50" on="1"/>
        <pt x="1333" y="0" on="1"/>
        <pt x="1371" y="342" on="1"/>
        <pt x="1191" y="0" on="0"/>
        <pt x="963" y="0" on="1"/>
        <pt x="663" y="0" on="0"/>
        <pt x="732" y="344" on="1"/>
        <pt x="531" y="0" on="0"/>
        <pt x="305" y="0" on="1"/>
        <pt x="-17" y="0" on="0"/>
        <pt x="63" y="399" on="1"/>
        <pt x="193" y="1050" on="1"/>
        <pt x="458" y="1050" on="1"/>
        <pt x="326" y="389" on="1"/>
        <pt x="291" y="214" on="0"/>
        <pt x="409" y="214" on="1"/>
        <pt x="577" y="214" on="0"/>
        <pt x="753" y="550" on="1"/>
        <pt x="853" y="1050" on="1"/>
        <pt x="1118" y="1050" on="1"/>
        <pt x="986" y="392" on="1"/>
        <pt x="951" y="214" on="0"/>
        <pt x="1067" y="214" on="1"/>
        <pt x="1243" y="214" on="0"/>
        <pt x="1413" y="550" on="1"/>
        <pt x="1513" y="1050" on="1"/>
        <pt x="1778" y="1050" on="1"/>
      </contour>
    </TTGlyph>
    <TTGlyph name="afii10092" xMin="26" yMin="0" xMax="1240" yMax="1050">
      <contour>
        <pt x="637" y="1050" on="1"/>
        <pt x="507" y="399" on="1"/>
        <pt x="470" y="213" on="0"/>
        <pt x="688" y="213" on="1"/>
        <pt x="886" y="213" on="0"/>
        <pt x="911" y="342" on="1"/>
        <pt x="931" y="439" on="0"/>
        <pt x="829" y="439" on="1"/>
        <pt x="651" y="439" on="1"/>
        <pt x="693" y="649" on="1"/>
        <pt x="881" y="649" on="1"/>
        <pt x="1240" y="649" on="0"/>
        <pt x="1179" y="343" on="1"/>
        <pt x="1110" y="0" on="0"/>
        <pt x="642" y="0" on="1"/>
        <pt x="162" y="0" on="0"/>
        <pt x="242" y="399" on="1"/>
        <pt x="330" y="840" on="1"/>
        <pt x="26" y="840" on="1"/>
        <pt x="68" y="1050" on="1"/>
      </contour>
    </TTGlyph>
    <TTGlyph name="afii10093" xMin="-17" yMin="0" xMax="1483" yMax="1050">
      <contour>
        <pt x="1008" y="0" on="1"/>
        <pt x="1218" y="1050" on="1"/>
        <pt x="1483" y="1050" on="1"/>
        <pt x="1273" y="0" on="1"/>
      </contour>
      <contour>
        <pt x="458" y="1050" on="1"/>
        <pt x="328" y="399" on="1"/>
        <pt x="291" y="213" on="0"/>
        <pt x="529" y="213" on="1"/>
        <pt x="707" y="213" on="0"/>
        <pt x="732" y="342" on="1"/>
        <pt x="752" y="439" on="0"/>
        <pt x="650" y="439" on="1"/>
        <pt x="472" y="439" on="1"/>
        <pt x="514" y="649" on="1"/>
        <pt x="701" y="649" on="1"/>
        <pt x="1061" y="649" on="0"/>
        <pt x="1000" y="343" on="1"/>
        <pt x="931" y="0" on="0"/>
        <pt x="483" y="0" on="1"/>
        <pt x="-17" y="0" on="0"/>
        <pt x="63" y="399" on="1"/>
        <pt x="193" y="1050" on="1"/>
      </contour>
    </TTGlyph>
    <TTGlyph name="afii10094" xMin="-17" yMin="0" xMax="1061" yMax="1050">
      <contour>
        <pt x="458" y="1050" on="1"/>
        <pt x="328" y="399" on="1"/>
        <pt x="291" y="213" on="0"/>
        <pt x="529" y="213" on="1"/>
        <pt x="707" y="213" on="0"/>
        <pt x="732" y="342" on="1"/>
        <pt x="752" y="439" on="0"/>
        <pt x="650" y="439" on="1"/>
        <pt x="472" y="439" on="1"/>
        <pt x="514" y="649" on="1"/>
        <pt x="701" y="649" on="1"/>
        <pt x="1061" y="649" on="0"/>
        <pt x="1000" y="343" on="1"/>
        <pt x="931" y="0" on="0"/>
        <pt x="483" y="0" on="1"/>
        <pt x="-17" y="0" on="0"/>
        <pt x="63" y="399" on="1"/>
        <pt x="193" y="1050" on="1"/>
      </contour>
    </TTGlyph>
    <TTGlyph name="afii10095" xMin="-61" yMin="0" xMax="973" yMax="1050">
      <contour>
        <pt x="-19" y="240" on="1"/>
        <pt x="105" y="210" on="0"/>
        <pt x="235" y="210" on="1"/>
        <pt x="504" y="210" on="0"/>
        <pt x="579" y="431" on="1"/>
        <pt x="83" y="431" on="1"/>
        <pt x="125" y="641" on="1"/>
        <pt x="622" y="641" on="1"/>
        <pt x="636" y="840" on="0"/>
        <pt x="361" y="840" on="1"/>
        <pt x="231" y="840" on="0"/>
        <pt x="95" y="810" on="1"/>
        <pt x="137" y="1020" on="1"/>
        <pt x="273" y="1050" on="0"/>
        <pt x="423" y="1050" on="1"/>
        <pt x="973" y="1050" on="0"/>
        <pt x="872" y="545" on="1"/>
        <pt x="763" y="0" on="0"/>
        <pt x="213" y="0" on="1"/>
        <pt x="63" y="0" on="0"/>
        <pt x="-61" y="30" on="1"/>
      </contour>
    </TTGlyph>
    <TTGlyph name="afii10096" xMin="-17" yMin="-10" xMax="1647" yMax="1060">
      <contour>
        <pt x="988" y="200" on="1"/>
        <pt x="1200" y="200" on="0"/>
        <pt x="1266" y="529" on="1"/>
        <pt x="1330" y="850" on="0"/>
        <pt x="1118" y="850" on="1"/>
        <pt x="895" y="850" on="0"/>
        <pt x="831" y="529" on="1"/>
        <pt x="765" y="200" on="0"/>
      </contour>
      <contour>
        <pt x="-17" y="0" on="1"/>
        <pt x="193" y="1050" on="1"/>
        <pt x="457" y="1050" on="1"/>
        <pt x="375" y="640" on="1"/>
        <pt x="581" y="640" on="1"/>
        <pt x="702" y="1060" on="0"/>
        <pt x="1160" y="1060" on="1"/>
        <pt x="1647" y="1060" on="0"/>
        <pt x="1540" y="523" on="1"/>
        <pt x="1433" y="-10" on="0"/>
        <pt x="946" y="-10" on="1"/>
        <pt x="477" y="-10" on="0"/>
        <pt x="538" y="430" on="1"/>
        <pt x="333" y="430" on="1"/>
        <pt x="247" y="0" on="1"/>
      </contour>
    </TTGlyph>
    <TTGlyph name="afii10097" xMin="-117" yMin="0" xMax="1063" yMax="1050">
      <contour>
        <pt x="588" y="0" on="1"/>
        <pt x="755" y="837" on="1"/>
        <pt x="502" y="837" on="1"/>
        <pt x="419" y="837" on="0"/>
        <pt x="402" y="749" on="1"/>
        <pt x="376" y="619" on="0"/>
        <pt x="587" y="574" on="1"/>
        <pt x="559" y="433" on="1"/>
        <pt x="189" y="0" on="1"/>
        <pt x="-117" y="0" on="1"/>
        <pt x="294" y="449" on="1"/>
        <pt x="88" y="566" on="0"/>
        <pt x="135" y="802" on="1"/>
        <pt x="185" y="1050" on="0"/>
        <pt x="523" y="1050" on="1"/>
        <pt x="1063" y="1050" on="1"/>
        <pt x="853" y="0" on="1"/>
      </contour>
    </TTGlyph>
    <TTGlyph name="agrave" xMin="-67" yMin="0" xMax="1121" yMax="1430">
      <component glyphName="a" x="0" y="0" flags="0x200"/>
      <component glyphName="grave" x="210" y="0" flags="0x0"/>
    </TTGlyph>
    <TTGlyph name="alpha" xMin="-80" yMin="0" xMax="1397" yMax="1050">
      <contour>
        <pt x="23" y="525" on="1"/>
        <pt x="128" y="1050" on="0"/>
        <pt x="618" y="1050" on="1"/>
        <pt x="929" y="1050" on="0"/>
        <pt x="989" y="786" on="1"/>
        <pt x="1130" y="1050" on="1"/>
        <pt x="1397" y="1050" on="1"/>
        <pt x="1113" y="522" on="1"/>
        <pt x="1173" y="0" on="1"/>
        <pt x="903" y="0" on="1"/>
        <pt x="875" y="290" on="1"/>
        <pt x="691" y="0" on="0"/>
        <pt x="408" y="0" on="1"/>
        <pt x="-80" y="0" on="0"/>
      </contour>
      <contour>
        <pt x="225" y="210" on="0"/>
        <pt x="450" y="210" on="1"/>
        <pt x="645" y="210" on="0"/>
        <pt x="819" y="529" on="1"/>
        <pt x="771" y="840" on="0"/>
        <pt x="576" y="840" on="1"/>
        <pt x="351" y="840" on="0"/>
        <pt x="289" y="529" on="1"/>
      </contour>
    </TTGlyph>
    <TTGlyph name="alphatonos" xMin="-80" yMin="0" xMax="1397" yMax="1430">
      <component glyphName="alpha" x="0" y="0" flags="0x200"/>
      <component glyphName="tonos" x="440" y="0" flags="0x0"/>
    </TTGlyph>
    <TTGlyph name="amacron" xMin="-67" yMin="0" xMax="1121" yMax="1430">
      <component glyphName="a" x="0" y="0" flags="0x200"/>
      <component glyphName="macron" x="249" y="0" flags="0x0"/>
    </TTGlyph>
    <TTGlyph name="ampersand" xMin="-43" yMin="-3" xMax="1359" yMax="1430">
      <contour>
        <pt x="165" y="1035" on="1"/>
        <pt x="244" y="1430" on="0"/>
        <pt x="754" y="1430" on="1"/>
        <pt x="939" y="1430" on="0"/>
        <pt x="1104" y="1380" on="1"/>
        <pt x="1062" y="1170" on="1"/>
        <pt x="897" y="1220" on="0"/>
        <pt x="725" y="1220" on="1"/>
        <pt x="467" y="1220" on="0"/>
        <pt x="431" y="1040" on="1"/>
        <pt x="389" y="830" on="0"/>
        <pt x="594" y="830" on="1"/>
        <pt x="932" y="830" on="1"/>
        <pt x="960" y="972" on="1"/>
        <pt x="1103" y="972" on="1"/>
        <pt x="1177" y="830" on="1"/>
        <pt x="1359" y="830" on="1"/>
        <pt x="1317" y="620" on="1"/>
        <pt x="1155" y="620" on="1"/>
        <pt x="1129" y="490" on="1"/>
        <pt x="1030" y="-3" on="0"/>
        <pt x="482" y="-3" on="1"/>
        <pt x="-43" y="-3" on="0"/>
        <pt x="40" y="414" on="1"/>
        <pt x="86" y="641" on="0"/>
        <pt x="286" y="727" on="1"/>
        <pt x="120" y="812" on="0"/>
      </contour>
      <contour>
        <pt x="554" y="620" on="1"/>
        <pt x="347" y="620" on="0"/>
        <pt x="306" y="419" on="1"/>
        <pt x="265" y="210" on="0"/>
        <pt x="526" y="210" on="1"/>
        <pt x="808" y="210" on="0"/>
        <pt x="864" y="492" on="1"/>
        <pt x="890" y="620" on="1"/>
      </contour>
    </TTGlyph>
    <TTGlyph name="anoteleia" xMin="119" yMin="805" xMax="433" yMax="1050">
      <contour>
        <pt x="433" y="1050" on="1"/>
        <pt x="384" y="805" on="1"/>
        <pt x="119" y="805" on="1"/>
        <pt x="168" y="1050" on="1"/>
      </contour>
    </TTGlyph>
    <TTGlyph name="aogonek" xMin="-67" yMin="-426" xMax="1121" yMax="1050">
      <contour>
        <pt x="817" y="812" on="1"/>
        <pt x="757" y="836" on="0"/>
        <pt x="617" y="836" on="1"/>
        <pt x="362" y="836" on="0"/>
        <pt x="298" y="513" on="1"/>
        <pt x="239" y="220" on="0"/>
        <pt x="396" y="220" on="1"/>
        <pt x="590" y="220" on="0"/>
        <pt x="754" y="494" on="1"/>
      </contour>
      <contour>
        <pt x="685" y="0" on="1"/>
        <pt x="709" y="270" on="1"/>
        <pt x="537" y="0" on="0"/>
        <pt x="301" y="0" on="1"/>
        <pt x="-67" y="0" on="0"/>
        <pt x="35" y="511" on="1"/>
        <pt x="143" y="1050" on="0"/>
        <pt x="688" y="1050" on="1"/>
        <pt x="871" y="1050" on="0"/>
        <pt x="1121" y="1007" on="1"/>
        <pt x="920" y="0" on="1"/>
        <pt x="663" y="-96" on="0"/>
        <pt x="642" y="-198" on="1"/>
        <pt x="629" y="-266" on="0"/>
        <pt x="714" y="-266" on="1"/>
        <pt x="799" y="-266" on="0"/>
        <pt x="855" y="-246" on="1"/>
        <pt x="823" y="-406" on="1"/>
        <pt x="758" y="-426" on="0"/>
        <pt x="670" y="-426" on="1"/>
        <pt x="409" y="-426" on="0"/>
        <pt x="449" y="-223" on="1"/>
        <pt x="476" y="-92" on="0"/>
      </contour>
    </TTGlyph>
    <TTGlyph name="approxequal" xMin="8" yMin="200" xMax="968" yMax="850">
      <contour>
        <pt x="900" y="460" on="1"/>
        <pt x="858" y="250" on="1"/>
        <pt x="737" y="200" on="0"/>
        <pt x="628" y="200" on="1"/>
        <pt x="519" y="200" on="0"/>
        <pt x="423" y="250" on="1"/>
        <pt x="327" y="300" on="0"/>
        <pt x="223" y="300" on="1"/>
        <pt x="120" y="300" on="0"/>
        <pt x="8" y="250" on="1"/>
        <pt x="50" y="460" on="1"/>
        <pt x="172" y="510" on="0"/>
        <pt x="280" y="510" on="1"/>
        <pt x="389" y="510" on="0"/>
        <pt x="485" y="460" on="1"/>
        <pt x="581" y="410" on="0"/>
        <pt x="685" y="410" on="1"/>
        <pt x="789" y="410" on="0"/>
      </contour>
      <contour>
        <pt x="968" y="800" on="1"/>
        <pt x="926" y="590" on="1"/>
        <pt x="805" y="540" on="0"/>
        <pt x="696" y="540" on="1"/>
        <pt x="587" y="540" on="0"/>
        <pt x="491" y="590" on="1"/>
        <pt x="395" y="640" on="0"/>
        <pt x="291" y="640" on="1"/>
        <pt x="188" y="640" on="0"/>
        <pt x="76" y="590" on="1"/>
        <pt x="118" y="800" on="1"/>
        <pt x="240" y="850" on="0"/>
        <pt x="348" y="850" on="1"/>
        <pt x="457" y="850" on="0"/>
        <pt x="553" y="800" on="1"/>
        <pt x="649" y="750" on="0"/>
        <pt x="753" y="750" on="1"/>
        <pt x="857" y="750" on="0"/>
      </contour>
    </TTGlyph>
    <TTGlyph name="aring" xMin="-67" yMin="0" xMax="1121" yMax="1571">
      <component glyphName="a" x="0" y="0" flags="0x200"/>
      <component glyphName="ring" x="293" y="0" flags="0x0"/>
    </TTGlyph>
    <TTGlyph name="asciicircum" xMin="48" yMin="700" xMax="998" yMax="1430">
      <contour>
        <pt x="594" y="1430" on="1"/>
        <pt x="744" y="1430" on="1"/>
        <pt x="998" y="700" on="1"/>
        <pt x="768" y="700" on="1"/>
        <pt x="614" y="1173" on="1"/>
        <pt x="278" y="700" on="1"/>
        <pt x="48" y="700" on="1"/>
      </contour>
    </TTGlyph>
    <TTGlyph name="asciitilde" xMin="38" yMin="380" xMax="838" yMax="671">
      <contour>
        <pt x="80" y="610" on="1"/>
        <pt x="150" y="671" on="0"/>
        <pt x="254" y="671" on="1"/>
        <pt x="340" y="671" on="0"/>
        <pt x="449" y="630" on="1"/>
        <pt x="558" y="590" on="0"/>
        <pt x="648" y="590" on="1"/>
        <pt x="757" y="590" on="0"/>
        <pt x="838" y="650" on="1"/>
        <pt x="796" y="440" on="1"/>
        <pt x="726" y="380" on="0"/>
        <pt x="622" y="380" on="1"/>
        <pt x="536" y="380" on="0"/>
        <pt x="427" y="420" on="1"/>
        <pt x="318" y="461" on="0"/>
        <pt x="228" y="461" on="1"/>
        <pt x="119" y="461" on="0"/>
        <pt x="38" y="400" on="1"/>
      </contour>
    </TTGlyph>
    <TTGlyph name="asterisk" xMin="188" yMin="847" xMax="799" yMax="1430">
      <contour>
        <pt x="472" y="1430" on="1"/>
        <pt x="628" y="1430" on="1"/>
        <pt x="552" y="1198" on="1"/>
        <pt x="781" y="1299" on="1"/>
        <pt x="799" y="1152" on="1"/>
        <pt x="563" y="1109" on="1"/>
        <pt x="688" y="939" on="1"/>
        <pt x="546" y="847" on="1"/>
        <pt x="474" y="1052" on="1"/>
        <pt x="321" y="848" on="1"/>
        <pt x="214" y="937" on="1"/>
        <pt x="410" y="1108" on="1"/>
        <pt x="188" y="1150" on="1"/>
        <pt x="266" y="1300" on="1"/>
        <pt x="456" y="1197" on="1"/>
      </contour>
    </TTGlyph>
    <TTGlyph name="at" xMin="-118" yMin="-380" xMax="2236" yMax="1440">
      <contour>
        <pt x="1325" y="812" on="1"/>
        <pt x="1265" y="836" on="0"/>
        <pt x="1125" y="836" on="1"/>
        <pt x="870" y="836" on="0"/>
        <pt x="806" y="513" on="1"/>
        <pt x="747" y="220" on="0"/>
        <pt x="904" y="220" on="1"/>
        <pt x="1098" y="220" on="0"/>
        <pt x="1262" y="494" on="1"/>
      </contour>
      <contour>
        <pt x="1452" y="118" on="1"/>
        <pt x="1440" y="60" on="0"/>
        <pt x="1520" y="60" on="1"/>
        <pt x="1695" y="60" on="0"/>
        <pt x="1791" y="540" on="1"/>
        <pt x="1929" y="1230" on="0"/>
        <pt x="1213" y="1230" on="1"/>
        <pt x="469" y="1230" on="0"/>
        <pt x="331" y="540" on="1"/>
        <pt x="189" y="-170" on="0"/>
        <pt x="864" y="-170" on="1"/>
        <pt x="822" y="-380" on="1"/>
        <pt x="-118" y="-380" on="0"/>
        <pt x="66" y="540" on="1"/>
        <pt x="246" y="1440" on="0"/>
        <pt x="1240" y="1440" on="1"/>
        <pt x="2236" y="1440" on="0"/>
        <pt x="2056" y="540" on="1"/>
        <pt x="1918" y="-150" on="0"/>
        <pt x="1441" y="-150" on="1"/>
        <pt x="1140" y="-150" on="0"/>
        <pt x="1185" y="74" on="1"/>
        <pt x="1213" y="224" on="1"/>
        <pt x="1217" y="270" on="1"/>
        <pt x="1045" y="0" on="0"/>
        <pt x="809" y="0" on="1"/>
        <pt x="441" y="0" on="0"/>
        <pt x="543" y="511" on="1"/>
        <pt x="651" y="1050" on="0"/>
        <pt x="1196" y="1050" on="1"/>
        <pt x="1379" y="1050" on="0"/>
        <pt x="1629" y="1007" on="1"/>
      </contour>
    </TTGlyph>
    <TTGlyph name="atilde" xMin="-67" yMin="0" xMax="1121" yMax="1430">
      <component glyphName="a" x="0" y="0" flags="0x200"/>
      <component glyphName="tilde" x="269" y="0" flags="0x0"/>
    </TTGlyph>
    <TTGlyph name="b" xMin="-8" yMin="0" xMax="1171" yMax="1430">
      <contour>
        <pt x="297" y="243" on="1"/>
        <pt x="382" y="214" on="0"/>
        <pt x="502" y="214" on="1"/>
        <pt x="742" y="214" on="0"/>
        <pt x="812" y="563" on="1"/>
        <pt x="865" y="830" on="0"/>
        <pt x="688" y="830" on="1"/>
        <pt x="524" y="830" on="0"/>
        <pt x="364" y="576" on="1"/>
      </contour>
      <contour>
        <pt x="269" y="1430" on="1"/>
        <pt x="534" y="1430" on="1"/>
        <pt x="408" y="800" on="1"/>
        <pt x="577" y="1050" on="0"/>
        <pt x="823" y="1050" on="1"/>
        <pt x="1171" y="1050" on="0"/>
        <pt x="1075" y="566" on="1"/>
        <pt x="961" y="0" on="0"/>
        <pt x="448" y="0" on="1"/>
        <pt x="232" y="0" on="0"/>
        <pt x="-8" y="43" on="1"/>
      </contour>
    </TTGlyph>
    <TTGlyph name="backslash" xMin="169" yMin="0" xMax="883" yMax="1430">
      <contour>
        <pt x="169" y="1430" on="1"/>
        <pt x="444" y="1430" on="1"/>
        <pt x="883" y="0" on="1"/>
        <pt x="608" y="0" on="1"/>
      </contour>
    </TTGlyph>
    <TTGlyph name="bar" xMin="-68" yMin="-380" xMax="559" yMax="1430">
      <contour>
        <pt x="559" y="1430" on="1"/>
        <pt x="197" y="-380" on="1"/>
        <pt x="-68" y="-380" on="1"/>
        <pt x="294" y="1430" on="1"/>
      </contour>
    </TTGlyph>
    <TTGlyph name="beta" xMin="-89" yMin="-362" xMax="1293" yMax="1430">
      <contour>
        <pt x="-89" y="-362" on="1"/>
        <pt x="158" y="871" on="1"/>
        <pt x="269" y="1430" on="0"/>
        <pt x="843" y="1430" on="1"/>
        <pt x="1293" y="1430" on="0"/>
        <pt x="1218" y="1054" on="1"/>
        <pt x="1172" y="822" on="0"/>
        <pt x="828" y="759" on="1"/>
        <pt x="1219" y="722" on="0"/>
        <pt x="1151" y="381" on="1"/>
        <pt x="1074" y="-2" on="0"/>
        <pt x="580" y="-2" on="1"/>
        <pt x="444" y="-2" on="0"/>
        <pt x="350" y="58" on="1"/>
        <pt x="392" y="268" on="1"/>
        <pt x="487" y="208" on="0"/>
        <pt x="624" y="208" on="1"/>
        <pt x="851" y="208" on="0"/>
        <pt x="886" y="381" on="1"/>
        <pt x="939" y="649" on="0"/>
        <pt x="568" y="650" on="1"/>
        <pt x="604" y="828" on="1"/>
        <pt x="933" y="882" on="0"/>
        <pt x="967" y="1054" on="1"/>
        <pt x="1000" y="1220" on="0"/>
        <pt x="784" y="1220" on="1"/>
        <pt x="492" y="1220" on="0"/>
        <pt x="422" y="868" on="1"/>
        <pt x="176" y="-362" on="1"/>
      </contour>
    </TTGlyph>
    <TTGlyph name="braceleft" xMin="40" yMin="-380" xMax="849" yMax="1430">
      <contour>
        <pt x="849" y="1430" on="1"/>
        <pt x="684" y="1254" on="0"/>
        <pt x="623" y="952" on="1"/>
        <pt x="553" y="600" on="0"/>
        <pt x="288" y="525" on="1"/>
        <pt x="523" y="450" on="0"/>
        <pt x="453" y="98" on="1"/>
        <pt x="392" y="-204" on="0"/>
        <pt x="487" y="-380" on="1"/>
        <pt x="222" y="-380" on="1"/>
        <pt x="127" y="-204" on="0"/>
        <pt x="188" y="98" on="1"/>
        <pt x="250" y="410" on="0"/>
        <pt x="40" y="410" on="1"/>
        <pt x="86" y="640" on="1"/>
        <pt x="296" y="640" on="0"/>
        <pt x="358" y="952" on="1"/>
        <pt x="419" y="1254" on="0"/>
        <pt x="584" y="1430" on="1"/>
      </contour>
    </TTGlyph>
    <TTGlyph name="braceright" xMin="-168" yMin="-380" xMax="641" yMax="1430">
      <contour>
        <pt x="459" y="1430" on="1"/>
        <pt x="554" y="1254" on="0"/>
        <pt x="493" y="952" on="1"/>
        <pt x="431" y="640" on="0"/>
        <pt x="641" y="640" on="1"/>
        <pt x="595" y="410" on="1"/>
        <pt x="385" y="410" on="0"/>
        <pt x="323" y="98" on="1"/>
        <pt x="262" y="-204" on="0"/>
        <pt x="97" y="-380" on="1"/>
        <pt x="-168" y="-380" on="1"/>
        <pt x="-3" y="-204" on="0"/>
        <pt x="58" y="98" on="1"/>
        <pt x="128" y="450" on="0"/>
        <pt x="313" y="525" on="1"/>
        <pt x="158" y="600" on="0"/>
        <pt x="228" y="952" on="1"/>
        <pt x="289" y="1254" on="0"/>
        <pt x="194" y="1430" on="1"/>
      </contour>
    </TTGlyph>
    <TTGlyph name="bracketleft" xMin="-118" yMin="-380" xMax="774" yMax="1430">
      <contour>
        <pt x="774" y="1430" on="1"/>
        <pt x="732" y="1220" on="1"/>
        <pt x="467" y="1220" on="1"/>
        <pt x="189" y="-170" on="1"/>
        <pt x="454" y="-170" on="1"/>
        <pt x="412" y="-380" on="1"/>
        <pt x="-118" y="-380" on="1"/>
        <pt x="244" y="1430" on="1"/>
      </contour>
    </TTGlyph>
    <TTGlyph name="bracketright" xMin="-168" yMin="-380" xMax="724" yMax="1430">
      <contour>
        <pt x="724" y="1430" on="1"/>
        <pt x="362" y="-380" on="1"/>
        <pt x="-168" y="-380" on="1"/>
        <pt x="-126" y="-170" on="1"/>
        <pt x="139" y="-170" on="1"/>
        <pt x="417" y="1220" on="1"/>
        <pt x="152" y="1220" on="1"/>
        <pt x="194" y="1430" on="1"/>
      </contour>
    </TTGlyph>
    <TTGlyph name="breve" xMin="186" yMin="1140" xMax="834" yMax="1430">
      <contour>
        <pt x="244" y="1430" on="1"/>
        <pt x="419" y="1430" on="1"/>
        <pt x="391" y="1290" on="0"/>
        <pt x="511" y="1290" on="1"/>
        <pt x="631" y="1290" on="0"/>
        <pt x="659" y="1430" on="1"/>
        <pt x="834" y="1430" on="1"/>
        <pt x="776" y="1140" on="0"/>
        <pt x="481" y="1140" on="1"/>
        <pt x="186" y="1140" on="0"/>
      </contour>
    </TTGlyph>
    <TTGlyph name="brokenbar" xMin="-68" yMin="-380" xMax="558" yMax="1430">
      <contour>
        <pt x="343" y="350" on="1"/>
        <pt x="197" y="-380" on="1"/>
        <pt x="-68" y="-380" on="1"/>
        <pt x="78" y="350" on="1"/>
      </contour>
      <contour>
        <pt x="558" y="1430" on="1"/>
        <pt x="412" y="700" on="1"/>
        <pt x="148" y="700" on="1"/>
        <pt x="294" y="1430" on="1"/>
      </contour>
    </TTGlyph>
    <TTGlyph name="bullet" xMin="60" yMin="510" xMax="576" yMax="940">
      <contour>
        <pt x="103" y="725" on="1"/>
        <pt x="146" y="940" on="0"/>
        <pt x="361" y="940" on="1"/>
        <pt x="576" y="940" on="0"/>
        <pt x="533" y="725" on="1"/>
        <pt x="490" y="510" on="0"/>
        <pt x="275" y="510" on="1"/>
        <pt x="60" y="510" on="0"/>
      </contour>
    </TTGlyph>
    <TTGlyph name="c" xMin="-82" yMin="0" xMax="942" yMax="1050">
      <contour>
        <pt x="764" y="130" on="1"/>
        <pt x="608" y="0" on="0"/>
        <pt x="418" y="0" on="1"/>
        <pt x="-82" y="0" on="0"/>
        <pt x="25" y="535" on="1"/>
        <pt x="128" y="1050" on="0"/>
        <pt x="668" y="1050" on="1"/>
        <pt x="818" y="1050" on="0"/>
        <pt x="942" y="1020" on="1"/>
        <pt x="900" y="810" on="1"/>
        <pt x="776" y="840" on="0"/>
        <pt x="646" y="840" on="1"/>
        <pt x="351" y="840" on="0"/>
        <pt x="290" y="535" on="1"/>
        <pt x="225" y="210" on="0"/>
        <pt x="480" y="210" on="1"/>
        <pt x="650" y="210" on="0"/>
        <pt x="806" y="340" on="1"/>
      </contour>
    </TTGlyph>
    <TTGlyph name="cacute" xMin="-82" yMin="0" xMax="953" yMax="1430">
      <component glyphName="c" x="0" y="0" flags="0x200"/>
      <component glyphName="acute" x="246" y="0" flags="0x0"/>
    </TTGlyph>
    <TTGlyph name="caron" xMin="244" yMin="1170" xMax="744" yMax="1430">
      <contour>
        <pt x="244" y="1430" on="1"/>
        <pt x="424" y="1430" on="1"/>
        <pt x="468" y="1300" on="1"/>
        <pt x="564" y="1430" on="1"/>
        <pt x="744" y="1430" on="1"/>
        <pt x="517" y="1170" on="1"/>
        <pt x="367" y="1170" on="1"/>
      </contour>
    </TTGlyph>
    <TTGlyph name="ccaron" xMin="-82" yMin="0" xMax="942" yMax="1430">
      <component glyphName="c" x="0" y="0" flags="0x200"/>
      <component glyphName="caron" x="140" y="0" flags="0x0"/>
    </TTGlyph>
    <TTGlyph name="ccedilla" xMin="-68" yMin="-422" xMax="942" yMax="1050">
      <contour>
        <pt x="294" y="10" on="1"/>
        <pt x="-68" y="72" on="0"/>
        <pt x="25" y="535" on="1"/>
        <pt x="128" y="1050" on="0"/>
        <pt x="668" y="1050" on="1"/>
        <pt x="818" y="1050" on="0"/>
        <pt x="942" y="1020" on="1"/>
        <pt x="900" y="810" on="1"/>
        <pt x="776" y="840" on="0"/>
        <pt x="646" y="840" on="1"/>
        <pt x="351" y="840" on="0"/>
        <pt x="290" y="535" on="1"/>
        <pt x="225" y="210" on="0"/>
        <pt x="480" y="210" on="1"/>
        <pt x="650" y="210" on="0"/>
        <pt x="806" y="340" on="1"/>
        <pt x="764" y="130" on="1"/>
        <pt x="621" y="11" on="0"/>
        <pt x="450" y="1" on="1"/>
        <pt x="392" y="-77" on="1"/>
        <pt x="606" y="-77" on="0"/>
        <pt x="574" y="-239" on="1"/>
        <pt x="537" y="-422" on="0"/>
        <pt x="266" y="-422" on="1"/>
        <pt x="158" y="-422" on="0"/>
        <pt x="60" y="-372" on="1"/>
        <pt x="86" y="-244" on="1"/>
        <pt x="184" y="-294" on="0"/>
        <pt x="292" y="-294" on="1"/>
        <pt x="400" y="-294" on="0"/>
        <pt x="411" y="-239" on="1"/>
        <pt x="420" y="-195" on="0"/>
        <pt x="337" y="-195" on="1"/>
        <pt x="154" y="-195" on="1"/>
      </contour>
    </TTGlyph>
    <TTGlyph name="ccircumflex" xMin="-82" yMin="0" xMax="942" yMax="1430">
      <component glyphName="c" x="0" y="0" flags="0x200"/>
      <component glyphName="circumflex" x="160" y="0" flags="0x0"/>
    </TTGlyph>
    <TTGlyph name="cdotaccent" xMin="-82" yMin="0" xMax="942" yMax="1430">
      <component glyphName="c" x="0" y="0" flags="0x200"/>
      <component glyphName="dotaccent" x="293" y="0" flags="0x0"/>
    </TTGlyph>
    <TTGlyph name="cedilla" xMin="-116" yMin="-422" xMax="430" yMax="75">
      <contour>
        <pt x="-90" y="-244" on="1"/>
        <pt x="8" y="-294" on="0"/>
        <pt x="116" y="-294" on="1"/>
        <pt x="224" y="-294" on="0"/>
        <pt x="235" y="-239" on="1"/>
        <pt x="243" y="-195" on="0"/>
        <pt x="160" y="-195" on="1"/>
        <pt x="-23" y="-195" on="1"/>
        <pt x="162" y="75" on="1"/>
        <pt x="327" y="75" on="1"/>
        <pt x="216" y="-77" on="1"/>
        <pt x="430" y="-77" on="0"/>
        <pt x="398" y="-239" on="1"/>
        <pt x="361" y="-422" on="0"/>
        <pt x="90" y="-422" on="1"/>
        <pt x="-18" y="-422" on="0"/>
        <pt x="-116" y="-372" on="1"/>
      </contour>
    </TTGlyph>
    <TTGlyph name="cent" xMin="-29" yMin="0" xMax="981" yMax="1430">
      <contour>
        <pt x="543" y="1230" on="1"/>
        <pt x="583" y="1430" on="1"/>
        <pt x="838" y="1430" on="1"/>
        <pt x="801" y="1241" on="1"/>
        <pt x="897" y="1234" on="0"/>
        <pt x="981" y="1214" on="1"/>
        <pt x="939" y="1004" on="1"/>
        <pt x="815" y="1034" on="0"/>
        <pt x="685" y="1034" on="1"/>
        <pt x="390" y="1034" on="0"/>
        <pt x="329" y="729" on="1"/>
        <pt x="264" y="404" on="0"/>
        <pt x="519" y="404" on="1"/>
        <pt x="689" y="404" on="0"/>
        <pt x="845" y="534" on="1"/>
        <pt x="803" y="324" on="1"/>
        <pt x="706" y="243" on="0"/>
        <pt x="595" y="212" on="1"/>
        <pt x="552" y="0" on="1"/>
        <pt x="297" y="0" on="1"/>
        <pt x="338" y="203" on="1"/>
        <pt x="-29" y="263" on="0"/>
        <pt x="64" y="729" on="1"/>
        <pt x="150" y="1160" on="0"/>
      </contour>
    </TTGlyph>
    <TTGlyph name="chi" xMin="-193" yMin="-380" xMax="1213" yMax="1050">
      <contour>
        <pt x="373" y="335" on="1"/>
        <pt x="93" y="1050" on="1"/>
        <pt x="378" y="1050" on="1"/>
        <pt x="559" y="556" on="1"/>
        <pt x="938" y="1050" on="1"/>
        <pt x="1213" y="1050" on="1"/>
        <pt x="655" y="343" on="1"/>
        <pt x="937" y="-380" on="1"/>
        <pt x="652" y="-380" on="1"/>
        <pt x="467" y="122" on="1"/>
        <pt x="82" y="-380" on="1"/>
        <pt x="-193" y="-380" on="1"/>
      </contour>
    </TTGlyph>
    <TTGlyph name="circumflex" xMin="192" yMin="1170" xMax="692" yMax="1430">
      <contour>
        <pt x="419" y="1430" on="1"/>
        <pt x="569" y="1430" on="1"/>
        <pt x="692" y="1170" on="1"/>
        <pt x="512" y="1170" on="1"/>
        <pt x="468" y="1300" on="1"/>
        <pt x="372" y="1170" on="1"/>
        <pt x="192" y="1170" on="1"/>
      </contour>
    </TTGlyph>
    <TTGlyph name="colon" xMin="-17" yMin="0" xMax="458" yMax="1050">
      <contour>
        <pt x="458" y="1050" on="1"/>
        <pt x="409" y="805" on="1"/>
        <pt x="144" y="805" on="1"/>
        <pt x="193" y="1050" on="1"/>
      </contour>
      <contour>
        <pt x="297" y="245" on="1"/>
        <pt x="248" y="0" on="1"/>
        <pt x="-17" y="0" on="1"/>
        <pt x="32" y="245" on="1"/>
      </contour>
    </TTGlyph>
    <TTGlyph name="comma" xMin="-167" yMin="-250" xMax="335" yMax="185">
      <contour>
        <pt x="335" y="185" on="1"/>
        <pt x="98" y="-250" on="1"/>
        <pt x="-167" y="-250" on="1"/>
        <pt x="70" y="185" on="1"/>
      </contour>
    </TTGlyph>
    <TTGlyph name="commaccent" xMin="-193" yMin="-380" xMax="278" yMax="-100">
      <contour>
        <pt x="278" y="-100" on="1"/>
        <pt x="72" y="-380" on="1"/>
        <pt x="-193" y="-380" on="1"/>
        <pt x="13" y="-100" on="1"/>
      </contour>
    </TTGlyph>
    <TTGlyph name="copyright" xMin="6" yMin="-10" xMax="1781" yMax="1440">
      <contour>
        <pt x="129" y="80" on="0"/>
        <pt x="752" y="80" on="1"/>
        <pt x="1404" y="80" on="0"/>
        <pt x="1532" y="719" on="1"/>
        <pt x="1658" y="1350" on="0"/>
        <pt x="1026" y="1350" on="1"/>
        <pt x="383" y="1350" on="0"/>
        <pt x="257" y="719" on="1"/>
      </contour>
      <contour>
        <pt x="153" y="723" on="1"/>
        <pt x="296" y="1440" on="0"/>
        <pt x="1044" y="1440" on="1"/>
        <pt x="1781" y="1440" on="0"/>
        <pt x="1638" y="723" on="1"/>
        <pt x="1491" y="-10" on="0"/>
        <pt x="754" y="-10" on="1"/>
        <pt x="6" y="-10" on="0"/>
      </contour>
      <contour>
        <pt x="1108" y="336" on="1"/>
        <pt x="973" y="285" on="0"/>
        <pt x="808" y="285" on="1"/>
        <pt x="392" y="285" on="0"/>
        <pt x="481" y="728" on="1"/>
        <pt x="564" y="1144" on="0"/>
        <pt x="980" y="1144" on="1"/>
        <pt x="1145" y="1144" on="0"/>
        <pt x="1260" y="1093" on="1"/>
        <pt x="1240" y="995" on="1"/>
        <pt x="1127" y="1053" on="0"/>
        <pt x="976" y="1053" on="1"/>
        <pt x="651" y="1053" on="0"/>
        <pt x="586" y="728" on="1"/>
        <pt x="515" y="376" on="0"/>
        <pt x="840" y="376" on="1"/>
        <pt x="991" y="376" on="0"/>
        <pt x="1128" y="434" on="1"/>
      </contour>
    </TTGlyph>
    <TTGlyph name="currency" xMin="-7" yMin="61" xMax="1073" yMax="988">
      <contour>
        <pt x="226" y="756" on="1"/>
        <pt x="134" y="876" on="1"/>
        <pt x="265" y="988" on="1"/>
        <pt x="366" y="867" on="1"/>
        <pt x="487" y="935" on="0"/>
        <pt x="621" y="935" on="1"/>
        <pt x="745" y="935" on="0"/>
        <pt x="833" y="867" on="1"/>
        <pt x="985" y="988" on="1"/>
        <pt x="1073" y="876" on="1"/>
        <pt x="931" y="756" on="1"/>
        <pt x="972" y="673" on="0"/>
        <pt x="942" y="525" on="1"/>
        <pt x="915" y="386" on="0"/>
        <pt x="828" y="293" on="1"/>
        <pt x="932" y="173" on="1"/>
        <pt x="800" y="61" on="1"/>
        <pt x="696" y="184" on="1"/>
        <pt x="576" y="124" on="0"/>
        <pt x="451" y="124" on="1"/>
        <pt x="327" y="124" on="0"/>
        <pt x="220" y="184" on="1"/>
        <pt x="80" y="61" on="1"/>
        <pt x="-7" y="173" on="1"/>
        <pt x="133" y="293" on="1"/>
        <pt x="97" y="396" on="0"/>
        <pt x="122" y="525" on="1"/>
        <pt x="150" y="662" on="0"/>
      </contour>
      <contour>
        <pt x="286" y="529" on="1"/>
        <pt x="237" y="283" on="0"/>
        <pt x="482" y="283" on="1"/>
        <pt x="727" y="283" on="0"/>
        <pt x="776" y="529" on="1"/>
        <pt x="825" y="773" on="0"/>
        <pt x="580" y="773" on="1"/>
        <pt x="335" y="773" on="0"/>
      </contour>
    </TTGlyph>
    <TTGlyph name="d" xMin="-67" yMin="0" xMax="1206" yMax="1430">
      <contour>
        <pt x="817" y="812" on="1"/>
        <pt x="757" y="836" on="0"/>
        <pt x="617" y="836" on="1"/>
        <pt x="362" y="836" on="0"/>
        <pt x="298" y="513" on="1"/>
        <pt x="239" y="220" on="0"/>
        <pt x="396" y="220" on="1"/>
        <pt x="590" y="220" on="0"/>
        <pt x="754" y="494" on="1"/>
      </contour>
      <contour>
        <pt x="920" y="0" on="1"/>
        <pt x="685" y="0" on="1"/>
        <pt x="709" y="270" on="1"/>
        <pt x="537" y="0" on="0"/>
        <pt x="301" y="0" on="1"/>
        <pt x="-67" y="0" on="0"/>
        <pt x="35" y="511" on="1"/>
        <pt x="143" y="1050" on="0"/>
        <pt x="688" y="1050" on="1"/>
        <pt x="769" y="1050" on="0"/>
        <pt x="863" y="1042" on="1"/>
        <pt x="941" y="1430" on="1"/>
        <pt x="1206" y="1430" on="1"/>
      </contour>
    </TTGlyph>
    <TTGlyph name="dagger" xMin="64" yMin="0" xMax="1125" yMax="1430">
      <contour>
        <pt x="839" y="1430" on="1"/>
        <pt x="755" y="1010" on="1"/>
        <pt x="1125" y="1010" on="1"/>
        <pt x="1079" y="780" on="1"/>
        <pt x="709" y="780" on="1"/>
        <pt x="553" y="0" on="1"/>
        <pt x="288" y="0" on="1"/>
        <pt x="444" y="780" on="1"/>
        <pt x="64" y="780" on="1"/>
        <pt x="110" y="1010" on="1"/>
        <pt x="490" y="1010" on="1"/>
        <pt x="574" y="1430" on="1"/>
      </contour>
    </TTGlyph>
    <TTGlyph name="daggerdbl" xMin="-92" yMin="-380" xMax="1063" yMax="1430">
      <contour>
        <pt x="799" y="1430" on="1"/>
        <pt x="723" y="1050" on="1"/>
        <pt x="1063" y="1050" on="1"/>
        <pt x="1021" y="840" on="1"/>
        <pt x="681" y="840" on="1"/>
        <pt x="555" y="210" on="1"/>
        <pt x="895" y="210" on="1"/>
        <pt x="853" y="0" on="1"/>
        <pt x="513" y="0" on="1"/>
        <pt x="437" y="-380" on="1"/>
        <pt x="172" y="-380" on="1"/>
        <pt x="248" y="0" on="1"/>
        <pt x="-92" y="0" on="1"/>
        <pt x="-50" y="210" on="1"/>
        <pt x="290" y="210" on="1"/>
        <pt x="416" y="840" on="1"/>
        <pt x="76" y="840" on="1"/>
        <pt x="118" y="1050" on="1"/>
        <pt x="458" y="1050" on="1"/>
        <pt x="534" y="1430" on="1"/>
      </contour>
    </TTGlyph>
    <TTGlyph name="dcaron" xMin="-67" yMin="0" xMax="1701" yMax="1430">
      <contour>
        <pt x="817" y="812" on="1"/>
        <pt x="757" y="836" on="0"/>
        <pt x="617" y="836" on="1"/>
        <pt x="362" y="836" on="0"/>
        <pt x="298" y="513" on="1"/>
        <pt x="239" y="220" on="0"/>
        <pt x="396" y="220" on="1"/>
        <pt x="590" y="220" on="0"/>
        <pt x="754" y="494" on="1"/>
      </contour>
      <contour>
        <pt x="920" y="0" on="1"/>
        <pt x="685" y="0" on="1"/>
        <pt x="709" y="270" on="1"/>
        <pt x="537" y="0" on="0"/>
        <pt x="301" y="0" on="1"/>
        <pt x="-67" y="0" on="0"/>
        <pt x="35" y="511" on="1"/>
        <pt x="143" y="1050" on="0"/>
        <pt x="688" y="1050" on="1"/>
        <pt x="769" y="1050" on="0"/>
        <pt x="863" y="1042" on="1"/>
        <pt x="941" y="1430" on="1"/>
        <pt x="1206" y="1430" on="1"/>
      </contour>
      <contour>
        <pt x="1701" y="1430" on="1"/>
        <pt x="1464" y="995" on="1"/>
        <pt x="1219" y="995" on="1"/>
        <pt x="1456" y="1430" on="1"/>
      </contour>
    </TTGlyph>
    <TTGlyph name="dcroat" xMin="-67" yMin="0" xMax="1206" yMax="1430">
      <contour>
        <pt x="817" y="812" on="1"/>
        <pt x="757" y="836" on="0"/>
        <pt x="617" y="836" on="1"/>
        <pt x="362" y="836" on="0"/>
        <pt x="298" y="513" on="1"/>
        <pt x="239" y="220" on="0"/>
        <pt x="396" y="220" on="1"/>
        <pt x="590" y="220" on="0"/>
        <pt x="754" y="494" on="1"/>
      </contour>
      <contour>
        <pt x="921" y="1330" on="1"/>
        <pt x="941" y="1430" on="1"/>
        <pt x="1206" y="1430" on="1"/>
        <pt x="920" y="0" on="1"/>
        <pt x="685" y="0" on="1"/>
        <pt x="709" y="270" on="1"/>
        <pt x="537" y="0" on="0"/>
        <pt x="301" y="0" on="1"/>
        <pt x="-67" y="0" on="0"/>
        <pt x="35" y="511" on="1"/>
        <pt x="143" y="1050" on="0"/>
        <pt x="688" y="1050" on="1"/>
        <pt x="769" y="1050" on="0"/>
        <pt x="863" y="1042" on="1"/>
        <pt x="879" y="1120" on="1"/>
        <pt x="197" y="1120" on="1"/>
        <pt x="239" y="1330" on="1"/>
      </contour>
    </TTGlyph>
    <TTGlyph name="degree" xMin="116" yMin="791" xMax="916" yMax="1430">
      <contour>
        <pt x="341" y="965" on="0"/>
        <pt x="489" y="965" on="1"/>
        <pt x="633" y="965" on="0"/>
        <pt x="662" y="1112" on="1"/>
        <pt x="691" y="1256" on="0"/>
        <pt x="547" y="1256" on="1"/>
        <pt x="399" y="1256" on="0"/>
        <pt x="370" y="1112" on="1"/>
      </contour>
      <contour>
        <pt x="180" y="1110" on="1"/>
        <pt x="244" y="1430" on="0"/>
        <pt x="582" y="1430" on="1"/>
        <pt x="916" y="1430" on="0"/>
        <pt x="852" y="1110" on="1"/>
        <pt x="788" y="791" on="0"/>
        <pt x="454" y="791" on="1"/>
        <pt x="116" y="791" on="0"/>
      </contour>
    </TTGlyph>
    <TTGlyph name="delta" xMin="-84" yMin="-10" xMax="1183" yMax="1430">
      <contour>
        <pt x="996" y="-10" on="0"/>
        <pt x="449" y="-10" on="1"/>
        <pt x="-84" y="-10" on="0"/>
        <pt x="24" y="530" on="1"/>
        <pt x="122" y="1020" on="0"/>
        <pt x="637" y="1020" on="1"/>
        <pt x="511" y="1163" on="0"/>
        <pt x="276" y="1220" on="1"/>
        <pt x="318" y="1430" on="1"/>
        <pt x="1183" y="1430" on="1"/>
        <pt x="1141" y="1220" on="1"/>
        <pt x="674" y="1220" on="1"/>
        <pt x="1176" y="955" on="0"/>
        <pt x="1106" y="540" on="1"/>
      </contour>
      <contour>
        <pt x="840" y="536" on="1"/>
        <pt x="899" y="830" on="0"/>
        <pt x="617" y="830" on="1"/>
        <pt x="345" y="830" on="0"/>
        <pt x="285" y="530" on="1"/>
        <pt x="219" y="200" on="0"/>
        <pt x="492" y="200" on="1"/>
        <pt x="773" y="200" on="0"/>
      </contour>
    </TTGlyph>
    <TTGlyph name="dieresis" xMin="206" yMin="1240" xMax="799" yMax="1430">
      <contour>
        <pt x="799" y="1430" on="1"/>
        <pt x="761" y="1240" on="1"/>
        <pt x="546" y="1240" on="1"/>
        <pt x="584" y="1430" on="1"/>
      </contour>
      <contour>
        <pt x="459" y="1430" on="1"/>
        <pt x="421" y="1240" on="1"/>
        <pt x="206" y="1240" on="1"/>
        <pt x="244" y="1430" on="1"/>
      </contour>
    </TTGlyph>
    <TTGlyph name="dieresistonos" xMin="206" yMin="1171" xMax="1189" yMax="1430">
      <contour>
        <pt x="1189" y="1430" on="1"/>
        <pt x="1151" y="1240" on="1"/>
        <pt x="936" y="1240" on="1"/>
        <pt x="974" y="1430" on="1"/>
      </contour>
      <contour>
        <pt x="459" y="1430" on="1"/>
        <pt x="421" y="1240" on="1"/>
        <pt x="206" y="1240" on="1"/>
        <pt x="244" y="1430" on="1"/>
      </contour>
      <contour>
        <pt x="618" y="1430" on="1"/>
        <pt x="937" y="1430" on="1"/>
        <pt x="646" y="1171" on="1"/>
        <pt x="422" y="1171" on="1"/>
      </contour>
    </TTGlyph>
    <TTGlyph name="divide" xMin="42" yMin="150" xMax="869" yMax="900">
      <contour>
        <pt x="869" y="630" on="1"/>
        <pt x="827" y="420" on="1"/>
        <pt x="42" y="420" on="1"/>
        <pt x="84" y="630" on="1"/>
      </contour>
      <contour>
        <pt x="531" y="340" on="1"/>
        <pt x="493" y="150" on="1"/>
        <pt x="268" y="150" on="1"/>
        <pt x="306" y="340" on="1"/>
      </contour>
      <contour>
        <pt x="643" y="900" on="1"/>
        <pt x="605" y="710" on="1"/>
        <pt x="380" y="710" on="1"/>
        <pt x="418" y="900" on="1"/>
      </contour>
    </TTGlyph>
    <TTGlyph name="dollar" xMin="29" yMin="0" xMax="1009" yMax="1430">
      <contour>
        <pt x="503" y="1231" on="1"/>
        <pt x="543" y="1430" on="1"/>
        <pt x="798" y="1430" on="1"/>
        <pt x="759" y="1235" on="1"/>
        <pt x="893" y="1223" on="0"/>
        <pt x="1009" y="1180" on="1"/>
        <pt x="965" y="960" on="1"/>
        <pt x="804" y="1030" on="0"/>
        <pt x="599" y="1030" on="1"/>
        <pt x="384" y="1030" on="0"/>
        <pt x="362" y="920" on="1"/>
        <pt x="342" y="820" on="0"/>
        <pt x="467" y="820" on="1"/>
        <pt x="637" y="820" on="1"/>
        <pt x="987" y="820" on="0"/>
        <pt x="923" y="500" on="1"/>
        <pt x="868" y="224" on="0"/>
        <pt x="548" y="179" on="1"/>
        <pt x="512" y="0" on="1"/>
        <pt x="257" y="0" on="1"/>
        <pt x="292" y="175" on="1"/>
        <pt x="146" y="187" on="0"/>
        <pt x="29" y="230" on="1"/>
        <pt x="73" y="450" on="1"/>
        <pt x="234" y="380" on="0"/>
        <pt x="463" y="380" on="1"/>
        <pt x="634" y="380" on="0"/>
        <pt x="656" y="490" on="1"/>
        <pt x="676" y="590" on="0"/>
        <pt x="561" y="590" on="1"/>
        <pt x="371" y="590" on="1"/>
        <pt x="51" y="590" on="0"/>
        <pt x="115" y="910" on="1"/>
        <pt x="170" y="1185" on="0"/>
      </contour>
    </TTGlyph>
    <TTGlyph name="dotaccent" xMin="200" yMin="1210" xMax="479" yMax="1430">
      <contour>
        <pt x="479" y="1430" on="1"/>
        <pt x="435" y="1210" on="1"/>
        <pt x="200" y="1210" on="1"/>
        <pt x="244" y="1430" on="1"/>
      </contour>
    </TTGlyph>
    <TTGlyph name="dotlessi" xMin="-17" yMin="0" xMax="458" yMax="1050">
      <contour>
        <pt x="458" y="1050" on="1"/>
        <pt x="248" y="0" on="1"/>
        <pt x="-17" y="0" on="1"/>
        <pt x="193" y="1050" on="1"/>
      </contour>
    </TTGlyph>
    <TTGlyph name="e" xMin="-82" yMin="0" xMax="1079" yMax="1050">
      <contour>
        <pt x="1079" y="1050" on="0"/>
        <pt x="1016" y="736" on="1"/>
        <pt x="953" y="422" on="0"/>
        <pt x="530" y="422" on="1"/>
        <pt x="267" y="422" on="1"/>
        <pt x="225" y="210" on="0"/>
        <pt x="501" y="210" on="1"/>
        <pt x="710" y="210" on="0"/>
        <pt x="895" y="340" on="1"/>
        <pt x="853" y="130" on="1"/>
        <pt x="688" y="0" on="0"/>
        <pt x="439" y="0" on="1"/>
        <pt x="-82" y="0" on="0"/>
        <pt x="25" y="537" on="1"/>
        <pt x="128" y="1050" on="0"/>
        <pt x="631" y="1050" on="1"/>
      </contour>
      <contour>
        <pt x="306" y="616" on="1"/>
        <pt x="571" y="616" on="1"/>
        <pt x="736" y="616" on="0"/>
        <pt x="759" y="729" on="1"/>
        <pt x="781" y="842" on="0"/>
        <pt x="589" y="842" on="1"/>
        <pt x="369" y="842" on="0"/>
      </contour>
    </TTGlyph>
    <TTGlyph name="eacute" xMin="-82" yMin="0" xMax="1079" yMax="1430">
      <component glyphName="e" x="0" y="0" flags="0x200"/>
      <component glyphName="acute" x="281" y="0" flags="0x0"/>
    </TTGlyph>
    <TTGlyph name="ebreve" xMin="-82" yMin="0" xMax="1079" yMax="1430">
      <component glyphName="e" x="0" y="0" flags="0x200"/>
      <component glyphName="breve" x="151" y="0" flags="0x0"/>
    </TTGlyph>
    <TTGlyph name="ecaron" xMin="-82" yMin="0" xMax="1079" yMax="1430">
      <component glyphName="e" x="0" y="0" flags="0x200"/>
      <component glyphName="caron" x="206" y="0" flags="0x0"/>
    </TTGlyph>
    <TTGlyph name="ecircumflex" xMin="-82" yMin="0" xMax="1079" yMax="1430">
      <component glyphName="e" x="0" y="0" flags="0x200"/>
      <component glyphName="circumflex" x="196" y="0" flags="0x0"/>
    </TTGlyph>
    <TTGlyph name="edieresis" xMin="-82" yMin="0" xMax="1079" yMax="1430">
      <component glyphName="e" x="0" y="0" flags="0x200"/>
      <component glyphName="dieresis" x="168" y="0" flags="0x0"/>
    </TTGlyph>
    <TTGlyph name="edotaccent" xMin="-82" yMin="0" xMax="1079" yMax="1430">
      <component glyphName="e" x="0" y="0" flags="0x200"/>
      <component glyphName="dotaccent" x="328" y="0" flags="0x0"/>
    </TTGlyph>
    <TTGlyph name="egrave" xMin="-82" yMin="0" xMax="1079" yMax="1430">
      <component glyphName="e" x="0" y="0" flags="0x200"/>
      <component glyphName="grave" x="167" y="0" flags="0x0"/>
    </TTGlyph>
    <TTGlyph name="eight" xMin="-64" yMin="-10" xMax="1307" yMax="1444">
      <contour>
        <pt x="23" y="424" on="1"/>
        <pt x="67" y="647" on="0"/>
        <pt x="301" y="755" on="1"/>
        <pt x="148" y="850" on="0"/>
        <pt x="194" y="1078" on="1"/>
        <pt x="267" y="1444" on="0"/>
        <pt x="787" y="1444" on="1"/>
        <pt x="1307" y="1444" on="0"/>
        <pt x="1234" y="1078" on="1"/>
        <pt x="1188" y="850" on="0"/>
        <pt x="992" y="755" on="1"/>
        <pt x="1187" y="647" on="0"/>
        <pt x="1143" y="424" on="1"/>
        <pt x="1056" y="-10" on="0"/>
        <pt x="506" y="-10" on="1"/>
        <pt x="-64" y="-10" on="0"/>
      </contour>
      <contour>
        <pt x="925" y="860" on="0"/>
        <pt x="963" y="1048" on="1"/>
        <pt x="995" y="1210" on="0"/>
        <pt x="742" y="1210" on="1"/>
        <pt x="485" y="1210" on="0"/>
        <pt x="453" y="1048" on="1"/>
        <pt x="415" y="860" on="0"/>
        <pt x="675" y="860" on="1"/>
      </contour>
      <contour>
        <pt x="837" y="220" on="0"/>
        <pt x="877" y="418" on="1"/>
        <pt x="919" y="630" on="0"/>
        <pt x="626" y="630" on="1"/>
        <pt x="329" y="630" on="0"/>
        <pt x="287" y="418" on="1"/>
        <pt x="247" y="220" on="0"/>
        <pt x="557" y="220" on="1"/>
      </contour>
    </TTGlyph>
    <TTGlyph name="eight.osf" xMin="-39" yMin="-10" xMax="1232" yMax="1344">
      <contour>
        <pt x="40" y="384" on="1"/>
        <pt x="86" y="617" on="0"/>
        <pt x="356" y="705" on="1"/>
        <pt x="161" y="790" on="0"/>
        <pt x="205" y="1008" on="1"/>
        <pt x="272" y="1344" on="0"/>
        <pt x="752" y="1344" on="1"/>
        <pt x="1232" y="1344" on="0"/>
        <pt x="1165" y="1008" on="1"/>
        <pt x="1121" y="790" on="0"/>
        <pt x="887" y="705" on="1"/>
        <pt x="1126" y="617" on="0"/>
        <pt x="1080" y="384" on="1"/>
        <pt x="1001" y="-10" on="0"/>
        <pt x="481" y="-10" on="1"/>
        <pt x="-39" y="-10" on="0"/>
      </contour>
      <contour>
        <pt x="858" y="800" on="0"/>
        <pt x="894" y="978" on="1"/>
        <pt x="924" y="1130" on="0"/>
        <pt x="701" y="1130" on="1"/>
        <pt x="494" y="1130" on="0"/>
        <pt x="464" y="978" on="1"/>
        <pt x="428" y="800" on="0"/>
        <pt x="648" y="800" on="1"/>
      </contour>
      <contour>
        <pt x="778" y="200" on="0"/>
        <pt x="818" y="398" on="1"/>
        <pt x="856" y="590" on="0"/>
        <pt x="593" y="590" on="1"/>
        <pt x="346" y="590" on="0"/>
        <pt x="308" y="398" on="1"/>
        <pt x="268" y="200" on="0"/>
        <pt x="528" y="200" on="1"/>
      </contour>
    </TTGlyph>
    <TTGlyph name="ellipsis" xMin="-42" yMin="0" xMax="1272" yMax="245">
      <contour>
        <pt x="272" y="245" on="1"/>
        <pt x="223" y="0" on="1"/>
        <pt x="-42" y="0" on="1"/>
        <pt x="7" y="245" on="1"/>
      </contour>
      <contour>
        <pt x="772" y="245" on="1"/>
        <pt x="723" y="0" on="1"/>
        <pt x="458" y="0" on="1"/>
        <pt x="507" y="245" on="1"/>
      </contour>
      <contour>
        <pt x="1272" y="245" on="1"/>
        <pt x="1223" y="0" on="1"/>
        <pt x="958" y="0" on="1"/>
        <pt x="1007" y="245" on="1"/>
      </contour>
    </TTGlyph>
    <TTGlyph name="emacron" xMin="-82" yMin="0" xMax="1079" yMax="1430">
      <component glyphName="e" x="0" y="0" flags="0x200"/>
      <component glyphName="macron" x="196" y="0" flags="0x0"/>
    </TTGlyph>
    <TTGlyph name="emdash" xMin="42" yMin="420" xMax="1584" yMax="630">
      <contour>
        <pt x="1584" y="630" on="1"/>
        <pt x="1542" y="420" on="1"/>
        <pt x="42" y="420" on="1"/>
        <pt x="84" y="630" on="1"/>
      </contour>
    </TTGlyph>
    <TTGlyph name="endash" xMin="42" yMin="420" xMax="1084" yMax="630">
      <contour>
        <pt x="1084" y="630" on="1"/>
        <pt x="1042" y="420" on="1"/>
        <pt x="42" y="420" on="1"/>
        <pt x="84" y="630" on="1"/>
      </contour>
    </TTGlyph>
    <TTGlyph name="eng" xMin="-17" yMin="-438" xMax="1178" yMax="1050">
      <contour>
        <pt x="845" y="712" on="1"/>
        <pt x="870" y="836" on="0"/>
        <pt x="727" y="836" on="1"/>
        <pt x="538" y="836" on="0"/>
        <pt x="349" y="503" on="1"/>
        <pt x="248" y="0" on="1"/>
        <pt x="-17" y="0" on="1"/>
        <pt x="193" y="1050" on="1"/>
        <pt x="428" y="1050" on="1"/>
        <pt x="387" y="696" on="1"/>
        <pt x="582" y="1050" on="0"/>
        <pt x="875" y="1050" on="1"/>
        <pt x="1178" y="1050" on="0"/>
        <pt x="1110" y="709" on="1"/>
        <pt x="984" y="80" on="1"/>
        <pt x="920" y="-238" on="0"/>
        <pt x="698" y="-438" on="1"/>
        <pt x="519" y="-293" on="1"/>
        <pt x="671" y="-158" on="0"/>
        <pt x="719" y="80" on="1"/>
      </contour>
    </TTGlyph>
    <TTGlyph name="eogonek" xMin="-82" yMin="-426" xMax="1079" yMax="1050">
      <contour>
        <pt x="306" y="616" on="1"/>
        <pt x="571" y="616" on="1"/>
        <pt x="736" y="616" on="0"/>
        <pt x="759" y="729" on="1"/>
        <pt x="781" y="842" on="0"/>
        <pt x="589" y="842" on="1"/>
        <pt x="369" y="842" on="0"/>
      </contour>
      <contour>
        <pt x="576" y="11" on="1"/>
        <pt x="511" y="0" on="0"/>
        <pt x="439" y="0" on="1"/>
        <pt x="-82" y="0" on="0"/>
        <pt x="25" y="537" on="1"/>
        <pt x="128" y="1050" on="0"/>
        <pt x="631" y="1050" on="1"/>
        <pt x="1079" y="1050" on="0"/>
        <pt x="1016" y="736" on="1"/>
        <pt x="953" y="422" on="0"/>
        <pt x="530" y="422" on="1"/>
        <pt x="267" y="422" on="1"/>
        <pt x="225" y="210" on="0"/>
        <pt x="501" y="210" on="1"/>
        <pt x="710" y="210" on="0"/>
        <pt x="895" y="340" on="1"/>
        <pt x="843" y="80" on="1"/>
        <pt x="570" y="-96" on="0"/>
        <pt x="549" y="-198" on="1"/>
        <pt x="536" y="-266" on="0"/>
        <pt x="621" y="-266" on="1"/>
        <pt x="706" y="-266" on="0"/>
        <pt x="762" y="-246" on="1"/>
        <pt x="730" y="-406" on="1"/>
        <pt x="665" y="-426" on="0"/>
        <pt x="577" y="-426" on="1"/>
        <pt x="316" y="-426" on="0"/>
        <pt x="356" y="-223" on="1"/>
        <pt x="383" y="-92" on="0"/>
      </contour>
    </TTGlyph>
    <TTGlyph name="epsilon" xMin="-69" yMin="-10" xMax="900" yMax="1060">
      <contour>
        <pt x="856" y="790" on="1"/>
        <pt x="718" y="850" on="0"/>
        <pt x="548" y="850" on="1"/>
        <pt x="378" y="850" on="0"/>
        <pt x="358" y="748" on="1"/>
        <pt x="338" y="650" on="0"/>
        <pt x="543" y="650" on="1"/>
        <pt x="738" y="650" on="1"/>
        <pt x="696" y="440" on="1"/>
        <pt x="498" y="440" on="1"/>
        <pt x="286" y="440" on="0"/>
        <pt x="262" y="320" on="1"/>
        <pt x="238" y="200" on="0"/>
        <pt x="418" y="200" on="1"/>
        <pt x="588" y="200" on="0"/>
        <pt x="750" y="260" on="1"/>
        <pt x="706" y="40" on="1"/>
        <pt x="546" y="-10" on="0"/>
        <pt x="376" y="-10" on="1"/>
        <pt x="-69" y="-10" on="0"/>
        <pt x="-9" y="290" on="1"/>
        <pt x="31" y="490" on="0"/>
        <pt x="270" y="545" on="1"/>
        <pt x="62" y="594" on="0"/>
        <pt x="99" y="778" on="1"/>
        <pt x="155" y="1060" on="0"/>
        <pt x="600" y="1060" on="1"/>
        <pt x="760" y="1060" on="0"/>
        <pt x="900" y="1010" on="1"/>
      </contour>
    </TTGlyph>
    <TTGlyph name="epsilontonos" xMin="-69" yMin="-10" xMax="910" yMax="1430">
      <component glyphName="epsilon" x="0" y="0" flags="0x200"/>
      <component glyphName="tonos" x="203" y="0" flags="0x0"/>
    </TTGlyph>
    <TTGlyph name="equal" xMin="6" yMin="240" xMax="870" yMax="810">
      <contour>
        <pt x="798" y="450" on="1"/>
        <pt x="756" y="240" on="1"/>
        <pt x="6" y="240" on="1"/>
        <pt x="48" y="450" on="1"/>
      </contour>
      <contour>
        <pt x="870" y="810" on="1"/>
        <pt x="828" y="600" on="1"/>
        <pt x="78" y="600" on="1"/>
        <pt x="120" y="810" on="1"/>
      </contour>
    </TTGlyph>
    <TTGlyph name="eta" xMin="-17" yMin="-380" xMax="1178" yMax="1050">
      <contour>
        <pt x="-17" y="0" on="1"/>
        <pt x="193" y="1050" on="1"/>
        <pt x="428" y="1050" on="1"/>
        <pt x="387" y="696" on="1"/>
        <pt x="582" y="1050" on="0"/>
        <pt x="875" y="1050" on="1"/>
        <pt x="1178" y="1050" on="0"/>
        <pt x="1110" y="709" on="1"/>
        <pt x="892" y="-380" on="1"/>
        <pt x="627" y="-380" on="1"/>
        <pt x="845" y="712" on="1"/>
        <pt x="870" y="836" on="0"/>
        <pt x="727" y="836" on="1"/>
        <pt x="538" y="836" on="0"/>
        <pt x="349" y="503" on="1"/>
        <pt x="248" y="0" on="1"/>
      </contour>
    </TTGlyph>
    <TTGlyph name="etatonos" xMin="-17" yMin="-380" xMax="1178" yMax="1430">
      <component glyphName="eta" x="0" y="0" flags="0x200"/>
      <component glyphName="tonos" x="363" y="0" flags="0x0"/>
    </TTGlyph>
    <TTGlyph name="eth" xMin="-69" yMin="-10" xMax="1178" yMax="1430">
      <contour>
        <pt x="827" y="646" on="1"/>
        <pt x="846" y="742" on="0"/>
        <pt x="840" y="800" on="1"/>
        <pt x="760" y="850" on="0"/>
        <pt x="616" y="850" on="1"/>
        <pt x="364" y="850" on="0"/>
        <pt x="302" y="540" on="1"/>
        <pt x="234" y="200" on="0"/>
        <pt x="487" y="200" on="1"/>
        <pt x="738" y="200" on="0"/>
      </contour>
      <contour>
        <pt x="997" y="1268" on="1"/>
        <pt x="1178" y="1075" on="0"/>
        <pt x="1093" y="650" on="1"/>
        <pt x="961" y="-10" on="0"/>
        <pt x="444" y="-10" on="1"/>
        <pt x="-69" y="-10" on="0"/>
        <pt x="41" y="540" on="1"/>
        <pt x="143" y="1050" on="0"/>
        <pt x="577" y="1050" on="1"/>
        <pt x="754" y="1050" on="0"/>
        <pt x="845" y="960" on="1"/>
        <pt x="810" y="1093" on="0"/>
        <pt x="711" y="1158" on="1"/>
        <pt x="460" y="1061" on="1"/>
        <pt x="484" y="1180" on="1"/>
        <pt x="566" y="1212" on="1"/>
        <pt x="518" y="1220" on="0"/>
        <pt x="463" y="1220" on="1"/>
        <pt x="257" y="1220" on="1"/>
        <pt x="299" y="1430" on="1"/>
        <pt x="507" y="1430" on="1"/>
        <pt x="756" y="1430" on="0"/>
        <pt x="903" y="1342" on="1"/>
        <pt x="1131" y="1430" on="1"/>
        <pt x="1107" y="1311" on="1"/>
      </contour>
    </TTGlyph>
    <TTGlyph name="exclam" xMin="8" yMin="0" xMax="559" yMax="1430">
      <contour>
        <pt x="559" y="1430" on="1"/>
        <pt x="347" y="370" on="1"/>
        <pt x="82" y="370" on="1"/>
        <pt x="294" y="1430" on="1"/>
      </contour>
      <contour>
        <pt x="322" y="245" on="1"/>
        <pt x="273" y="0" on="1"/>
        <pt x="8" y="0" on="1"/>
        <pt x="57" y="245" on="1"/>
      </contour>
    </TTGlyph>
    <TTGlyph name="exclamdown" xMin="-68" yMin="-380" xMax="483" yMax="1050">
      <contour>
        <pt x="-68" y="-380" on="1"/>
        <pt x="144" y="680" on="1"/>
        <pt x="409" y="680" on="1"/>
        <pt x="197" y="-380" on="1"/>
      </contour>
      <contour>
        <pt x="169" y="805" on="1"/>
        <pt x="218" y="1050" on="1"/>
        <pt x="483" y="1050" on="1"/>
        <pt x="434" y="805" on="1"/>
      </contour>
    </TTGlyph>
    <TTGlyph name="f" xMin="-201" yMin="-438" xMax="977" yMax="1482">
      <contour>
        <pt x="458" y="1050" on="1"/>
        <pt x="773" y="1050" on="1"/>
        <pt x="731" y="840" on="1"/>
        <pt x="416" y="840" on="1"/>
        <pt x="264" y="80" on="1"/>
        <pt x="200" y="-238" on="0"/>
        <pt x="-22" y="-438" on="1"/>
        <pt x="-201" y="-293" on="1"/>
        <pt x="-49" y="-158" on="0"/>
        <pt x="-1" y="80" on="1"/>
        <pt x="193" y="1050" on="1"/>
        <pt x="279" y="1482" on="0"/>
        <pt x="751" y="1482" on="1"/>
        <pt x="880" y="1482" on="0"/>
        <pt x="977" y="1442" on="1"/>
        <pt x="935" y="1232" on="1"/>
        <pt x="844" y="1272" on="0"/>
        <pt x="708" y="1272" on="1"/>
        <pt x="502" y="1272" on="0"/>
      </contour>
    </TTGlyph>
    <TTGlyph name="fb" xMin="-201" yMin="-438" xMax="1807" yMax="1502">
      <contour>
        <pt x="1044" y="800" on="1"/>
        <pt x="1213" y="1050" on="0"/>
        <pt x="1459" y="1050" on="1"/>
        <pt x="1807" y="1050" on="0"/>
        <pt x="1710" y="566" on="1"/>
        <pt x="1597" y="0" on="0"/>
        <pt x="1084" y="0" on="1"/>
        <pt x="868" y="0" on="0"/>
        <pt x="627" y="43" on="1"/>
        <pt x="873" y="1274" on="1"/>
        <pt x="827" y="1292" on="0"/>
        <pt x="742" y="1292" on="1"/>
        <pt x="506" y="1292" on="0"/>
        <pt x="469" y="1109" on="1"/>
        <pt x="458" y="1050" on="1"/>
        <pt x="673" y="1050" on="1"/>
        <pt x="631" y="840" on="1"/>
        <pt x="416" y="840" on="1"/>
        <pt x="264" y="80" on="1"/>
        <pt x="200" y="-238" on="0"/>
        <pt x="-22" y="-438" on="1"/>
        <pt x="-201" y="-293" on="1"/>
        <pt x="-49" y="-158" on="0"/>
        <pt x="-1" y="80" on="1"/>
        <pt x="203" y="1101" on="1"/>
        <pt x="283" y="1502" on="0"/>
        <pt x="805" y="1502" on="1"/>
        <pt x="1004" y="1502" on="0"/>
        <pt x="1170" y="1432" on="1"/>
      </contour>
      <contour>
        <pt x="999" y="576" on="1"/>
        <pt x="932" y="243" on="1"/>
        <pt x="1017" y="214" on="0"/>
        <pt x="1137" y="214" on="1"/>
        <pt x="1377" y="214" on="0"/>
        <pt x="1447" y="563" on="1"/>
        <pt x="1501" y="830" on="0"/>
        <pt x="1324" y="830" on="1"/>
        <pt x="1160" y="830" on="0"/>
      </contour>
    </TTGlyph>
    <TTGlyph name="ff" xMin="-201" yMin="-438" xMax="1603" yMax="1482">
      <contour>
        <pt x="264" y="80" on="1"/>
        <pt x="200" y="-238" on="0"/>
        <pt x="-22" y="-438" on="1"/>
        <pt x="-201" y="-293" on="1"/>
        <pt x="-49" y="-158" on="0"/>
        <pt x="-1" y="80" on="1"/>
        <pt x="203" y="1101" on="1"/>
        <pt x="279" y="1482" on="0"/>
        <pt x="661" y="1482" on="1"/>
        <pt x="750" y="1482" on="0"/>
        <pt x="824" y="1452" on="1"/>
        <pt x="782" y="1242" on="1"/>
        <pt x="724" y="1272" on="0"/>
        <pt x="658" y="1272" on="1"/>
        <pt x="502" y="1272" on="0"/>
        <pt x="469" y="1109" on="1"/>
        <pt x="458" y="1050" on="1"/>
        <pt x="819" y="1050" on="1"/>
        <pt x="910" y="1482" on="0"/>
        <pt x="1377" y="1482" on="1"/>
        <pt x="1506" y="1482" on="0"/>
        <pt x="1603" y="1442" on="1"/>
        <pt x="1561" y="1232" on="1"/>
        <pt x="1470" y="1272" on="0"/>
        <pt x="1354" y="1272" on="1"/>
        <pt x="1128" y="1272" on="0"/>
        <pt x="1084" y="1050" on="1"/>
        <pt x="1399" y="1050" on="1"/>
        <pt x="1357" y="840" on="1"/>
        <pt x="1042" y="840" on="1"/>
        <pt x="890" y="80" on="1"/>
        <pt x="826" y="-238" on="0"/>
        <pt x="604" y="-438" on="1"/>
        <pt x="425" y="-293" on="1"/>
        <pt x="577" y="-158" on="0"/>
        <pt x="625" y="80" on="1"/>
        <pt x="777" y="840" on="1"/>
        <pt x="416" y="840" on="1"/>
      </contour>
    </TTGlyph>
    <TTGlyph name="ffb" xMin="-201" yMin="-438" xMax="2433" yMax="1500">
      <contour>
        <pt x="264" y="80" on="1"/>
        <pt x="200" y="-238" on="0"/>
        <pt x="-22" y="-438" on="1"/>
        <pt x="-201" y="-293" on="1"/>
        <pt x="-49" y="-158" on="0"/>
        <pt x="-1" y="80" on="1"/>
        <pt x="203" y="1101" on="1"/>
        <pt x="279" y="1482" on="0"/>
        <pt x="661" y="1482" on="1"/>
        <pt x="750" y="1482" on="0"/>
        <pt x="824" y="1452" on="1"/>
        <pt x="782" y="1242" on="1"/>
        <pt x="724" y="1272" on="0"/>
        <pt x="658" y="1272" on="1"/>
        <pt x="502" y="1272" on="0"/>
        <pt x="469" y="1109" on="1"/>
        <pt x="458" y="1050" on="1"/>
        <pt x="819" y="1050" on="1"/>
        <pt x="828" y="1099" on="1"/>
        <pt x="909" y="1500" on="0"/>
        <pt x="1431" y="1500" on="1"/>
        <pt x="1630" y="1500" on="0"/>
        <pt x="1796" y="1430" on="1"/>
        <pt x="1670" y="800" on="1"/>
        <pt x="1839" y="1050" on="0"/>
        <pt x="2085" y="1050" on="1"/>
        <pt x="2433" y="1050" on="0"/>
        <pt x="2336" y="566" on="1"/>
        <pt x="2223" y="0" on="0"/>
        <pt x="1710" y="0" on="1"/>
        <pt x="1494" y="0" on="0"/>
        <pt x="1253" y="43" on="1"/>
        <pt x="1499" y="1272" on="1"/>
        <pt x="1453" y="1290" on="0"/>
        <pt x="1368" y="1290" on="1"/>
        <pt x="1132" y="1290" on="0"/>
        <pt x="1095" y="1107" on="1"/>
        <pt x="1083" y="1048" on="1"/>
        <pt x="1298" y="1048" on="1"/>
        <pt x="1256" y="838" on="1"/>
        <pt x="1041" y="838" on="1"/>
        <pt x="890" y="80" on="1"/>
        <pt x="826" y="-238" on="0"/>
        <pt x="604" y="-438" on="1"/>
        <pt x="425" y="-293" on="1"/>
        <pt x="577" y="-158" on="0"/>
        <pt x="625" y="80" on="1"/>
        <pt x="777" y="840" on="1"/>
        <pt x="416" y="840" on="1"/>
      </contour>
      <contour>
        <pt x="1625" y="576" on="1"/>
        <pt x="1558" y="243" on="1"/>
        <pt x="1643" y="214" on="0"/>
        <pt x="1763" y="214" on="1"/>
        <pt x="2003" y="214" on="0"/>
        <pt x="2073" y="563" on="1"/>
        <pt x="2127" y="830" on="0"/>
        <pt x="1950" y="830" on="1"/>
        <pt x="1786" y="830" on="0"/>
      </contour>
    </TTGlyph>
    <TTGlyph name="ffh" xMin="-201" yMin="-438" xMax="2440" yMax="1500">
      <contour>
        <pt x="264" y="80" on="1"/>
        <pt x="200" y="-238" on="0"/>
        <pt x="-22" y="-438" on="1"/>
        <pt x="-201" y="-293" on="1"/>
        <pt x="-49" y="-158" on="0"/>
        <pt x="-1" y="80" on="1"/>
        <pt x="203" y="1101" on="1"/>
        <pt x="279" y="1482" on="0"/>
        <pt x="661" y="1482" on="1"/>
        <pt x="750" y="1482" on="0"/>
        <pt x="824" y="1452" on="1"/>
        <pt x="782" y="1242" on="1"/>
        <pt x="724" y="1272" on="0"/>
        <pt x="658" y="1272" on="1"/>
        <pt x="502" y="1272" on="0"/>
        <pt x="469" y="1109" on="1"/>
        <pt x="458" y="1050" on="1"/>
        <pt x="819" y="1050" on="1"/>
        <pt x="828" y="1099" on="1"/>
        <pt x="909" y="1500" on="0"/>
        <pt x="1431" y="1500" on="1"/>
        <pt x="1630" y="1500" on="0"/>
        <pt x="1796" y="1430" on="1"/>
        <pt x="1653" y="716" on="1"/>
        <pt x="1844" y="1050" on="0"/>
        <pt x="2137" y="1050" on="1"/>
        <pt x="2440" y="1050" on="0"/>
        <pt x="2371" y="709" on="1"/>
        <pt x="2230" y="0" on="1"/>
        <pt x="1965" y="0" on="1"/>
        <pt x="2107" y="712" on="1"/>
        <pt x="2132" y="836" on="0"/>
        <pt x="1989" y="836" on="1"/>
        <pt x="1800" y="836" on="0"/>
        <pt x="1610" y="503" on="1"/>
        <pt x="1510" y="0" on="1"/>
        <pt x="1245" y="0" on="1"/>
        <pt x="1499" y="1272" on="1"/>
        <pt x="1453" y="1290" on="0"/>
        <pt x="1368" y="1290" on="1"/>
        <pt x="1132" y="1290" on="0"/>
        <pt x="1095" y="1107" on="1"/>
        <pt x="1083" y="1048" on="1"/>
        <pt x="1298" y="1048" on="1"/>
        <pt x="1256" y="838" on="1"/>
        <pt x="1041" y="838" on="1"/>
        <pt x="890" y="80" on="1"/>
        <pt x="826" y="-238" on="0"/>
        <pt x="604" y="-438" on="1"/>
        <pt x="425" y="-293" on="1"/>
        <pt x="577" y="-158" on="0"/>
        <pt x="625" y="80" on="1"/>
        <pt x="777" y="840" on="1"/>
        <pt x="416" y="840" on="1"/>
      </contour>
    </TTGlyph>
    <TTGlyph name="ffi" xMin="-201" yMin="-438" xMax="1706" yMax="1502">
      <contour>
        <pt x="819" y="1050" on="1"/>
        <pt x="829" y="1101" on="1"/>
        <pt x="909" y="1502" on="0"/>
        <pt x="1381" y="1502" on="1"/>
        <pt x="1550" y="1502" on="0"/>
        <pt x="1706" y="1432" on="1"/>
        <pt x="1664" y="1222" on="1"/>
        <pt x="1524" y="1292" on="0"/>
        <pt x="1358" y="1292" on="1"/>
        <pt x="1132" y="1292" on="0"/>
        <pt x="1095" y="1109" on="1"/>
        <pt x="1084" y="1050" on="1"/>
        <pt x="1690" y="1050" on="1"/>
        <pt x="1480" y="0" on="1"/>
        <pt x="1215" y="0" on="1"/>
        <pt x="1383" y="840" on="1"/>
        <pt x="1042" y="840" on="1"/>
        <pt x="890" y="80" on="1"/>
        <pt x="826" y="-238" on="0"/>
        <pt x="604" y="-438" on="1"/>
        <pt x="425" y="-293" on="1"/>
        <pt x="577" y="-158" on="0"/>
        <pt x="625" y="80" on="1"/>
        <pt x="777" y="840" on="1"/>
        <pt x="416" y="840" on="1"/>
        <pt x="264" y="80" on="1"/>
        <pt x="200" y="-238" on="0"/>
        <pt x="-22" y="-438" on="1"/>
        <pt x="-201" y="-293" on="1"/>
        <pt x="-49" y="-158" on="0"/>
        <pt x="-1" y="80" on="1"/>
        <pt x="203" y="1101" on="1"/>
        <pt x="279" y="1482" on="0"/>
        <pt x="661" y="1482" on="1"/>
        <pt x="750" y="1482" on="0"/>
        <pt x="824" y="1452" on="1"/>
        <pt x="782" y="1242" on="1"/>
        <pt x="724" y="1272" on="0"/>
        <pt x="658" y="1272" on="1"/>
        <pt x="502" y="1272" on="0"/>
        <pt x="469" y="1109" on="1"/>
        <pt x="458" y="1050" on="1"/>
      </contour>
    </TTGlyph>
    <TTGlyph name="ffj" xMin="-201" yMin="-438" xMax="1706" yMax="1502">
      <contour>
        <pt x="1496" y="80" on="1"/>
        <pt x="1432" y="-238" on="0"/>
        <pt x="1210" y="-438" on="1"/>
        <pt x="1031" y="-293" on="1"/>
        <pt x="1183" y="-158" on="0"/>
        <pt x="1231" y="80" on="1"/>
        <pt x="1383" y="840" on="1"/>
        <pt x="1042" y="840" on="1"/>
        <pt x="890" y="80" on="1"/>
        <pt x="826" y="-238" on="0"/>
        <pt x="604" y="-438" on="1"/>
        <pt x="425" y="-293" on="1"/>
        <pt x="577" y="-158" on="0"/>
        <pt x="625" y="80" on="1"/>
        <pt x="779" y="850" on="1"/>
        <pt x="418" y="850" on="1"/>
        <pt x="264" y="80" on="1"/>
        <pt x="200" y="-238" on="0"/>
        <pt x="-22" y="-438" on="1"/>
        <pt x="-201" y="-293" on="1"/>
        <pt x="-49" y="-158" on="0"/>
        <pt x="-1" y="80" on="1"/>
        <pt x="205" y="1111" on="1"/>
        <pt x="281" y="1492" on="0"/>
        <pt x="663" y="1492" on="1"/>
        <pt x="752" y="1492" on="0"/>
        <pt x="826" y="1462" on="1"/>
        <pt x="784" y="1252" on="1"/>
        <pt x="726" y="1282" on="0"/>
        <pt x="660" y="1282" on="1"/>
        <pt x="504" y="1282" on="0"/>
        <pt x="471" y="1119" on="1"/>
        <pt x="460" y="1060" on="1"/>
        <pt x="821" y="1060" on="1"/>
        <pt x="829" y="1101" on="1"/>
        <pt x="909" y="1502" on="0"/>
        <pt x="1381" y="1502" on="1"/>
        <pt x="1550" y="1502" on="0"/>
        <pt x="1706" y="1432" on="1"/>
        <pt x="1664" y="1222" on="1"/>
        <pt x="1524" y="1292" on="0"/>
        <pt x="1358" y="1292" on="1"/>
        <pt x="1132" y="1292" on="0"/>
        <pt x="1095" y="1109" on="1"/>
        <pt x="1084" y="1050" on="1"/>
        <pt x="1690" y="1050" on="1"/>
      </contour>
    </TTGlyph>
    <TTGlyph name="ffk" xMin="-201" yMin="-438" xMax="2465" yMax="1500">
      <contour>
        <pt x="264" y="80" on="1"/>
        <pt x="200" y="-238" on="0"/>
        <pt x="-22" y="-438" on="1"/>
        <pt x="-201" y="-293" on="1"/>
        <pt x="-49" y="-158" on="0"/>
        <pt x="-1" y="80" on="1"/>
        <pt x="203" y="1101" on="1"/>
        <pt x="279" y="1482" on="0"/>
        <pt x="661" y="1482" on="1"/>
        <pt x="750" y="1482" on="0"/>
        <pt x="824" y="1452" on="1"/>
        <pt x="782" y="1242" on="1"/>
        <pt x="724" y="1272" on="0"/>
        <pt x="658" y="1272" on="1"/>
        <pt x="502" y="1272" on="0"/>
        <pt x="469" y="1109" on="1"/>
        <pt x="458" y="1050" on="1"/>
        <pt x="819" y="1050" on="1"/>
        <pt x="828" y="1099" on="1"/>
        <pt x="909" y="1500" on="0"/>
        <pt x="1431" y="1500" on="1"/>
        <pt x="1630" y="1500" on="0"/>
        <pt x="1796" y="1430" on="1"/>
        <pt x="1663" y="768" on="1"/>
        <pt x="1883" y="1050" on="0"/>
        <pt x="2143" y="1050" on="1"/>
        <pt x="2465" y="1050" on="0"/>
        <pt x="2408" y="767" on="1"/>
        <pt x="2368" y="567" on="0"/>
        <pt x="2052" y="426" on="1"/>
        <pt x="2291" y="0" on="1"/>
        <pt x="1987" y="0" on="1"/>
        <pt x="1784" y="396" on="1"/>
        <pt x="1800" y="479" on="1"/>
        <pt x="2111" y="559" on="0"/>
        <pt x="2147" y="738" on="1"/>
        <pt x="2168" y="840" on="0"/>
        <pt x="2028" y="840" on="1"/>
        <pt x="1845" y="840" on="0"/>
        <pt x="1619" y="546" on="1"/>
        <pt x="1510" y="0" on="1"/>
        <pt x="1245" y="0" on="1"/>
        <pt x="1499" y="1272" on="1"/>
        <pt x="1453" y="1290" on="0"/>
        <pt x="1368" y="1290" on="1"/>
        <pt x="1132" y="1290" on="0"/>
        <pt x="1095" y="1107" on="1"/>
        <pt x="1083" y="1048" on="1"/>
        <pt x="1298" y="1048" on="1"/>
        <pt x="1256" y="838" on="1"/>
        <pt x="1041" y="838" on="1"/>
        <pt x="890" y="80" on="1"/>
        <pt x="826" y="-238" on="0"/>
        <pt x="604" y="-438" on="1"/>
        <pt x="425" y="-293" on="1"/>
        <pt x="577" y="-158" on="0"/>
        <pt x="625" y="80" on="1"/>
        <pt x="777" y="840" on="1"/>
        <pt x="416" y="840" on="1"/>
      </contour>
    </TTGlyph>
    <TTGlyph name="ffl" xMin="-201" yMin="-438" xMax="1796" yMax="1500">
      <contour>
        <pt x="264" y="80" on="1"/>
        <pt x="200" y="-238" on="0"/>
        <pt x="-22" y="-438" on="1"/>
        <pt x="-201" y="-293" on="1"/>
        <pt x="-49" y="-158" on="0"/>
        <pt x="-1" y="80" on="1"/>
        <pt x="203" y="1101" on="1"/>
        <pt x="279" y="1482" on="0"/>
        <pt x="661" y="1482" on="1"/>
        <pt x="750" y="1482" on="0"/>
        <pt x="824" y="1452" on="1"/>
        <pt x="782" y="1242" on="1"/>
        <pt x="724" y="1272" on="0"/>
        <pt x="658" y="1272" on="1"/>
        <pt x="502" y="1272" on="0"/>
        <pt x="469" y="1109" on="1"/>
        <pt x="458" y="1050" on="1"/>
        <pt x="819" y="1050" on="1"/>
        <pt x="828" y="1099" on="1"/>
        <pt x="909" y="1500" on="0"/>
        <pt x="1431" y="1500" on="1"/>
        <pt x="1630" y="1500" on="0"/>
        <pt x="1796" y="1430" on="1"/>
        <pt x="1509" y="-2" on="1"/>
        <pt x="1244" y="-2" on="1"/>
        <pt x="1499" y="1272" on="1"/>
        <pt x="1453" y="1290" on="0"/>
        <pt x="1368" y="1290" on="1"/>
        <pt x="1132" y="1290" on="0"/>
        <pt x="1095" y="1107" on="1"/>
        <pt x="1083" y="1048" on="1"/>
        <pt x="1298" y="1048" on="1"/>
        <pt x="1256" y="838" on="1"/>
        <pt x="1041" y="838" on="1"/>
        <pt x="890" y="80" on="1"/>
        <pt x="826" y="-238" on="0"/>
        <pt x="604" y="-438" on="1"/>
        <pt x="425" y="-293" on="1"/>
        <pt x="577" y="-158" on="0"/>
        <pt x="625" y="80" on="1"/>
        <pt x="777" y="840" on="1"/>
        <pt x="416" y="840" on="1"/>
      </contour>
    </TTGlyph>
    <TTGlyph name="fh" xMin="-201" yMin="-438" xMax="1814" yMax="1502">
      <contour>
        <pt x="884" y="0" on="1"/>
        <pt x="619" y="0" on="1"/>
        <pt x="873" y="1274" on="1"/>
        <pt x="827" y="1292" on="0"/>
        <pt x="742" y="1292" on="1"/>
        <pt x="506" y="1292" on="0"/>
        <pt x="469" y="1109" on="1"/>
        <pt x="458" y="1050" on="1"/>
        <pt x="673" y="1050" on="1"/>
        <pt x="631" y="840" on="1"/>
        <pt x="416" y="840" on="1"/>
        <pt x="264" y="80" on="1"/>
        <pt x="200" y="-238" on="0"/>
        <pt x="-22" y="-438" on="1"/>
        <pt x="-201" y="-293" on="1"/>
        <pt x="-49" y="-158" on="0"/>
        <pt x="-1" y="80" on="1"/>
        <pt x="203" y="1101" on="1"/>
        <pt x="283" y="1502" on="0"/>
        <pt x="805" y="1502" on="1"/>
        <pt x="1004" y="1502" on="0"/>
        <pt x="1170" y="1432" on="1"/>
        <pt x="1027" y="716" on="1"/>
        <pt x="1218" y="1050" on="0"/>
        <pt x="1511" y="1050" on="1"/>
        <pt x="1814" y="1050" on="0"/>
        <pt x="1745" y="709" on="1"/>
        <pt x="1604" y="0" on="1"/>
        <pt x="1339" y="0" on="1"/>
        <pt x="1481" y="712" on="1"/>
        <pt x="1506" y="836" on="0"/>
        <pt x="1363" y="836" on="1"/>
        <pt x="1174" y="836" on="0"/>
        <pt x="984" y="503" on="1"/>
      </contour>
    </TTGlyph>
    <TTGlyph name="fi" xMin="-201" yMin="-438" xMax="1080" yMax="1502">
      <contour>
        <pt x="203" y="1101" on="1"/>
        <pt x="283" y="1502" on="0"/>
        <pt x="755" y="1502" on="1"/>
        <pt x="924" y="1502" on="0"/>
        <pt x="1080" y="1432" on="1"/>
        <pt x="1038" y="1222" on="1"/>
        <pt x="898" y="1292" on="0"/>
        <pt x="732" y="1292" on="1"/>
        <pt x="506" y="1292" on="0"/>
        <pt x="469" y="1109" on="1"/>
        <pt x="458" y="1050" on="1"/>
        <pt x="1064" y="1050" on="1"/>
        <pt x="854" y="0" on="1"/>
        <pt x="589" y="0" on="1"/>
        <pt x="757" y="840" on="1"/>
        <pt x="416" y="840" on="1"/>
        <pt x="264" y="80" on="1"/>
        <pt x="200" y="-238" on="0"/>
        <pt x="-22" y="-438" on="1"/>
        <pt x="-201" y="-293" on="1"/>
        <pt x="-49" y="-158" on="0"/>
        <pt x="-1" y="80" on="1"/>
      </contour>
    </TTGlyph>
    <TTGlyph name="five" xMin="-7" yMin="-10" xMax="1173" yMax="1430">
      <contour>
        <pt x="319" y="1430" on="1"/>
        <pt x="1173" y="1430" on="1"/>
        <pt x="1131" y="1220" on="1"/>
        <pt x="505" y="1220" on="1"/>
        <pt x="411" y="868" on="1"/>
        <pt x="472" y="890" on="0"/>
        <pt x="581" y="890" on="1"/>
        <pt x="1121" y="890" on="0"/>
        <pt x="1033" y="450" on="1"/>
        <pt x="941" y="-10" on="0"/>
        <pt x="381" y="-10" on="1"/>
        <pt x="181" y="-10" on="0"/>
        <pt x="-7" y="50" on="1"/>
        <pt x="37" y="270" on="1"/>
        <pt x="223" y="200" on="0"/>
        <pt x="433" y="200" on="1"/>
        <pt x="718" y="200" on="0"/>
        <pt x="768" y="450" on="1"/>
        <pt x="814" y="680" on="0"/>
        <pt x="539" y="680" on="1"/>
        <pt x="314" y="680" on="0"/>
        <pt x="109" y="630" on="1"/>
      </contour>
    </TTGlyph>
    <TTGlyph name="five.osf" xMin="-33" yMin="-290" xMax="1067" yMax="1050">
      <contour>
        <pt x="243" y="1050" on="1"/>
        <pt x="1067" y="1050" on="1"/>
        <pt x="1025" y="840" on="1"/>
        <pt x="428" y="840" on="1"/>
        <pt x="355" y="538" on="1"/>
        <pt x="436" y="560" on="0"/>
        <pt x="515" y="560" on="1"/>
        <pt x="1035" y="560" on="0"/>
        <pt x="953" y="150" on="1"/>
        <pt x="865" y="-290" on="0"/>
        <pt x="285" y="-290" on="1"/>
        <pt x="105" y="-290" on="0"/>
        <pt x="-33" y="-230" on="1"/>
        <pt x="11" y="-10" on="1"/>
        <pt x="147" y="-80" on="0"/>
        <pt x="337" y="-80" on="1"/>
        <pt x="642" y="-80" on="0"/>
        <pt x="686" y="140" on="1"/>
        <pt x="728" y="350" on="0"/>
        <pt x="453" y="350" on="1"/>
        <pt x="258" y="350" on="0"/>
        <pt x="53" y="300" on="1"/>
      </contour>
    </TTGlyph>
    <TTGlyph name="fj" xMin="-201" yMin="-438" xMax="1080" yMax="1502">
      <contour>
        <pt x="870" y="80" on="1"/>
        <pt x="806" y="-238" on="0"/>
        <pt x="584" y="-438" on="1"/>
        <pt x="405" y="-293" on="1"/>
        <pt x="557" y="-158" on="0"/>
        <pt x="605" y="80" on="1"/>
        <pt x="757" y="840" on="1"/>
        <pt x="416" y="840" on="1"/>
        <pt x="264" y="80" on="1"/>
        <pt x="200" y="-238" on="0"/>
        <pt x="-22" y="-438" on="1"/>
        <pt x="-201" y="-293" on="1"/>
        <pt x="-49" y="-158" on="0"/>
        <pt x="-1" y="80" on="1"/>
        <pt x="203" y="1101" on="1"/>
        <pt x="283" y="1502" on="0"/>
        <pt x="755" y="1502" on="1"/>
        <pt x="924" y="1502" on="0"/>
        <pt x="1080" y="1432" on="1"/>
        <pt x="1038" y="1222" on="1"/>
        <pt x="898" y="1292" on="0"/>
        <pt x="732" y="1292" on="1"/>
        <pt x="506" y="1292" on="0"/>
        <pt x="469" y="1109" on="1"/>
        <pt x="458" y="1050" on="1"/>
        <pt x="1064" y="1050" on="1"/>
      </contour>
    </TTGlyph>
    <TTGlyph name="fk" xMin="-201" yMin="-438" xMax="1839" yMax="1502">
      <contour>
        <pt x="884" y="0" on="1"/>
        <pt x="619" y="0" on="1"/>
        <pt x="873" y="1274" on="1"/>
        <pt x="827" y="1292" on="0"/>
        <pt x="742" y="1292" on="1"/>
        <pt x="506" y="1292" on="0"/>
        <pt x="469" y="1109" on="1"/>
        <pt x="458" y="1050" on="1"/>
        <pt x="673" y="1050" on="1"/>
        <pt x="631" y="840" on="1"/>
        <pt x="416" y="840" on="1"/>
        <pt x="264" y="80" on="1"/>
        <pt x="200" y="-238" on="0"/>
        <pt x="-22" y="-438" on="1"/>
        <pt x="-201" y="-293" on="1"/>
        <pt x="-49" y="-158" on="0"/>
        <pt x="-1" y="80" on="1"/>
        <pt x="203" y="1101" on="1"/>
        <pt x="283" y="1502" on="0"/>
        <pt x="805" y="1502" on="1"/>
        <pt x="1004" y="1502" on="0"/>
        <pt x="1170" y="1432" on="1"/>
        <pt x="1037" y="768" on="1"/>
        <pt x="1257" y="1050" on="0"/>
        <pt x="1517" y="1050" on="1"/>
        <pt x="1839" y="1050" on="0"/>
        <pt x="1782" y="767" on="1"/>
        <pt x="1742" y="567" on="0"/>
        <pt x="1426" y="426" on="1"/>
        <pt x="1665" y="0" on="1"/>
        <pt x="1361" y="0" on="1"/>
        <pt x="1158" y="396" on="1"/>
        <pt x="1174" y="479" on="1"/>
        <pt x="1485" y="559" on="0"/>
        <pt x="1521" y="738" on="1"/>
        <pt x="1542" y="840" on="0"/>
        <pt x="1402" y="840" on="1"/>
        <pt x="1219" y="840" on="0"/>
        <pt x="993" y="546" on="1"/>
      </contour>
    </TTGlyph>
    <TTGlyph name="fl" xMin="-201" yMin="-438" xMax="1170" yMax="1502">
      <contour>
        <pt x="203" y="1101" on="1"/>
        <pt x="283" y="1502" on="0"/>
        <pt x="805" y="1502" on="1"/>
        <pt x="1004" y="1502" on="0"/>
        <pt x="1170" y="1432" on="1"/>
        <pt x="884" y="0" on="1"/>
        <pt x="619" y="0" on="1"/>
        <pt x="873" y="1274" on="1"/>
        <pt x="827" y="1292" on="0"/>
        <pt x="742" y="1292" on="1"/>
        <pt x="506" y="1292" on="0"/>
        <pt x="469" y="1109" on="1"/>
        <pt x="458" y="1050" on="1"/>
        <pt x="673" y="1050" on="1"/>
        <pt x="631" y="840" on="1"/>
        <pt x="416" y="840" on="1"/>
        <pt x="264" y="80" on="1"/>
        <pt x="200" y="-238" on="0"/>
        <pt x="-22" y="-438" on="1"/>
        <pt x="-201" y="-293" on="1"/>
        <pt x="-49" y="-158" on="0"/>
        <pt x="-1" y="80" on="1"/>
      </contour>
    </TTGlyph>
    <TTGlyph name="florin" xMin="-168" yMin="-384" xMax="1221" yMax="1434">
      <contour>
        <pt x="1179" y="1220" on="1"/>
        <pt x="1141" y="1227" on="0"/>
        <pt x="1108" y="1227" on="1"/>
        <pt x="949" y="1227" on="0"/>
        <pt x="877" y="1070" on="1"/>
        <pt x="835" y="980" on="1"/>
        <pt x="1055" y="980" on="1"/>
        <pt x="973" y="770" on="1"/>
        <pt x="763" y="770" on="1"/>
        <pt x="441" y="-20" on="1"/>
        <pt x="295" y="-384" on="0"/>
        <pt x="-89" y="-384" on="1"/>
        <pt x="-127" y="-384" on="0"/>
        <pt x="-168" y="-380" on="1"/>
        <pt x="-126" y="-170" on="1"/>
        <pt x="-88" y="-177" on="0"/>
        <pt x="-55" y="-177" on="1"/>
        <pt x="104" y="-177" on="0"/>
        <pt x="176" y="-20" on="1"/>
        <pt x="498" y="770" on="1"/>
        <pt x="308" y="770" on="1"/>
        <pt x="390" y="980" on="1"/>
        <pt x="570" y="980" on="1"/>
        <pt x="612" y="1070" on="1"/>
        <pt x="758" y="1434" on="0"/>
        <pt x="1142" y="1434" on="1"/>
        <pt x="1180" y="1434" on="0"/>
        <pt x="1221" y="1430" on="1"/>
      </contour>
    </TTGlyph>
    <TTGlyph name="four" xMin="-20" yMin="0" xMax="1130" yMax="1430">
      <contour>
        <pt x="905" y="0" on="1"/>
        <pt x="640" y="0" on="1"/>
        <pt x="702" y="310" on="1"/>
        <pt x="-20" y="310" on="1"/>
        <pt x="20" y="510" on="1"/>
        <pt x="789" y="1430" on="1"/>
        <pt x="1073" y="1430" on="1"/>
        <pt x="325" y="520" on="1"/>
        <pt x="744" y="520" on="1"/>
        <pt x="840" y="998" on="1"/>
        <pt x="1105" y="998" on="1"/>
        <pt x="1009" y="520" on="1"/>
        <pt x="1130" y="384" on="1"/>
        <pt x="1115" y="310" on="1"/>
        <pt x="967" y="310" on="1"/>
      </contour>
    </TTGlyph>
    <TTGlyph name="four.osf" xMin="-76" yMin="-280" xMax="1016" yMax="1049">
      <contour>
        <pt x="779" y="-280" on="1"/>
        <pt x="514" y="-280" on="1"/>
        <pt x="576" y="29" on="1"/>
        <pt x="-76" y="29" on="1"/>
        <pt x="-34" y="239" on="1"/>
        <pt x="633" y="1049" on="1"/>
        <pt x="927" y="1049" on="1"/>
        <pt x="239" y="239" on="1"/>
        <pt x="618" y="239" on="1"/>
        <pt x="702" y="657" on="1"/>
        <pt x="967" y="657" on="1"/>
        <pt x="883" y="239" on="1"/>
        <pt x="1016" y="163" on="1"/>
        <pt x="989" y="29" on="1"/>
        <pt x="841" y="29" on="1"/>
      </contour>
    </TTGlyph>
    <TTGlyph name="fraction" xMin="-42" yMin="0" xMax="1314" yMax="1430">
      <contour>
        <pt x="203" y="0" on="1"/>
        <pt x="-42" y="0" on="1"/>
        <pt x="1069" y="1430" on="1"/>
        <pt x="1314" y="1430" on="1"/>
      </contour>
    </TTGlyph>
</ttFont>
